<?xml version="1.0" encoding="UTF-8" standalone="no"?>
<!-- Created with Inkscape (http://www.inkscape.org/) -->

<svg
   xmlns:dc="http://purl.org/dc/elements/1.1/"
   xmlns:cc="http://creativecommons.org/ns#"
   xmlns:rdf="http://www.w3.org/1999/02/22-rdf-syntax-ns#"
   xmlns:svg="http://www.w3.org/2000/svg"
   xmlns="http://www.w3.org/2000/svg"
   xmlns:xlink="http://www.w3.org/1999/xlink"
   xmlns:sodipodi="http://sodipodi.sourceforge.net/DTD/sodipodi-0.dtd"
   xmlns:inkscape="http://www.inkscape.org/namespaces/inkscape"
   width="263.15009"
   height="278.89575"
   id="svg2"
   version="1.1"
   inkscape:version="0.48.1 r9760"
   sodipodi:docname="fred.svg"
   inkscape:export-filename="aptosid-ponos.png"
   inkscape:export-xdpi="90"
   inkscape:export-ydpi="90"
   style="display:inline;enable-background:new">
  <defs
     id="defs4">
    <linearGradient
       inkscape:collect="always"
       id="linearGradient4050">
      <stop
         style="stop-color:#ffffff;stop-opacity:1;"
         offset="0"
         id="stop4052" />
      <stop
         style="stop-color:#ffffff;stop-opacity:0;"
         offset="1"
         id="stop4054" />
    </linearGradient>
    <filter
       inkscape:collect="always"
       id="filter4907"
       color-interpolation-filters="sRGB">
      <feGaussianBlur
         inkscape:collect="always"
         stdDeviation="7.9116464"
         id="feGaussianBlur4909" />
    </filter>
    <linearGradient
       inkscape:collect="always"
       xlink:href="#linearGradient4050"
       id="linearGradient7255"
       gradientUnits="userSpaceOnUse"
       x1="1887.0872"
       y1="889.59613"
       x2="1887.0872"
       y2="699.92035"
       gradientTransform="matrix(-1,0,0,1,2578,-367.69553)" />
  </defs>
  <sodipodi:namedview
     id="base"
     pagecolor="#000000"
     bordercolor="#666666"
     borderopacity="1.0"
     inkscape:pageopacity="0"
     inkscape:pageshadow="2"
     inkscape:zoom="0.35355339"
     inkscape:cx="125.61899"
     inkscape:cy="21.99799"
     inkscape:document-units="px"
     inkscape:current-layer="layer2"
     showgrid="false"
     borderlayer="true"
     inkscape:window-width="1920"
     inkscape:window-height="1028"
     inkscape:window-x="-3"
     inkscape:window-y="-3"
     inkscape:window-maximized="1"
     fit-margin-top="0"
     fit-margin-left="0"
     fit-margin-right="0"
     fit-margin-bottom="0" />
  <metadata
     id="metadata7">
    <rdf:RDF>
      <cc:Work
         rdf:about="">
        <dc:format>image/svg+xml</dc:format>
        <dc:type
           rdf:resource="http://purl.org/dc/dcmitype/StillImage" />
        <dc:title />
      </cc:Work>
    </rdf:RDF>
  </metadata>
  <g
     inkscape:groupmode="layer"
     id="layer2"
     inkscape:label="fred"
     style="display:inline"
     transform="translate(-668.42498,-340.34151)">
    <use
       x="0"
       y="0"
       xlink:href="#use7262"
       id="use7264"
       width="1920"
       height="1200" />
    <path
       inkscape:connector-curvature="0"
       id="use7262"
       d="m 811.29534,362.83222 c 13.6189,0.24337 26.2092,16.5118 26.2092,16.5118 20.75676,-17.13033 20.62656,22.98545 20.62656,22.98545 19.3097,8.91176 14.3103,40.51947 14.3103,40.51947 l -6.0281,1.33666 c 4.8397,9.48039 7.5744,20.18193 7.5744,31.5035 0,3.34245 -0.248,6.60951 -0.7076,9.82842 10.2132,1.73014 29.868,6.26473 26.4712,15.09651 l 1.8085,3.64309 c 0,0 9.109,3.64409 7.2861,9.56633 -1.0931,3.55138 -9.8584,10.67148 -16.7214,15.8304 2.5028,0.98804 10.4215,4.56489 8.4656,9.93322 -2.3135,6.34582 -31.7918,23.43108 -31.7918,23.43108 l 14.4412,-21.96334 c 0,0 -25.8992,-3.0513 -35.0155,-11.34856 -1.1537,0.94814 -2.3247,1.87565 -3.5382,2.75194 5.0177,2.386 8.322,5.53648 6.762,9.59256 l 1.8346,3.64309 c 0,0 9.109,3.64415 7.2862,9.56638 -1.8229,5.92218 -25.05606,21.85849 -25.05596,21.85849 l 11.40096,-20.49566 c 0,0 -12.87996,-1.78282 -21.77976,-6.39503 0.9347,12.74074 -9.3752,28.34653 -26.4714,38.18686 -16.5627,9.53332 -34.5699,10.77833 -45.2632,4.29831 5.3155,-0.80286 11.1455,-2.81472 16.7738,-6.05438 15.0093,-8.63905 23.1301,-22.6973 18.1368,-31.37242 -4.9765,-8.64612 -21.1227,-8.68367 -36.0901,-0.13102 4.5175,-5.84673 10.7427,-11.30035 18.2941,-15.64693 0.2974,-0.17121 0.5926,-0.332 0.891,-0.49797 -4.2659,-2.04403 -8.2871,-4.50694 -12.03,-7.31235 -0.9051,4.15692 -2.4848,8.46625 -4.7962,12.65906 -3.0529,5.53772 -6.9308,10.11533 -11.1127,13.47157 6.0057,-10.97501 5.79,-22.68763 -0.5504,-26.18302 -6.3617,-3.50712 -16.4722,2.59599 -22.5399,13.60253 -2.2755,4.12745 -3.6559,8.37195 -4.1673,12.23977 -3.3385,-5.28653 -4.0336,-13.14576 -1.9657,-21.4916 -3.5035,-2.21649 -21.2451,-13.64238 -23.0641,-19.00169 -2.0101,-5.92218 8.0463,-9.56633 8.0463,-9.56633 l 1.9919,-3.64309 c -1.8966,-4.47088 2.7391,-7.84032 9.2256,-10.30023 -3.504,-2.67762 -6.5005,-5.35153 -7.0504,-6.97163 -1.462,-4.31115 5.8709,-6.9454 5.8709,-6.9454 l 1.4415,-2.64715 c -2.7109,-6.38997 12.8644,-9.68096 21.0985,-10.95544 4.8228,-34.2449 34.7343,-60.64812 70.7385,-60.64812 17.2869,0 33.1712,6.077 45.55176,16.19729 -2.3125,-6.57238 -3.9315,-11.92521 -3.9315,-11.92521 -8.55936,1.88402 -17.11456,-20.75767 -17.11456,-20.75767 -7.4185,1.63284 -36.2474,-7.57447 -36.2474,-7.57447 0,0 -9.5165,9.85054 -14.1267,2.48988 -4.6111,-7.35898 -14.1267,0.13104 -14.1267,0.13104 21.9876,-30.56318 28.0176,-8.57041 28.0176,-8.57041 l 6.1066,-4.92732 c 4.6406,-5.62986 9.699,-7.63629 14.6249,-7.54826 z m -0.2096,3.24994 c -9.4615,-0.29646 -12.9212,8.67545 -12.9212,8.67525 4.3411,2.77604 33.1022,2.04432 33.1022,2.04432 -8.6285,-7.8802 -15.2252,-10.56427 -20.181,-10.71957 z m 32.36826,13.26186 c -2.0705,-0.0645 -3.53816,0.70765 -3.53816,0.70765 l 10.48366,15.88277 c 2.5309,2.74628 1.0852,5.86029 -0.5243,7.96762 -1.2577,1.0029 -2.2533,1.93648 -2.3063,2.43745 0,0 1.1889,-0.97454 2.3063,-2.43745 2.3388,-1.86504 5.6087,-3.95758 5.6087,-3.95758 -1.9749,-17.31682 -8.0772,-20.47732 -12.0299,-20.60046 z m 14.284,26.62854 c 4.6362,4.1103 1.4153,27.65042 1.4153,27.65071 l 10.3788,4.71766 c 1.4747,-20.84464 -11.7941,-32.36837 -11.7941,-32.36837 z m -55.19666,8.91117 c -34.2521,0 -61.8535,27.2299 -61.8537,60.80537 0,0.48483 0.015,0.95934 0.026,1.44145 16.8113,24.85479 61.5528,9.29869 87.5388,-8.9635 24.65946,-17.33015 33.89266,1.4263 36.16866,7.65307 0,-0.0442 0,-0.087 0,-0.13102 0,-33.57547 -27.62766,-60.80537 -61.88006,-60.80537 z m 7.496,39.26137 -33.5216,25.58021 c -7.4719,-12.67933 33.5216,-25.58021 33.5216,-25.58021 z m -56.2713,2.0705 c 5.8108,-0.18595 8.0464,24.00768 8.0464,24.00768 l -9.9596,-23.09036 c 0.6791,-0.59427 1.3121,-0.89804 1.9132,-0.91732 z m -21.9632,11.45348 c -11.7465,-0.0471 -19.2638,8.25589 -19.2638,8.25589 l 0.1834,4.14106 c 3.8384,0 22.304,-7.6269 22.304,-7.6269 l 0.5505,-4.48179 c -1.3023,-0.20204 -2.5589,-0.28343 -3.7741,-0.28826 z m 105.6755,13.10456 c -4.4188,-0.10974 -10.6672,4.19346 -10.6672,4.19346 -54.9039,21.89603 -83.9742,0.76007 -83.9742,0.76007 8.0742,20.38474 87.2013,16.61222 92.0467,15.85657 4.8455,-0.75565 8.86876,-11.34137 6.44736,-18.13678 -0.6813,-1.91119 -2.12356,-2.63035 -3.85266,-2.67332 z m -127.665,0.7863 c 0,0 -8.4219,2.15231 -3.6692,3.64309 l 3.6692,-3.64309 z m 21.7013,1.46768 c -7.1264,3.23901 -17.141,4.48178 -17.141,4.48178 l 2.4375,3.98382 c 5.7547,-1.53652 11.5289,-2.48791 15.4634,-3.04028 -0.3331,-1.78311 -0.5667,-3.59812 -0.7599,-5.42532 z m 141.94886,4.87496 c -1.5141,0.007 -3.0687,0.14175 -4.6915,0.41934 l 0.6815,6.13294 c 0,0 22.9992,10.4837 27.7818,10.4837 l 0.2359,-5.68742 c 0,0 -9.3715,-11.41316 -24.0077,-11.34856 z m -143.25956,3.17129 c -16.1432,-0.0646 -26.4712,11.34856 -26.4712,11.34856 l 0.262,5.68742 c 5.276,0 30.6387,-10.45747 30.6387,-10.45747 l 0.7601,-6.15916 c -1.7898,-0.2776 -3.5195,-0.41269 -5.1896,-0.41935 z m 15.4112,6.47366 c 9.0281,11.61484 65.9679,29.37878 67.3576,30.06199 1.3897,0.68321 10.4051,-3.4209 10.4051,-8.2035 0,-4.7826 -4.8488,-8.2035 -4.8488,-8.2035 -11.8048,6.14903 -72.9139,-13.65499 -72.9139,-13.65499 z m 122.02996,7.12894 c -0.967,2.09708 -2.06,4.1252 -3.2238,6.10671 12.8677,2.49774 28.0515,7.10035 24.6105,14.65099 l 0.2359,0.39311 5.9232,-10.64094 c 0,0 -20.313,-2.81307 -27.5458,-10.50987 z m -129.52586,1.38905 c -0.058,0.0856 -0.096,0.17747 -0.1573,0.2621 0.081,-0.0312 0.1554,-0.0744 0.2359,-0.10485 -0.026,-0.0525 -0.052,-0.10456 -0.079,-0.15725 z m 162.75906,0.91732 4.5605,5.00598 c 5.9222,-2.0497 -4.5605,-5.00598 -4.5605,-5.00598 z m -200.91966,3.19752 c 0,0 -11.5376,2.95628 -5.006,5.00598 l 5.006,-5.00598 z m 155.73496,1.62498 c -1.9218,0.008 -3.9159,0.14811 -5.9757,0.44558 l 0.865,6.60468 c 0,0 29.18,11.21754 35.2515,11.21754 l 0.2882,-6.10671 c 0,0 -11.851,-12.23052 -30.429,-12.16109 z m -101.61306,0.0259 c 3.9817,10.4745 -5.9232,38.57992 -5.9232,38.57992 0,0 5.1486,-7.32255 8.9635,-20.0762 3.8151,-12.75371 -3.0403,-18.50372 -3.0403,-18.50372 z m -26.576,1.33666 c -9.5117,3.73538 -21.2557,5.18945 -21.2557,5.18945 l 8.3083,16.45939 c 0.9421,-3.39301 2.3007,-6.83619 4.1674,-10.2216 2.4707,-4.48225 5.5006,-8.33764 8.78,-11.42724 z m 97.6816,16.17106 c -1.514,0.007 -3.0687,0.14181 -4.6914,0.41935 l 0.6815,6.15916 c 0,0 22.99916,10.45754 27.78166,10.45754 l 0.2097,-5.68743 c 0,0 -9.34506,-11.41316 -23.98146,-11.34862 z m -101.8489,0.81252 c -0.2173,-0.0112 -0.429,-0.006 -0.6552,0 -0.8352,0.0153 -1.7186,0.14906 -2.6472,0.44558 -3.7428,8.43147 -2.4899,16.38071 -2.4899,16.38071 0,0 1.6539,-7.04654 4.7963,-10.61472 3.1426,-3.56801 6.0805,-4.53418 6.0805,-4.53418 0.3921,0.29817 -1.8251,-1.50617 -5.0845,-1.67739 z m 167.13606,2.12296 5.766,5.34664 c 7.5169,-2.19721 -5.766,-5.34664 -5.766,-5.34664 z m -107.45766,9.9595 c -0.31,-0.008 -0.63,-0.0124 -0.9697,0 -10.88,0.40291 -13.7075,5.6612 -13.7075,5.6612 0,0 8.8717,-2.03119 13.7075,-0.4194 4.8354,1.6119 6.4473,4.42938 6.4473,4.42938 -0.3903,0.78076 4.1305,-9.40018 -5.4776,-9.67118 z m 38.9206,2.01811 c -5.7276,22.51241 -53.1784,50.7934 -53.1784,50.7934 0,0 16.3417,-3.355 36.7976,-17.24563 20.4559,-13.89062 16.3808,-33.54777 16.3808,-33.54777 z m 30.66476,4.19346 4.5604,5.00598 c 5.9223,-2.0497 -4.5604,-5.00598 -4.5604,-5.00598 z"
       style="color:#000000;fill:#000000;fill-opacity:1;stroke:#000000;stroke-width:7;stroke-opacity:1;marker:none;visibility:visible;display:inline;overflow:visible;filter:url(#filter4907)"
       transform="matrix(-1,0,0,1,1600,0)" />
    <path
       inkscape:connector-curvature="0"
       id="path4901"
       d="m 788.70459,362.83222 c -13.6189,0.24337 -26.2092,16.5118 -26.2092,16.5118 -20.75674,-17.13033 -20.62654,22.98545 -20.62654,22.98545 -19.3097,8.91176 -14.3103,40.51947 -14.3103,40.51947 l 6.0281,1.33666 c -4.8397,9.48039 -7.5744,20.18193 -7.5744,31.5035 0,3.34245 0.248,6.60951 0.7076,9.82842 -10.2132,1.73014 -29.868,6.26473 -26.4712,15.09651 l -1.8085,3.64309 c 0,0 -9.109,3.64409 -7.2861,9.56633 1.0931,3.55138 9.8584,10.67148 16.7214,15.8304 -2.5028,0.98804 -10.4215,4.56489 -8.4656,9.93322 2.3135,6.34582 31.7918,23.43108 31.7918,23.43108 l -14.4412,-21.96334 c 0,0 25.8992,-3.0513 35.0155,-11.34856 1.1537,0.94814 2.3247,1.87565 3.5382,2.75194 -5.0177,2.386 -8.322,5.53648 -6.762,9.59256 l -1.8346,3.64309 c 0,0 -9.109,3.64415 -7.2862,9.56638 1.8229,5.92218 25.05604,21.85849 25.05594,21.85849 l -11.40094,-20.49566 c 0,0 12.87994,-1.78282 21.77974,-6.39503 -0.9347,12.74074 9.3752,28.34653 26.4714,38.18686 16.5627,9.53332 34.5699,10.77833 45.2632,4.29831 -5.3155,-0.80286 -11.1455,-2.81472 -16.7738,-6.05438 -15.0093,-8.63905 -23.1301,-22.6973 -18.1368,-31.37242 4.9765,-8.64612 21.1227,-8.68367 36.0901,-0.13102 -4.5175,-5.84673 -10.7427,-11.30035 -18.2941,-15.64693 -0.2974,-0.17121 -0.5926,-0.332 -0.891,-0.49797 4.2659,-2.04403 8.2871,-4.50694 12.03,-7.31235 0.9051,4.15692 2.4848,8.46625 4.7962,12.65906 3.0529,5.53772 6.9308,10.11533 11.1127,13.47157 -6.0057,-10.97501 -5.79,-22.68763 0.5504,-26.18302 6.3617,-3.50712 16.4722,2.59599 22.5399,13.60253 2.2755,4.12745 3.6559,8.37195 4.1673,12.23977 3.3385,-5.28653 4.0336,-13.14576 1.9657,-21.4916 3.5035,-2.21649 21.2451,-13.64238 23.0641,-19.00169 2.0101,-5.92218 -8.0463,-9.56633 -8.0463,-9.56633 l -1.9919,-3.64309 c 1.8966,-4.47088 -2.7391,-7.84032 -9.2256,-10.30023 3.504,-2.67762 6.5005,-5.35153 7.0504,-6.97163 1.462,-4.31115 -5.8709,-6.9454 -5.8709,-6.9454 l -1.4415,-2.64715 c 2.7109,-6.38997 -12.8644,-9.68096 -21.0985,-10.95544 -4.8228,-34.2449 -34.7343,-60.64812 -70.7385,-60.64812 -17.2869,0 -33.1712,6.077 -45.55174,16.19729 2.3125,-6.57238 3.9315,-11.92521 3.9315,-11.92521 8.55934,1.88402 17.11454,-20.75767 17.11454,-20.75767 7.4185,1.63284 36.2474,-7.57447 36.2474,-7.57447 0,0 9.5165,9.85054 14.1267,2.48988 4.6111,-7.35898 14.1267,0.13104 14.1267,0.13104 -21.9876,-30.56318 -28.0176,-8.57041 -28.0176,-8.57041 l -6.1066,-4.92732 c -4.6406,-5.62986 -9.699,-7.63629 -14.6249,-7.54826 z m 0.2096,3.24994 c 9.4615,-0.29646 12.9212,8.67545 12.9212,8.67525 -4.3411,2.77604 -33.1022,2.04432 -33.1022,2.04432 8.6285,-7.8802 15.2252,-10.56427 20.181,-10.71957 z m -32.36824,13.26186 c 2.0705,-0.0645 3.53814,0.70765 3.53814,0.70765 l -10.48364,15.88277 c -2.5309,2.74628 -1.0852,5.86029 0.5243,7.96762 1.2577,1.0029 2.2533,1.93648 2.3063,2.43745 0,0 -1.1889,-0.97454 -2.3063,-2.43745 -2.3388,-1.86504 -5.6087,-3.95758 -5.6087,-3.95758 1.9749,-17.31682 8.0772,-20.47732 12.0299,-20.60046 z m -14.284,26.62854 c -4.6362,4.1103 -1.4153,27.65042 -1.4153,27.65071 l -10.3788,4.71766 c -1.4747,-20.84464 11.7941,-32.36837 11.7941,-32.36837 z m 55.19664,8.91117 c 34.2521,0 61.8535,27.2299 61.8537,60.80537 0,0.48483 -0.015,0.95934 -0.026,1.44145 -16.8113,24.85479 -61.5528,9.29869 -87.5388,-8.9635 -24.65944,-17.33015 -33.89264,1.4263 -36.16864,7.65307 0,-0.0442 0,-0.087 0,-0.13102 0,-33.57547 27.62764,-60.80537 61.88004,-60.80537 z m -7.496,39.26137 33.5216,25.58021 c 7.4719,-12.67933 -33.5216,-25.58021 -33.5216,-25.58021 z m 56.2713,2.0705 c -5.8108,-0.18595 -8.0464,24.00768 -8.0464,24.00768 l 9.9596,-23.09036 c -0.6791,-0.59427 -1.3121,-0.89804 -1.9132,-0.91732 z m 21.9632,11.45348 c 11.7465,-0.0471 19.2638,8.25589 19.2638,8.25589 l -0.1834,4.14106 c -3.8384,0 -22.304,-7.6269 -22.304,-7.6269 l -0.5505,-4.48179 c 1.3023,-0.20204 2.5589,-0.28343 3.7741,-0.28826 z m -105.6755,13.10456 c 4.4188,-0.10974 10.6672,4.19346 10.6672,4.19346 54.9039,21.89603 83.9742,0.76007 83.9742,0.76007 -8.0742,20.38474 -87.2013,16.61222 -92.0467,15.85657 -4.8455,-0.75565 -8.86874,-11.34137 -6.44734,-18.13678 0.6813,-1.91119 2.12354,-2.63035 3.85264,-2.67332 z m 127.665,0.7863 c 0,0 8.4219,2.15231 3.6692,3.64309 l -3.6692,-3.64309 z m -21.7013,1.46768 c 7.1264,3.23901 17.141,4.48178 17.141,4.48178 l -2.4375,3.98382 c -5.7547,-1.53652 -11.5289,-2.48791 -15.4634,-3.04028 0.3331,-1.78311 0.5667,-3.59812 0.7599,-5.42532 z m -141.94884,4.87496 c 1.5141,0.007 3.0687,0.14175 4.6915,0.41934 l -0.6815,6.13294 c 0,0 -22.9992,10.4837 -27.7818,10.4837 l -0.2359,-5.68742 c 0,0 9.3715,-11.41316 24.0077,-11.34856 z m 143.25954,3.17129 c 16.1432,-0.0646 26.4712,11.34856 26.4712,11.34856 l -0.262,5.68742 c -5.276,0 -30.6387,-10.45747 -30.6387,-10.45747 l -0.7601,-6.15916 c 1.7898,-0.2776 3.5195,-0.41269 5.1896,-0.41935 z m -15.4112,6.47366 c -9.0281,11.61484 -65.9679,29.37878 -67.3576,30.06199 -1.3897,0.68321 -10.4051,-3.4209 -10.4051,-8.2035 0,-4.7826 4.8488,-8.2035 4.8488,-8.2035 11.8048,6.14903 72.9139,-13.65499 72.9139,-13.65499 z m -122.02994,7.12894 c 0.967,2.09708 2.06,4.1252 3.2238,6.10671 -12.8677,2.49774 -28.0515,7.10035 -24.6105,14.65099 l -0.2359,0.39311 -5.9232,-10.64094 c 0,0 20.313,-2.81307 27.5458,-10.50987 z m 129.52584,1.38905 c 0.058,0.0856 0.096,0.17747 0.1573,0.2621 -0.081,-0.0312 -0.1554,-0.0744 -0.2359,-0.10485 0.026,-0.0525 0.052,-0.10456 0.079,-0.15725 z m -162.75904,0.91732 -4.5605,5.00598 c -5.9222,-2.0497 4.5605,-5.00598 4.5605,-5.00598 z m 200.91964,3.19752 c 0,0 11.5376,2.95628 5.006,5.00598 l -5.006,-5.00598 z m -155.73494,1.62498 c 1.9218,0.008 3.9159,0.14811 5.9757,0.44558 l -0.865,6.60468 c 0,0 -29.18,11.21754 -35.2515,11.21754 l -0.2882,-6.10671 c 0,0 11.851,-12.23052 30.429,-12.16109 z m 101.61304,0.0259 c -3.9817,10.4745 5.9232,38.57992 5.9232,38.57992 0,0 -5.1486,-7.32255 -8.9635,-20.0762 -3.8151,-12.75371 3.0403,-18.50372 3.0403,-18.50372 z m 26.576,1.33666 c 9.5117,3.73538 21.2557,5.18945 21.2557,5.18945 l -8.3083,16.45939 c -0.9421,-3.39301 -2.3007,-6.83619 -4.1674,-10.2216 -2.4707,-4.48225 -5.5006,-8.33764 -8.78,-11.42724 z m -97.6816,16.17106 c 1.514,0.007 3.0687,0.14181 4.6914,0.41935 l -0.6815,6.15916 c 0,0 -22.99914,10.45754 -27.78164,10.45754 l -0.2097,-5.68743 c 0,0 9.34504,-11.41316 23.98144,-11.34862 z m 101.8489,0.81252 c 0.2173,-0.0112 0.429,-0.006 0.6552,0 0.8352,0.0153 1.7186,0.14906 2.6472,0.44558 3.7428,8.43147 2.4899,16.38071 2.4899,16.38071 0,0 -1.6539,-7.04654 -4.7963,-10.61472 -3.1426,-3.56801 -6.0805,-4.53418 -6.0805,-4.53418 -0.3921,0.29817 1.8251,-1.50617 5.0845,-1.67739 z m -167.13604,2.12296 -5.766,5.34664 c -7.5169,-2.19721 5.766,-5.34664 5.766,-5.34664 z m 107.45764,9.9595 c 0.31,-0.008 0.63,-0.0124 0.9697,0 10.88,0.40291 13.7075,5.6612 13.7075,5.6612 0,0 -8.8717,-2.03119 -13.7075,-0.4194 -4.8354,1.6119 -6.4473,4.42938 -6.4473,4.42938 0.3903,0.78076 -4.1305,-9.40018 5.4776,-9.67118 z m -38.9206,2.01811 c 5.7276,22.51241 53.1784,50.7934 53.1784,50.7934 0,0 -16.3417,-3.355 -36.7976,-17.24563 -20.4559,-13.89062 -16.3808,-33.54777 -16.3808,-33.54777 z m -30.66474,4.19346 -4.5604,5.00598 c -5.9223,-2.0497 4.5604,-5.00598 4.5604,-5.00598 z"
       style="color:#000000;fill:url(#linearGradient7255);fill-opacity:1;stroke:none;stroke-width:7;marker:none;visibility:visible;display:inline;overflow:visible" />
  </g>
</svg>
