<?xml version="1.0" encoding="UTF-8" standalone="no"?>
<!-- Created with Inkscape (http://www.inkscape.org/) -->

<svg
   xmlns:dc="http://purl.org/dc/elements/1.1/"
   xmlns:cc="http://creativecommons.org/ns#"
   xmlns:rdf="http://www.w3.org/1999/02/22-rdf-syntax-ns#"
   xmlns:svg="http://www.w3.org/2000/svg"
   xmlns="http://www.w3.org/2000/svg"
   xmlns:sodipodi="http://sodipodi.sourceforge.net/DTD/sodipodi-0.dtd"
   xmlns:inkscape="http://www.inkscape.org/namespaces/inkscape"
   id="svg7384"
   version="1.1"
   inkscape:version="0.91+devel r"
   height="32"
   sodipodi:docname="memtest.svg"
   width="32"
   viewBox="0 0 32 32">
  <metadata
     id="metadata90">
    <rdf:RDF>
      <cc:Work
         rdf:about="">
        <dc:format>image/svg+xml</dc:format>
        <dc:type
           rdf:resource="http://purl.org/dc/dcmitype/StillImage" />
        <dc:title>Gnome Symbolic Icon Theme</dc:title>
      </cc:Work>
    </rdf:RDF>
  </metadata>
  <sodipodi:namedview
     inkscape:cy="13.913258"
     inkscape:current-layer="layer12"
     inkscape:window-width="1310"
     pagecolor="#ffffff"
     showborder="true"
     showguides="true"
     inkscape:snap-nodes="true"
     objecttolerance="10"
     showgrid="false"
     inkscape:object-nodes="true"
     inkscape:pageshadow="2"
     inkscape:guide-bbox="true"
     inkscape:window-x="58"
     inkscape:snap-bbox="true"
     bordercolor="#666666"
     id="namedview88"
     inkscape:window-maximized="0"
     inkscape:snap-global="true"
     inkscape:window-y="0"
     gridtolerance="10"
     inkscape:zoom="16"
     inkscape:window-height="1043"
     borderopacity="1"
     guidetolerance="10"
     inkscape:cx="13.81336"
     inkscape:bbox-paths="true"
     inkscape:snap-grids="true"
     inkscape:pageopacity="0"
     inkscape:snap-to-guides="true"
     inkscape:document-units="px"
     inkscape:checkerboard="true"
     inkscape:bbox-nodes="true"
     inkscape:snap-page="true"
     inkscape:locked="false"
     borderlayer="true"
     inkscape:showpageshadow="false">
    <inkscape:grid
       visible="true"
       spacingx="1px"
       type="xygrid"
       spacingy="1px"
       id="grid4866"
       empspacing="2"
       enabled="true"
       snapvisiblegridlinesonly="true" />
    <sodipodi:guide
       position="4.0000004,28"
       orientation="0,1"
       id="guide69"
       inkscape:locked="false" />
    <sodipodi:guide
       position="28.9375,4"
       orientation="0,1"
       id="guide71"
       inkscape:locked="false" />
    <sodipodi:guide
       position="28,2"
       orientation="1,0"
       id="guide73"
       inkscape:locked="false" />
    <sodipodi:guide
       position="4.0000004,28"
       orientation="1,0"
       id="guide75"
       inkscape:locked="false" />
  </sodipodi:namedview>
  <title
     id="title9167">Gnome Symbolic Icon Theme</title>
  <defs
     id="defs7386" />
  <g
     transform="translate(-61.000198,-671)"
     inkscape:groupmode="layer"
     id="layer9"
     inkscape:label="status"
     style="display:inline" />
  <g
     transform="translate(-61.000198,-671)"
     inkscape:groupmode="layer"
     id="layer10"
     inkscape:label="devices" />
  <g
     transform="translate(-61.000198,-671)"
     inkscape:groupmode="layer"
     id="layer11"
     inkscape:label="apps" />
  <g
     transform="translate(-61.000198,-671)"
     inkscape:groupmode="layer"
     id="layer12"
     inkscape:label="actions">
    <g
       id="g308"
       transform="matrix(2.0777562,0,0,2.1041207,-70.054368,-771.78034)">
      <path
         style="color:#000000;display:inline;overflow:visible;visibility:visible;fill:#bebebe;fill-opacity:1;fill-rule:nonzero;stroke:none;stroke-width:0.77166939;marker:none;enable-background:accumulate"
         id="path42961"
         d="m 73.078612,687.59381 c -0.185156,0.33587 -0.360851,0.77612 -0.554637,1.10927 -0.07244,-0.005 -0.143306,-0.0242 -0.217032,-0.0242 -0.256392,0 -0.50937,0.0376 -0.747555,0.0965 -0.235379,-0.29539 -0.486416,-0.69306 -0.72344,-0.9887 -0.219614,0.0811 -0.426169,0.17477 -0.626982,0.28937 0.07403,0.37243 0.213672,0.8265 0.289376,1.20574 -0.264685,0.19201 -0.483207,0.41053 -0.67521,0.67521 -0.37924,-0.0757 -0.833312,-0.21535 -1.205734,-0.28938 -0.114609,0.20081 -0.208322,0.40737 -0.289376,0.62698 0.295641,0.23703 0.693303,0.48807 0.988702,0.72344 -0.05892,0.23819 -0.09646,0.49117 -0.09646,0.74756 0,0.0737 0.01903,0.14459 0.02411,0.21703 -0.333156,0.19379 -0.773405,0.36948 -1.109274,0.55464 0.03954,0.21202 0.09901,0.4273 0.168802,0.62698 0.379198,-0.008 0.848446,-0.073 1.229849,-0.0723 0.144398,0.30231 0.324511,0.5817 0.554637,0.8199 -0.13276,0.36101 -0.345803,0.77831 -0.482293,1.13339 0.164286,0.13559 0.346863,0.25174 0.530522,0.36172 0.284905,-0.24702 0.59837,-0.59532 0.892243,-0.84401 0.291726,0.13316 0.608555,0.20472 0.940472,0.24115 0.126972,0.3679 0.234807,0.83963 0.36172,1.20573 0.232689,-0.002 0.452817,-0.0109 0.675211,-0.0482 0.06216,-0.38036 0.08517,-0.86315 0.144688,-1.25396 0.316452,-0.0902 0.626088,-0.20602 0.892243,-0.38584 0.327443,0.20408 0.693629,0.4853 1.012816,0.67521 0.172651,-0.14713 0.335159,-0.30964 0.482293,-0.48229 -0.189914,-0.31919 -0.471136,-0.68537 -0.675211,-1.01282 0.179812,-0.26615 0.295675,-0.57578 0.385835,-0.89224 0.390811,-0.0595 0.873596,-0.0825 1.253963,-0.14469 0.03731,-0.22239 0.04693,-0.44252 0.04823,-0.67521 -0.366097,-0.12691 -0.837831,-0.23475 -1.205733,-0.36172 -0.03643,-0.33192 -0.107991,-0.64874 -0.241147,-0.94047 0.248694,-0.29387 0.596994,-0.60733 0.844014,-0.89224 -0.10998,-0.18366 -0.226139,-0.36624 -0.36172,-0.53053 -0.355083,0.1365 -0.772383,0.34954 -1.13339,0.4823 -0.238206,-0.23013 -0.517586,-0.41024 -0.819899,-0.55464 -6.84e-4,-0.3814 0.06479,-0.85065 0.07234,-1.22985 -0.199678,-0.0698 -0.414955,-0.12926 -0.626981,-0.1688 z m -0.771669,2.6285 c 0.852362,0 1.543338,0.69097 1.543338,1.54334 0,0.85236 -0.690976,1.54334 -1.543338,1.54334 -0.852363,0 -1.543339,-0.69098 -1.543339,-1.54334 0,-0.85237 0.690976,-1.54334 1.543339,-1.54334 z"
         inkscape:connector-curvature="0" />
      <path
         style="color:#000000;display:inline;overflow:visible;visibility:visible;fill:#bebebe;fill-opacity:1;fill-rule:nonzero;stroke:none;stroke-width:0.77166939;marker:none;enable-background:accumulate"
         id="path42972"
         d="m 67.146403,693.38133 c -0.177591,0.0364 -0.34255,0.10106 -0.506408,0.1688 -0.01289,0.48178 0.06708,1.11257 -0.120573,1.27808 -0.184402,0.16265 -0.801269,0.0265 -1.278078,-0.0242 -0.101388,0.18249 -0.181542,0.37443 -0.241146,0.57875 0.368929,0.30547 0.880095,0.64744 0.892242,0.89224 0.0123,0.24785 -0.483387,0.62111 -0.819898,0.96459 0.07978,0.19896 0.193028,0.38085 0.31349,0.55464 0.469425,-0.0975 1.054403,-0.28825 1.253963,-0.14469 0.203187,0.14617 0.204656,0.7758 0.265262,1.25396 0.192568,0.0579 0.395487,0.0806 0.602866,0.0965 0.217111,-0.42798 0.437856,-1.01845 0.675211,-1.08516 0.243656,-0.0684 0.743538,0.35352 1.157504,0.60287 0.168772,-0.11699 0.318646,-0.2601 0.458179,-0.40995 -0.195879,-0.44164 -0.556439,-0.99694 -0.458179,-1.22985 0.09835,-0.23313 0.75269,-0.3624 1.205734,-0.53052 0.0034,-0.0567 0.02411,-0.11123 0.02411,-0.16881 0,-0.14767 -0.02654,-0.29245 -0.04823,-0.43406 -0.467707,-0.1241 -1.132199,-0.1862 -1.253963,-0.40995 -0.120948,-0.22225 0.186579,-0.81905 0.337606,-1.27808 -0.15523,-0.1378 -0.323646,-0.26017 -0.506409,-0.36172 -0.386523,0.28948 -0.836743,0.76732 -1.08516,0.72344 -0.244532,-0.0432 -0.51153,-0.63242 -0.771669,-1.03693 -0.03101,0.005 -0.0658,-0.006 -0.09646,0 z m 0.482294,1.44688 c 0.719181,0 1.302192,0.58301 1.302192,1.30219 0,0.71918 -0.583011,1.3022 -1.302192,1.3022 -0.719182,0 -1.302192,-0.58302 -1.302192,-1.3022 0,-0.71918 0.58301,-1.30219 1.302192,-1.30219 z"
         inkscape:connector-curvature="0" />
    </g>
    <rect
       style="fill:#0000ff"
       id="rect30-3"
       width="2"
       height="2"
       x="59.000198"
       y="669" />
    <rect
       style="fill:#0000ff"
       id="rect30-3-3"
       width="2"
       height="2"
       x="57.000198"
       y="667" />
    <rect
       style="fill:#0000ff"
       id="rect30-3-36"
       width="2"
       height="2"
       x="95.000198"
       y="705" />
    <rect
       style="fill:#0000ff"
       id="rect30-3-3-7"
       width="2"
       height="2"
       x="93.000198"
       y="703" />
  </g>
  <g
     transform="translate(-61.000198,-671)"
     inkscape:groupmode="layer"
     id="layer13"
     inkscape:label="places" />
  <g
     transform="translate(-61.000198,-671)"
     inkscape:groupmode="layer"
     id="layer14"
     inkscape:label="mimetypes" />
  <g
     transform="translate(-61.000198,-671)"
     inkscape:groupmode="layer"
     id="layer15"
     inkscape:label="emblems"
     style="display:inline" />
  <g
     transform="translate(-61.000198,-671)"
     inkscape:groupmode="layer"
     id="g4953"
     inkscape:label="categories"
     style="display:inline" />
</svg>
