<?xml version="1.0" encoding="UTF-8" standalone="no"?>
<!-- Created with Inkscape (http://www.inkscape.org/) -->

<svg
   xmlns:dc="http://purl.org/dc/elements/1.1/"
   xmlns:cc="http://creativecommons.org/ns#"
   xmlns:rdf="http://www.w3.org/1999/02/22-rdf-syntax-ns#"
   xmlns:svg="http://www.w3.org/2000/svg"
   xmlns="http://www.w3.org/2000/svg"
   xmlns:sodipodi="http://sodipodi.sourceforge.net/DTD/sodipodi-0.dtd"
   xmlns:inkscape="http://www.inkscape.org/namespaces/inkscape"
   sodipodi:docname="find.none.svg"
   inkscape:export-filename="/home/sam/dev/RESOURCES/gnome-icon-theme-symbolic/src/gnome-stencils.png"
   inkscape:export-xdpi="90"
   inkscape:export-ydpi="90"
   height="32"
   id="svg7384"
   version="1.1"
   inkscape:version="0.91+devel r"
   width="32"
   viewBox="0 0 32 32">
  <metadata
     id="metadata90">
    <rdf:RDF>
      <cc:Work
         rdf:about="">
        <dc:format>image/svg+xml</dc:format>
        <dc:type
           rdf:resource="http://purl.org/dc/dcmitype/StillImage" />
        <dc:title>Gnome Symbolic Icon Theme</dc:title>
      </cc:Work>
    </rdf:RDF>
  </metadata>
  <sodipodi:namedview
     inkscape:bbox-nodes="true"
     inkscape:bbox-paths="true"
     bordercolor="#666666"
     borderopacity="1"
     inkscape:current-layer="layer9"
     inkscape:cx="10.536092"
     inkscape:cy="16.109363"
     gridtolerance="10"
     inkscape:guide-bbox="true"
     guidetolerance="10"
     id="namedview88"
     inkscape:object-nodes="false"
     inkscape:object-paths="false"
     objecttolerance="10"
     pagecolor="#ffffff"
     inkscape:pageopacity="0"
     inkscape:pageshadow="2"
     showborder="true"
     showgrid="false"
     showguides="true"
     inkscape:snap-bbox="true"
     inkscape:snap-bbox-midpoints="false"
     inkscape:snap-global="true"
     inkscape:snap-grids="true"
     inkscape:snap-nodes="true"
     inkscape:snap-others="false"
     inkscape:snap-to-guides="true"
     inkscape:window-height="1136"
     inkscape:window-maximized="1"
     inkscape:window-width="1920"
     inkscape:window-x="0"
     inkscape:window-y="0"
     inkscape:zoom="22.627417"
     inkscape:document-units="px"
     inkscape:checkerboard="true"
     inkscape:snap-page="true"
     inkscape:locked="false"
     borderlayer="true"
     inkscape:showpageshadow="false">
    <inkscape:grid
       empspacing="2"
       enabled="true"
       id="grid4866"
       originx="18px"
       originy="-20px"
       snapvisiblegridlinesonly="true"
       spacingx="1px"
       spacingy="1px"
       type="xygrid"
       visible="false"
       color="#3f3fff"
       opacity="1"
       empcolor="#3f3f94"
       empopacity="1" />
    <sodipodi:guide
       position="3.9999984,28"
       orientation="1,0"
       id="guide70"
       inkscape:locked="false" />
    <sodipodi:guide
       position="3.9999984,28"
       orientation="0,1"
       id="guide72"
       inkscape:locked="false" />
    <sodipodi:guide
       position="27.999998,2.5632621"
       orientation="1,0"
       id="guide74"
       inkscape:locked="false" />
    <sodipodi:guide
       position="29.212349,4"
       orientation="0,1"
       id="guide76"
       inkscape:locked="false" />
  </sodipodi:namedview>
  <title
     id="title9167">Gnome Symbolic Icon Theme</title>
  <defs
     id="defs7386" />
  <g
     inkscape:groupmode="layer"
     id="layer9"
     inkscape:label="status"
     style="display:inline"
     transform="translate(-223.0002,-181)">
    <g
       id="g312"
       transform="matrix(1.0477343,0,0,1.0477343,-11.224279,-8.8308455)">
      <path
         style="fill:#bebebe;fill-opacity:1;stroke:none;stroke-width:1.52710414"
         id="rect3773-4"
         d="m 232.66947,185 c -2.53805,0 -4.58132,2.04327 -4.58132,4.58132 v 9.16262 c 0,2.53805 2.04327,4.58131 4.58132,4.58131 h 12.21683 c 2.53805,0 4.58133,-2.04326 4.58133,-4.58131 v -9.16262 c 0,-2.53805 -2.04328,-4.58132 -4.58133,-4.58132 z m 3.05422,4.58132 c 0.85262,0 1.57481,0.72219 1.57481,1.57482 v 1.4794 c 0,0.85262 -0.72219,1.52708 -1.57481,1.52708 -0.85264,0 -1.52712,-0.67446 -1.52712,-1.52708 v -1.4794 c 0,-0.85263 0.67448,-1.57482 1.52712,-1.57482 z m 6.1084,0 c 0.85263,0 1.52712,0.72219 1.52712,1.57482 v 1.4794 c 0,0.85262 -0.67449,1.52708 -1.52712,1.52708 -0.85262,0 -1.52708,-0.67446 -1.52708,-1.52708 v -1.4794 c 0,-0.85263 0.67446,-1.57482 1.52708,-1.57482 z m -3.0542,6.15614 c 4.97201,0 7.63552,1.33429 7.63552,2.14748 v 0.76356 c -1.52185,-0.97262 -6.13358,-1.38395 -7.63552,-1.38395 -1.50194,0 -5.80998,-0.0949 -7.63553,1.38395 v -0.76356 c 0,-1.03991 2.66352,-2.14748 7.63553,-2.14748 z"
         inkscape:connector-curvature="0" />
      <path
         style="fill:#bebebe;fill-opacity:1;stroke:none;stroke-width:1.52710414"
         sodipodi:nodetypes="sscccs"
         id="rect3778-3"
         d="m 238.77789,204.85236 c -7.63553,0 -7.63553,1.52709 -7.63553,1.52709 0,1.52712 1.52711,1.52712 1.52711,1.52712 h 12.21683 c 1.52711,0 1.52711,-1.52712 1.52711,-1.52712 0,0 0,-1.52709 -7.63552,-1.52709 z"
         inkscape:connector-curvature="0" />
    </g>
    <rect
       style="fill:#0000ff"
       id="rect30-3"
       width="2"
       height="2"
       x="219.0002"
       y="177" />
    <rect
       style="fill:#0000ff"
       id="rect30-3-3"
       width="2"
       height="2"
       x="221.0002"
       y="179" />
    <rect
       style="display:inline;fill:#0000ff"
       id="rect30-3-36"
       width="2"
       height="2"
       x="255.0002"
       y="213" />
    <rect
       style="display:inline;fill:#0000ff"
       id="rect30-3-3-7"
       width="2"
       height="2"
       x="257.00021"
       y="215" />
  </g>
  <g
     inkscape:groupmode="layer"
     id="layer10"
     inkscape:label="devices"
     style="display:inline"
     transform="translate(-223.0002,-181)" />
  <g
     inkscape:groupmode="layer"
     id="layer11"
     inkscape:label="apps"
     transform="translate(-223.0002,-181)" />
  <g
     inkscape:groupmode="layer"
     id="layer13"
     inkscape:label="places"
     style="display:inline"
     transform="translate(-223.0002,-181)" />
  <g
     inkscape:groupmode="layer"
     id="layer14"
     inkscape:label="mimetypes"
     transform="translate(-223.0002,-181)" />
  <g
     inkscape:groupmode="layer"
     id="layer15"
     inkscape:label="emblems"
     style="display:inline"
     transform="translate(-223.0002,-181)" />
  <g
     inkscape:groupmode="layer"
     id="g71291"
     inkscape:label="emotes"
     style="display:inline"
     transform="translate(-223.0002,-181)" />
  <g
     inkscape:groupmode="layer"
     id="g4953"
     inkscape:label="categories"
     style="display:inline"
     transform="translate(-223.0002,-181)" />
  <g
     inkscape:groupmode="layer"
     id="layer12"
     inkscape:label="actions"
     style="display:inline"
     transform="translate(-223.0002,-181)" />
</svg>
