<?xml version="1.0" encoding="UTF-8" standalone="no"?>
<!-- Created with Inkscape (http://www.inkscape.org/) -->

<svg
   xmlns:osb="http://www.openswatchbook.org/uri/2009/osb"
   xmlns:dc="http://purl.org/dc/elements/1.1/"
   xmlns:cc="http://creativecommons.org/ns#"
   xmlns:rdf="http://www.w3.org/1999/02/22-rdf-syntax-ns#"
   xmlns:svg="http://www.w3.org/2000/svg"
   xmlns="http://www.w3.org/2000/svg"
   xmlns:sodipodi="http://sodipodi.sourceforge.net/DTD/sodipodi-0.dtd"
   xmlns:inkscape="http://www.inkscape.org/namespaces/inkscape"
   width="32"
   height="32"
   id="svg3616"
   version="1.1"
   inkscape:version="0.91+devel r"
   sodipodi:docname="siduction.amd64.svg"
   inkscape:export-filename="/media/celtux/fullstory.github/roen/mine/aptosid.amd64.png"
   inkscape:export-xdpi="163.12"
   inkscape:export-ydpi="163.12"
   viewBox="0 0 32 32"
   style="enable-background:new">
  <defs
     id="defs3618">
    <linearGradient
       id="linearGradient5268"
       osb:paint="solid">
      <stop
         style="stop-color:#000000;stop-opacity:1;"
         offset="0"
         id="stop5270" />
    </linearGradient>
    <linearGradient
       id="linearGradient5335"
       osb:paint="solid">
      <stop
         style="stop-color:#000000;stop-opacity:1;"
         offset="0"
         id="stop5337" />
    </linearGradient>
    <linearGradient
       id="linearGradient5329"
       osb:paint="solid">
      <stop
         style="stop-color:#000000;stop-opacity:1;"
         offset="0"
         id="stop5331" />
    </linearGradient>
  </defs>
  <sodipodi:namedview
     id="base"
     pagecolor="#ffffff"
     bordercolor="#666666"
     borderopacity="1.0"
     inkscape:pageopacity="0"
     inkscape:pageshadow="2"
     inkscape:zoom="22.627416"
     inkscape:cx="10.639763"
     inkscape:cy="13.686601"
     inkscape:current-layer="layer7"
     showgrid="true"
     inkscape:grid-bbox="true"
     inkscape:document-units="px"
     inkscape:snap-grids="false"
     borderlayer="true"
     inkscape:window-width="1920"
     inkscape:window-height="1136"
     inkscape:window-x="0"
     inkscape:window-y="0"
     inkscape:window-maximized="1"
     inkscape:checkerboard="true"
     inkscape:snap-bbox="true"
     inkscape:bbox-paths="true"
     inkscape:bbox-nodes="true"
     inkscape:snap-page="true"
     showguides="true"
     inkscape:guide-bbox="true"
     inkscape:locked="false"
     inkscape:showpageshadow="false">
    <sodipodi:guide
       position="4,28"
       orientation="0,1"
       id="guide133"
       inkscape:locked="false" />
    <sodipodi:guide
       position="28,4"
       orientation="0,1"
       id="guide135"
       inkscape:locked="false" />
    <sodipodi:guide
       position="4,28"
       orientation="1,0"
       id="guide137"
       inkscape:locked="false" />
    <sodipodi:guide
       position="28,2"
       orientation="1,0"
       id="guide139"
       inkscape:locked="false" />
  </sodipodi:namedview>
  <metadata
     id="metadata3621">
    <rdf:RDF>
      <cc:Work
         rdf:about="">
        <dc:format>image/svg+xml</dc:format>
        <dc:type
           rdf:resource="http://purl.org/dc/dcmitype/StillImage" />
        <dc:title />
      </cc:Work>
    </rdf:RDF>
  </metadata>
  <g
     inkscape:groupmode="layer"
     id="layer6"
     inkscape:label="bg" />
  <g
     id="layer1"
     inkscape:label="Layer 1"
     inkscape:groupmode="layer"
     transform="translate(0,-16)"
     style="display:inline;opacity:1" />
  <ellipse
     style="fill:#ff0000;fill-opacity:1;fill-rule:evenodd;stroke:none"
     id="path5275"
     cx="19.295238"
     cy="26.761906"
     rx="0.47619048"
     ry="0.01904762" />
  <g
     inkscape:groupmode="layer"
     id="layer7"
     inkscape:label="fred">
    <rect
       style="fill:#0000ff;enable-background:new"
       id="rect30-3"
       width="2"
       height="2"
       x="-2"
       y="-1.9999998" />
    <rect
       style="fill:#0000ff;enable-background:new"
       id="rect30-3-36"
       width="2"
       height="2"
       x="-4"
       y="-4" />
    <rect
       style="fill:#0000ff;enable-background:new"
       id="rect30-3-7"
       width="2"
       height="2"
       x="34"
       y="34" />
    <rect
       style="fill:#0000ff;enable-background:new"
       id="rect30-3-36-5"
       width="2"
       height="2"
       x="32"
       y="32" />
    <path
       style="fill:#bebebe;fill-opacity:1;fill-rule:evenodd;stroke:none;stroke-width:0.96301872;enable-background:new"
       d="M 15.563603,4.0000002 A 2.9294101,2.9038093 0 0 0 12.633501,6.902622 2.9294101,2.9038093 0 0 0 15.563603,9.8071159 2.9294101,2.9038093 0 0 0 18.493702,6.902622 2.9294101,2.9038093 0 0 0 15.563603,4.0000002 Z m 4.547228,4.3576777 a 3.100398,3.073303 0 0 0 -3.102015,3.0730341 3.100398,3.073303 0 0 0 3.102015,3.073033 3.100398,3.073303 0 0 0 3.100126,-3.073033 3.100398,3.073303 0 0 0 -3.100126,-3.0730341 z m -9.27204,0.664794 A 2.6088074,2.5860083 0 0 0 8.2298489,11.608615 2.6088074,2.5860083 0 0 0 10.838791,14.194757 2.6088074,2.5860083 0 0 0 13.447733,11.608615 2.6088074,2.5860083 0 0 0 10.838791,9.0224719 Z M 24.727959,12.78839 a 3.271386,3.2427966 0 0 0 -3.270151,3.241573 3.271386,3.2427966 0 0 0 3.270151,3.243444 A 3.271386,3.2427966 0 0 0 28,16.029963 3.271386,3.2427966 0 0 0 24.727959,12.78839 Z m -9.341939,0.44382 a 2.9294101,2.9038093 0 0 0 -2.930101,2.904494 2.9294101,2.9038093 0 0 0 2.930101,2.902622 2.9294101,2.9038093 0 0 0 2.928212,-2.902622 2.9294101,2.9038093 0 0 0 -2.928212,-2.904494 z m -8.9263225,0.299625 a 2.4591929,2.4377014 0 0 0 -2.4596976,2.438202 2.4591929,2.4377014 0 0 0 2.4596976,2.436331 2.4591929,2.4377014 0 0 0 2.4596974,-2.436331 2.4591929,2.4377014 0 0 0 -2.4596974,-2.438202 z m 13.5434515,4.131086 a 3.100398,3.073303 0 0 0 -3.100126,3.073034 3.100398,3.073303 0 0 0 3.100126,3.073034 3.100398,3.073303 0 0 0 3.100126,-3.073034 3.100398,3.073303 0 0 0 -3.100126,-3.073034 z m -8.996223,0.249064 a 2.6088074,2.5860083 0 0 0 -2.6089411,2.586143 2.6088074,2.5860083 0 0 0 2.6089411,2.584269 2.6088074,2.5860083 0 0 0 2.608943,-2.584269 2.6088074,2.5860083 0 0 0 -2.608943,-2.586143 z m 4.617129,4.280899 A 2.9294101,2.9038093 0 0 0 12.695844,25.097377 2.9294101,2.9038093 0 0 0 15.624055,28 2.9294101,2.9038093 0 0 0 18.554156,25.097377 2.9294101,2.9038093 0 0 0 15.624055,22.192884 Z m 3.5932,4.106741 a 0.46059734,0.01826288 0 0 0 -0.383502,0.01873 0.46059734,0.01826288 0 0 0 0.460957,0.01873 0.46059734,0.01826288 0 0 0 0.459068,-0.01686 0.46059734,0.01826288 0 0 1 0.0019,-0.0019 0.46059734,0.01826288 0 0 0 -0.460958,-0.01873 0.46059734,0.01826288 0 0 0 -0.07746,0 z"
       id="path5275-7"
       inkscape:connector-curvature="0" />
  </g>
  <g
     inkscape:groupmode="layer"
     id="layer3"
     inkscape:label="text"
     style="display:inline;opacity:1" />
</svg>
