/* XPM */
static char *siduction_razor[] = {
/* columns rows colors chars-per-pixel */
"32 32 216 2 ",
"   c gray33",
".  c #555555",
"X  c gray34",
"o  c #5A5A5A",
"O  c gray36",
"+  c gray38",
"@  c gray39",
"#  c #646464",
"$  c #656565",
"%  c #676767",
"&  c #6A6A6A",
"*  c gray42",
"=  c #6C6C6C",
"-  c gray43",
";  c gray44",
":  c #717171",
">  c #727272",
",  c gray45",
"<  c #747474",
"1  c gray46",
"2  c #767676",
"3  c gray47",
"4  c gray48",
"5  c #7C7C7C",
"6  c #78808D",
"7  c #78818E",
"8  c #778190",
"9  c #7A8391",
"0  c #7F8796",
"q  c #7F8894",
"w  c #7F8896",
"e  c #808080",
"r  c #818181",
"t  c #838383",
"y  c #868686",
"u  c #898989",
"i  c #8B8B8B",
"p  c #8D8D8D",
"a  c gray56",
"s  c #828A96",
"d  c #858B96",
"f  c #88909A",
"g  c #909090",
"h  c #939393",
"j  c #959595",
"k  c gray59",
"l  c #979797",
"z  c #989898",
"x  c #9A9A9A",
"c  c #9B9B9B",
"v  c gray61",
"b  c #9D9D9D",
"n  c gray62",
"m  c #9F9F9F",
"M  c #8C93A0",
"N  c #9097A2",
"B  c #939AA5",
"V  c #959BA4",
"C  c #979CA5",
"Z  c #979EA9",
"A  c #9CA0A7",
"S  c #99A1AB",
"D  c #9DA2AA",
"F  c #9FA4AD",
"G  c #9FA5AD",
"H  c #9FA5AE",
"J  c #9EAABB",
"K  c #A0A0A0",
"L  c #A2A2A2",
"P  c gray64",
"I  c #A4A4A4",
"U  c #A5A5A5",
"Y  c gray65",
"T  c #A7A7A7",
"R  c #A3A6A9",
"E  c #A0A4AB",
"W  c #A1A6AB",
"Q  c #A6A7A9",
"!  c #A2A7AE",
"~  c #A4A7AC",
"^  c #A5A8AD",
"/  c gray66",
"(  c #A9A9A9",
")  c #AAAAAA",
"_  c gray67",
"`  c #ACACAC",
"'  c #AEAEAE",
"]  c #AFAFAF",
"[  c #A7ACB2",
"{  c #ABAEB3",
"}  c #A8AEB7",
"|  c #A6ADB8",
" . c #AEB0B3",
".. c #ACB1B9",
"X. c #ACB2BB",
"o. c gray69",
"O. c #B1B1B1",
"+. c #B2B2B2",
"@. c #B0B3B7",
"#. c #B4B4B4",
"$. c gray71",
"%. c #B6B6B6",
"&. c #B7B7B7",
"*. c #B0B3B8",
"=. c #B4B7BB",
"-. c #B4B7BE",
";. c gray72",
":. c #B9B9B9",
">. c gray73",
",. c #BBBBBB",
"<. c #B8BABE",
"1. c #BABCBF",
"2. c #BCBCBC",
"3. c gray74",
"4. c gray",
"5. c gray75",
"6. c #B5B9C2",
"7. c #BABDC0",
"8. c #BCBFC1",
"9. c #BDBFC2",
"0. c #BDBFC3",
"q. c #BCBFC5",
"w. c #BFC1C4",
"e. c #C0C0C0",
"r. c #C1C1C1",
"t. c #C0C1C3",
"y. c gray76",
"u. c #C3C3C3",
"i. c #C0C3C6",
"p. c #C3C5C7",
"a. c gray77",
"s. c #C5C5C5",
"d. c #C6C6C6",
"f. c gray78",
"g. c #C5C7C9",
"h. c #C5C7CB",
"j. c #C6C9CD",
"k. c #C8C8C8",
"l. c gray79",
"z. c #C9CACA",
"x. c #CACACA",
"c. c #CBCBCB",
"v. c #C8CACE",
"b. c #CBCCCE",
"n. c gray80",
"m. c #CDCDCD",
"M. c #CECECE",
"N. c gray81",
"B. c #C9CCD0",
"V. c #CACDD1",
"C. c #CED1D4",
"Z. c #CFD1D4",
"A. c #D0D0D0",
"S. c gray82",
"D. c #D2D2D2",
"F. c LightGray",
"G. c #D0D1D4",
"H. c #D0D2D4",
"J. c gray83",
"K. c #D5D5D5",
"L. c gray84",
"P. c #D7D7D7",
"I. c #D1D4D8",
"U. c #D2D5D8",
"Y. c #D5D7DB",
"T. c #D4D7DC",
"R. c #D8D8D8",
"E. c gray85",
"W. c #DADADA",
"Q. c gray86",
"!. c #D9DBDD",
"~. c gainsboro",
"^. c #DDDDDD",
"/. c gray87",
"(. c #DFDFDF",
"). c #DBDDE2",
"_. c #DADDE3",
"`. c #DFE1E4",
"'. c gray88",
"]. c #E1E1E1",
"[. c #E2E2E2",
"{. c gray89",
"}. c #E4E4E4",
"|. c gray90",
" X c #E6E6E6",
".X c #E7E7E7",
"XX c gray91",
"oX c #E9E9E9",
"OX c #E8E9EB",
"+X c #EAEAEA",
"@X c gray92",
"#X c #E9EAEC",
"$X c #E9EBEC",
"%X c #ECECEC",
"&X c gray93",
"*X c #EEEEEE",
"=X c #EFEFEF",
"-X c #EDEEF0",
";X c #EFF0F1",
":X c gray94",
">X c #F1F1F1",
",X c gray95",
"<X c #F3F3F3",
"1X c #F4F4F4",
"2X c gray96",
"3X c #F6F6F6",
"4X c gray97",
"5X c #F8F8F8",
"6X c #F9F9F9",
"7X c gray98",
"8X c #FBFBFB",
"9X c gray99",
"0X c #FDFDFD",
"qX c #FEFEFE",
"wX c gray100",
"eX c None",
/* pixels */
"eXeXeXeXeXeXeXeXeXeXeXeXeXeXeXeXeXeXeXeXeXeXeXeXeXeXeXeXeXeXeXeX",
"eXeXeXeXeXeXeXeXeXeXeXeXeXeXeXeXeXeXy.x eXeXeX  eXeXeXeXeXeXeXeX",
"eXeXeXeXeXeXeXeXeXeXeXeXeXeXeXeXeX2.( ,.# eXU O.o eXeXeXeXeXeXeX",
"eXeXeXeXeXeXeXeXeXeXeXeXeXeXeXeXy.O.2.,.%.' %.%.O.+ eXeXeXeXeXeX",
"eXeXeXeXeXeXeXeXeXeXeXeXeXeXeX,.%.y.e.2.2.2.,.&.%.#.- eXeXeXeXeX",
"eXeXeXeXeXeXeXeXeXeXeXeXeXeX%.2.d.d.u.y.e.e.2.2.,.%.%.- eXeXeXeX",
"eXeXeXeXeXeXeXeXeXeXeXeXeX%.,.| J B d.a.y._ T 2.,.,.&.%.* eXeXeX",
"eXeXeXeXeXeXeXeXeXeXeXeXO.y.w.! B f k.g.d.5 eXh 2.2.,.,.,.* eXeX",
"eXeXeXeXeXeXeXeXeXeXeXO.y.1.A W 8.1.l.d.,.O.eXeXL e.2.2.2.,.eXeX",
"eXeXeXeXeXeXeXeXeXeX' d.0.! 6 [ l.D.m.x eXeXeX< < y.y.2.y.r eXeX",
"eXeXeXeXeXeXeXeXeX( l.0.V 6 V g.F.w.,.x eXeXeXl.f.d.d.y.v eXeXeX",
"eXeXeXeXeXeXeXeX( m.i.f d D d.P.P.' eXeXeXeXi l.l.l.d.d.y.k   eX",
"eXeXeXeXeXeXeXL J.G.! s H b.~.Q.Q.J.eXeX( D.D.m.m.m.l.l.d.d.k eX",
"eXeXeXeXeXeXL D.Z.-.9 H j.~.].~.Q.; X v 4 J.D.D.m.m.m.m.l.v * eX",
"eXeXeXeXeXv Q.j.q 0 H Z.}.}.#.- eXO J.~.Q.J.J.D.J.D.m.m.U + eXeX",
"eXeXeXeXv ~.U.Z 8 S Z.XXoX.XeXeXeXd.'.~.Q.Q.Q.Q.J.J.D.( # eXeXeX",
"eXeXeXv {.$X..s } !.%X%XoX.XeXeXeXJ.}.].(.~.~.~.Q.q.Q % eXeXeXeX",
"eXeXk oX8X-X6.X.`.<X.XoXoX> # %.m..X.X].].].~.~.b.W % eXeXeXeXeX",
"eXk oX0X0X0X$X$X1X1XU eXeX+ oX%XoXoX.X.X}.].].B.W - eXeXeXeXeXeX",
"eXoX0X0X0X0X0X0X5XoXJ.eXeXJ.<X%X%X%XoXoX.X.XB.^ * eXeXeXeXeXeXeX",
"eXO.J.0X0X0X0X0Xl.eXeXeXh h <X<X<X<X%X%XoXU.@.> eXeXeXeXeXeXeXeX",
"eXeXeX0X0X0X.XQ.D.eXeXv 5X5X1X1X<X<X%X<XT. .< eXeXeXeXeXeXeXeXeX",
"eXeXoX0X0X0X( eXeXeXeX( 0X0X5X5X1X1X1XT.*.< eXeXeXeXeXeXeXeXeXeX",
"eX2.0X0X0X0X0X< eXl.0X0X0X0X0X0X5X1X).*.5 eXeXeXeXeXeXeXeXeXeXeX",
"eXeXQ.0X0X0X0X5Xa eX0X0X0X0X0X0X0X-X<.4 eXeXeXeXeXeXeXeXeXeXeXeX",
"eXeXeXJ.0X0X0X0X0X0X0X0X0X0X0X0X).*.r eXeXeXeXeXeXeXeXeXeXeXeXeX",
"eXeXeXeXm.0X0X0X0X0X0X0X0X0X0X0Xw.5 eXeXeXeXeXeXeXeXeXeXeXeXeXeX",
"eXeXeXeXeXm.0X0X0X0X0X0X0X0X0Xm.y eXeXeXeXeXeXeXeXeXeXeXeXeXeXeX",
"eXeXeXeXeXeXJ.0X0X0X%X0X0X0XD.i eXeXeXeXeXeXeXeXeXeXeXeXeXeXeXeX",
"eXeXeXeXeXeXeXm.0X2.eX~.0XD.y eXeXeXeXeXeXeXeXeXeXeXeXeXeXeXeXeX",
"eXeXeXeXeXeXeXeXh eXeXU J.v eXeXeXeXeXeXeXeXeXeXeXeXeXeXeXeXeXeX",
"eXeXeXeXeXeXeXeXeXeXeXeXeXeXeXeXeXeXeXeXeXeXeXeXeXeXeXeXeXeXeXeX"
};
