<?xml version="1.0" encoding="UTF-8" standalone="no"?>
<!-- Created with Inkscape (http://www.inkscape.org/) -->

<svg
   xmlns:dc="http://purl.org/dc/elements/1.1/"
   xmlns:cc="http://creativecommons.org/ns#"
   xmlns:rdf="http://www.w3.org/1999/02/22-rdf-syntax-ns#"
   xmlns:svg="http://www.w3.org/2000/svg"
   xmlns="http://www.w3.org/2000/svg"
   xmlns:sodipodi="http://sodipodi.sourceforge.net/DTD/sodipodi-0.dtd"
   xmlns:inkscape="http://www.inkscape.org/namespaces/inkscape"
   id="svg2"
   version="1.1"
   inkscape:version="0.48+devel r"
   width="1600"
   height="1200"
   sodipodi:docname="kde-splash-ani-0.svg"
   inkscape:export-filename="/home/hhl/bastelecke/spielplatz/firestarter1png"
   inkscape:export-xdpi="90"
   inkscape:export-ydpi="90">
  <metadata
     id="metadata8">
    <rdf:RDF>
      <cc:Work
         rdf:about="">
        <dc:format>image/svg+xml</dc:format>
        <dc:type
           rdf:resource="http://purl.org/dc/dcmitype/StillImage" />
        <dc:title />
      </cc:Work>
    </rdf:RDF>
  </metadata>
  <defs
     id="defs6">
    <filter
       style="color-interpolation-filters:sRGB"
       y="-0.25"
       x="-0.25"
       height="1.5"
       width="1.5"
       inkscape:label="Drop shadow"
       id="filter8554-99-02-3-5-2">
      <feGaussianBlur
         result="blur"
         stdDeviation="1"
         in="SourceAlpha"
         id="feGaussianBlur8556-3-0-6-6-6" />
      <feColorMatrix
         values="-1 0 0 0 1 0 -1 0 0 1 0 0 -1 0 1 0 0 0 0.5 0 "
         type="matrix"
         result="bluralpha"
         id="feColorMatrix8558-6-1-1-4-1" />
      <feOffset
         result="offsetBlur"
         dy="-1"
         dx="1"
         in="bluralpha"
         id="feOffset8560-0-9-0-5-6" />
      <feMerge
         id="feMerge8562-5-62-6-3-7">
        <feMergeNode
           in="offsetBlur"
           id="feMergeNode8564-0-1-3-3-8" />
        <feMergeNode
           in="SourceGraphic"
           id="feMergeNode8566-2-20-2-0-4" />
      </feMerge>
    </filter>
    <linearGradient
       id="linearGradient6147-1-1-4-4-7-0-3-0">
      <stop
         id="stop6149-6-3-9-3-3-6-8-8"
         offset="0"
         style="stop-color:#5f8dd3;stop-opacity:1;" />
      <stop
         id="stop6151-5-0-9-5-1-1-9-2"
         offset="1"
         style="stop-color:#162d50;stop-opacity:1;" />
    </linearGradient>
    <linearGradient
       id="linearGradient6147-1-1-5-94-7-1-5-4-1">
      <stop
         id="stop6149-6-3-5-2-4-9-5-4-1"
         offset="0"
         style="stop-color:#5f8dd3;stop-opacity:1;" />
      <stop
         id="stop6151-5-0-3-06-3-0-4-3-6"
         offset="1"
         style="stop-color:#162d50;stop-opacity:1;" />
    </linearGradient>
    <linearGradient
       id="linearGradient6147-1-1-0-9-4-5-7-7-8">
      <stop
         id="stop6149-6-3-3-5-6-6-6-5-2"
         offset="0"
         style="stop-color:#5f8dd3;stop-opacity:1;" />
      <stop
         id="stop6151-5-0-36-6-9-7-5-3-2"
         offset="1"
         style="stop-color:#162d50;stop-opacity:1;" />
    </linearGradient>
    <linearGradient
       id="linearGradient6147-1-1-5-3-14-2-7-6-6-6">
      <stop
         id="stop6149-6-3-5-0-3-2-4-9-7-4"
         offset="0"
         style="stop-color:#5f8dd3;stop-opacity:1;" />
      <stop
         id="stop6151-5-0-3-0-7-6-0-3-6-4"
         offset="1"
         style="stop-color:#162d50;stop-opacity:1;" />
    </linearGradient>
    <linearGradient
       id="linearGradient6147-1-1-0-5-7-1-64-7-6-5">
      <stop
         id="stop6149-6-3-3-1-3-2-7-4-9-3"
         offset="0"
         style="stop-color:#5f8dd3;stop-opacity:1;" />
      <stop
         id="stop6151-5-0-36-1-39-8-4-5-8-0"
         offset="1"
         style="stop-color:#162d50;stop-opacity:1;" />
    </linearGradient>
    <linearGradient
       id="linearGradient6147-1-1-0-2-4-9-8-2-8-2">
      <stop
         id="stop6149-6-3-3-4-4-28-5-5-6-4"
         offset="0"
         style="stop-color:#5f8dd3;stop-opacity:1;" />
      <stop
         id="stop6151-5-0-36-9-49-8-8-4-7-7"
         offset="1"
         style="stop-color:#162d50;stop-opacity:1;" />
    </linearGradient>
    <linearGradient
       id="linearGradient6147-1-1-5-3-1-3-6-2-7-7-2">
      <stop
         id="stop6149-6-3-5-0-7-8-8-6-4-0-0"
         offset="0"
         style="stop-color:#5f8dd3;stop-opacity:1;" />
      <stop
         id="stop6151-5-0-3-0-2-32-3-0-4-9-4"
         offset="1"
         style="stop-color:#162d50;stop-opacity:1;" />
    </linearGradient>
    <linearGradient
       id="linearGradient6147-1-1-0-5-6-5-3-6-3-5-6">
      <stop
         id="stop6149-6-3-3-1-1-4-3-6-0-5-5"
         offset="0"
         style="stop-color:#5f8dd3;stop-opacity:1;" />
      <stop
         id="stop6151-5-0-36-1-5-3-3-4-7-3-7"
         offset="1"
         style="stop-color:#162d50;stop-opacity:1;" />
    </linearGradient>
    <linearGradient
       id="linearGradient6147-1-1-5-3-1-8-4-0-6-8-2-2">
      <stop
         id="stop6149-6-3-5-0-7-1-9-4-2-6-3-4"
         offset="0"
         style="stop-color:#5f8dd3;stop-opacity:1;" />
      <stop
         id="stop6151-5-0-3-0-2-3-5-7-8-8-8-1"
         offset="1"
         style="stop-color:#162d50;stop-opacity:1;" />
    </linearGradient>
    <filter
       style="color-interpolation-filters:sRGB"
       y="-0.25"
       x="-0.25"
       height="1.5"
       width="1.5"
       inkscape:label="Drop shadow"
       id="filter8554-99-02-3-5-2-9">
      <feGaussianBlur
         result="blur"
         stdDeviation="1"
         in="SourceAlpha"
         id="feGaussianBlur8556-3-0-6-6-6-3" />
      <feColorMatrix
         values="-1 0 0 0 1 0 -1 0 0 1 0 0 -1 0 1 0 0 0 0.5 0 "
         type="matrix"
         result="bluralpha"
         id="feColorMatrix8558-6-1-1-4-1-3" />
      <feOffset
         result="offsetBlur"
         dy="-1"
         dx="1"
         in="bluralpha"
         id="feOffset8560-0-9-0-5-6-1" />
      <feMerge
         id="feMerge8562-5-62-6-3-7-4">
        <feMergeNode
           in="offsetBlur"
           id="feMergeNode8564-0-1-3-3-8-0" />
        <feMergeNode
           in="SourceGraphic"
           id="feMergeNode8566-2-20-2-0-4-9" />
      </feMerge>
    </filter>
    <filter
       style="color-interpolation-filters:sRGB"
       y="-0.25"
       x="-0.25"
       height="1.5"
       width="1.5"
       inkscape:label="Drop shadow"
       id="filter3309">
      <feGaussianBlur
         result="blur"
         stdDeviation="1"
         in="SourceAlpha"
         id="feGaussianBlur3311" />
      <feColorMatrix
         values="-1 0 0 0 1 0 -1 0 0 1 0 0 -1 0 1 0 0 0 0.5 0 "
         type="matrix"
         result="bluralpha"
         id="feColorMatrix3313" />
      <feOffset
         result="offsetBlur"
         dy="-1"
         dx="1"
         in="bluralpha"
         id="feOffset3315" />
      <feMerge
         id="feMerge3317">
        <feMergeNode
           in="offsetBlur"
           id="feMergeNode3319" />
        <feMergeNode
           in="SourceGraphic"
           id="feMergeNode3321" />
      </feMerge>
    </filter>
  </defs>
  <sodipodi:namedview
     pagecolor="#ffffff"
     bordercolor="#eb1f1f"
     borderopacity="1"
     objecttolerance="10"
     gridtolerance="10"
     guidetolerance="10"
     inkscape:pageopacity="0"
     inkscape:pageshadow="2"
     inkscape:window-width="1920"
     inkscape:window-height="1147"
     id="namedview4"
     showgrid="false"
     borderlayer="true"
     inkscape:showpageshadow="false"
     showguides="true"
     inkscape:guide-bbox="true"
     inkscape:zoom="0.55285506"
     inkscape:cx="518.03828"
     inkscape:cy="568.24966"
     inkscape:window-x="-4"
     inkscape:window-y="-3"
     inkscape:window-maximized="1"
     inkscape:current-layer="svg2">
    <sodipodi:guide
       orientation="0,1"
       position="1.8087924,94.057202"
       id="guide2198" />
    <sodipodi:guide
       orientation="1,0"
       position="171.83527,94.057202"
       id="guide140" />
    <sodipodi:guide
       orientation="1,0"
       position="1.8087924,94.057202"
       id="guide142" />
    <sodipodi:guide
       orientation="0,1"
       position="1.8087924,0"
       id="guide146" />
  </sodipodi:namedview>
  <g
     id="g815"
     transform="matrix(1.3573755,0,0,1.3573755,-18.5358,79.716605)">
    <path
       style="fill:#ff6600"
       d="M 620.83334,410.41666 C 620.375,409.95834 620,408.83334 620,407.91666 c 0,-1.24074 2.39584,-1.66666 9.375,-1.66666 5.998,0 9.375,-0.49644 9.375,-1.37819 0,-0.9285 -3.3649,-1.2344 -10.3125,-0.9375 -9.89672,0.42293 -10.3286,0.32729 -10.71194,-2.37181 -0.23263,-1.63799 -1.27665,-2.81594 -2.5,-2.82074 -1.15531,-0.005 -3.78806,-1.12582 -5.85056,-2.49176 -2.10483,-1.39398 -5.86465,-2.48714 -8.57013,-2.49176 -3.4642,-0.006 -6.15479,-1.06534 -9.56478,-3.76609 -2.88805,-2.28738 -5.53037,-3.45636 -6.75252,-2.98739 -1.1043,0.42376 -4.04962,-0.19841 -6.54516,-1.38262 -3.50982,-1.66553 -6.12594,-1.95399 -11.55237,-1.27382 -9.89424,1.24018 -16.44472,1.097 -17.93369,-0.39197 -1.48788,-1.48788 -4.76195,0.0556 -10.03569,4.73115 -2.24674,1.99187 -4.96336,3.0625 -7.77084,3.0625 -5.38046,0 -6.78318,-1.27066 -3.80596,-3.44765 1.89066,-1.3825 2.13049,-2.62415 1.3857,-7.17459 -1.67754,-10.24946 -1.65417,-19.17499 0.0576,-21.98425 1.0458,-1.71635 3.17937,-2.87774 5.74087,-3.125 4.36941,-0.42179 6.8889,-4.76851 2.76396,-4.76851 -2.38482,0 -5.44101,-3.41689 -5.50221,-6.15158 -0.0219,-0.97711 -0.91017,-2.73838 -1.97404,-3.91392 -1.74878,-1.93239 -1.73395,-2.33769 0.15465,-4.22629 1.38889,-1.38889 3.1972,-1.8455 5.3961,-1.36254 2.01907,0.44347 4.27144,-0.002 5.78287,-1.1449 3.60046,-2.72145 5.3012,-2.38058 7.41811,1.48673 1.0349,1.89062 3.07201,4.83202 4.52691,6.53645 2.42105,2.83625 2.77556,2.92077 4.18223,0.99704 1.42328,-1.94645 1.72557,-1.91329 4.08735,0.44848 1.42803,1.42804 4.41205,2.63954 6.78073,2.75297 3.46453,0.16588 4.23034,-0.25002 4.23034,-2.29744 0,-1.77259 -0.96082,-2.61129 -3.30217,-2.88248 -2.57915,-0.29872 -3.16304,-0.91453 -2.66672,-2.8125 0.3495,-1.33651 1.6517,-2.43002 2.89378,-2.43002 1.24206,0 3.97321,-1.44301 6.06922,-3.20669 2.81984,-2.37274 4.35383,-2.90286 5.89845,-2.03845 1.14814,0.64253 3.10712,0.9016 4.35329,0.57573 1.64088,-0.4291 2.49116,0.30547 3.08298,2.66345 0.66951,2.66753 1.5471,3.25596 4.85603,3.25596 3.12475,0 4.37024,-0.72731 5.50304,-3.21354 1.3283,-2.9153 1.23965,-3.14226 -0.9553,-2.44561 -1.85604,0.58909 -2.51415,0.10025 -2.82604,-2.09898 -0.26438,-1.86433 -2.04576,-3.66783 -5.09406,-5.15732 -5.27542,-2.57773 -5.99277,-5.51583 -2.1875,-8.95955 1.375,-1.24436 2.5,-3.44635 2.5,-4.89331 0,-2.13729 0.76215,-2.62859 4.0625,-2.61878 3.55393,0.01 4.03854,-0.37912 3.8711,-3.11291 -0.25146,-4.10576 2.96364,-13.78496 5.51656,-16.6078 1.71485,-1.89618 1.78834,-2.87153 0.48737,-6.4693 -3.36005,-9.29206 2.32221,-14.75644 9.80451,-9.42856 4.27326,3.04282 8.08235,2.53811 6.98602,-0.92568 -0.57218,-1.80781 0.18218,-2.25394 4.28882,-2.53636 3.11876,-0.21448 4.98312,0.19474 4.98312,1.09375 0,0.92602 1.31863,1.17272 3.71094,0.69426 3.51047,-0.7021 3.67346,-0.55482 3.01725,2.72626 -0.46331,2.31657 -0.0353,4.01495 1.28906,5.114 1.09051,0.90505 1.98275,2.94972 1.98275,4.54372 0,3.85723 2.48236,5.22043 4.49475,2.46833 0.88853,-1.21512 3.07515,-2.9666 4.85918,-3.89216 2.89143,-1.5001 3.52037,-1.40616 5.79152,0.86499 2.49943,2.49942 2.43669,6.10455 -0.10625,6.10455 -2.46567,0 -1.26951,3.70529 1.85764,5.75426 2.46638,1.61604 2.83873,2.43318 1.72194,3.77883 -0.7837,0.9443 -2.34042,1.73562 -3.45935,1.7585 -4.18154,0.0855 3.7828,4.95841 8.10402,4.95841 4.24109,0 5.19004,0.96136 3.14635,3.1875 -1.65308,1.80067 -2.82845,11.56075 -1.49168,12.3869 0.93873,0.58017 5.08186,7.77314 5.08186,8.82272 0,0.14467 -2.10938,0.19888 -4.6875,0.1205 -4.45204,-0.13541 -4.70789,0.0711 -5.09349,4.11144 -0.27109,2.84059 0.45572,5.41953 2.1875,7.76189 1.42642,1.92932 2.59349,4.09315 2.59349,4.80849 0,1.67022 4.65586,1.70801 5.21111,0.0423 0.27038,-0.81113 1.86224,-0.71374 4.47916,0.27405 3.59358,1.35641 4.05973,2.07502 4.05973,6.25832 0,4.38655 -0.26155,4.72595 -3.6419,4.72595 -3.3625,0 -3.57136,0.26371 -2.7226,3.4375 1.14976,4.29931 5.01654,5.3321 5.99237,1.60053 0.44575,-1.70459 1.36533,-2.42438 2.52753,-1.97839 1.00477,0.38556 3.32147,1.02429 5.14822,1.41939 l 3.32138,0.71837 -2.87348,-2.33757 c -2.99314,-2.43489 -2.75075,-6.60984 0.3837,-6.60984 2.75295,0 6.75176,8.01265 5.29654,10.61299 -0.69158,1.23576 -1.21655,5.40026 -1.16663,9.25442 0.0601,4.64198 -0.73208,8.60918 -2.34676,11.75191 -1.47227,2.8656 -2.14335,5.9164 -1.69464,7.70418 1.04709,4.17195 -3.39403,8.49512 -7.63377,7.43102 -1.71706,-0.43096 -3.59734,-1.63307 -4.1784,-2.67136 -0.8898,-1.59 -1.36405,-1.44866 -3.00628,0.89595 -1.73041,2.4705 -2.6412,2.68866 -8.09406,1.9387 -4.98249,-0.68527 -7.13024,-0.33112 -11.35899,1.87303 -2.86811,1.49495 -5.53166,3.23085 -5.91898,3.85756 -1.53725,2.48731 -9.99355,4.8516 -17.35262,4.8516 C 625.16048,411.25 621.29166,410.875 620.83334,410.41666 Z M 617.5,387.64187 c 0,-0.60947 -1.54688,-1.37366 -3.4375,-1.69821 -1.89063,-0.32455 -4.49863,-1.04052 -5.79556,-1.59106 -1.74845,-0.7422 -2.20749,-0.54554 -1.77564,0.76071 0.4943,1.49513 2.24369,2.09824 10.0712,3.47214 C 617.07812,388.67595 617.5,388.25134 617.5,387.64187 z m -16.58854,-2.14708 c -0.41536,-0.41536 -1.4935,-0.45977 -2.39584,-0.0986 -0.99716,0.39903 -0.70097,0.69523 0.75522,0.7552 C 600.58854,386.20559 601.32682,385.91015 600.91146,385.49479 Z M 654.375,380 c 0,-2.1925 -5.3401,-3.2849 -7.16025,-1.46475 -1.99226,1.99226 0.22527,4.14229 3.8408,3.72389 C 653.00211,382.03387 654.375,381.09952 654.375,380 z m -59.60994,-3.1516 c -0.39111,-0.39113 -2.30434,-0.82639 -4.25161,-0.96726 -4.53263,-0.32792 -5.91783,3.67555 -1.52401,4.40468 C 591.85136,380.76075 596.13059,378.21393 594.76506,376.8484 Z M 613.75,365 c 0,-0.6875 -0.5957,-1.25 -1.32377,-1.25 -0.72808,0 -0.97613,0.5625 -0.55123,1.25 0.4249,0.6875 1.0206,1.25 1.32377,1.25 C 613.50195,366.25 613.75,365.6875 613.75,365 z m -76.25,-2.55996 c 0,-0.57338 -0.61151,-1.42043 -1.35891,-1.88235 -1.7356,-1.07267 -4.18255,1.30495 -3.11714,3.0288 C 533.91117,365.02206 537.5,364.10285 537.5,362.44004 z m 62.06951,-9.37865 c 2.29927,-1.75374 4.18049,-3.6961 4.18049,-4.31635 0,-2.49005 -8.35774,-5.16799 -12.66709,-4.05873 -5.79161,1.49083 -6.60868,6.75048 -1.46847,9.45287 C 594.48138,356.6979 594.8548,356.65748 599.56951,353.06139 Z M 665,351.78335 c 0,-1.16405 -0.85046,-1.80173 -2.08391,-1.5625 -3.13597,0.60819 -3.56657,3.52915 -0.52025,3.52915 C 663.93125,353.75 665,352.94289 665,351.78335 z m -83.75,-14.98213 c 0,-0.99067 -1.125,-1.80122 -2.5,-1.80122 -2.72841,0 -3.45919,3.1976 -0.9375,4.10215 C 579.92718,339.8607 581.25,338.97526 581.25,336.80123 z m 75,-9.22745 c 0,-0.64692 -0.5625,-1.52387 -1.25,-1.94877 -0.6875,-0.4249 -1.25,0.10437 -1.25,1.17623 0,1.07182 0.5625,1.94877 1.25,1.94877 C 655.6875,328.75 656.25,328.2207 656.25,327.57377 Z M 597.5,318.75 c 0,-0.6875 -0.84375,-1.25 -1.875,-1.25 -1.03125,0 -1.875,0.5625 -1.875,1.25 0,0.6875 0.84375,1.25 1.875,1.25 C 596.65625,320 597.5,319.4375 597.5,318.75 z m 16.09765,-3.62939 c 2.3814,-1.50836 0.61557,-3.87061 -2.89336,-3.87061 -3.04408,0 -6.26719,2.77042 -4.86012,4.17751 C 607.0096,316.59294 611.55734,316.41292 613.59765,315.12061 z m 47.71837,-3.24561 c -0.098,-1.85536 -2.89452,-1.5145 -3.54331,0.43187 -0.35047,1.0514 0.22097,1.51999 1.52435,1.25 C 660.44381,313.31935 661.35234,312.5625 661.31602,311.875 Z M 625,294.86626 c 0,-0.61394 -0.84375,-1.11626 -1.875,-1.11626 -1.03125,0 -1.875,0.8261 -1.875,1.83577 0,1.11824 0.73286,1.55454 1.875,1.11627 C 624.15625,296.3063 625,295.48021 625,294.86626 z m 1.31602,-12.99126 c -0.098,-1.85536 -2.89452,-1.5145 -3.54331,0.43187 -0.35047,1.0514 0.22096,1.51999 1.52435,1.25 C 625.44381,283.31935 626.35234,282.5625 626.31602,281.875 z m 74.63972,118.02305 c -3.22519,-3.22519 -4.50802,-3.72887 -7.88405,-3.09553 -3.83765,0.71996 -4.02308,0.57672 -3.8447,-2.96985 0.10362,-2.06139 1.44244,-4.89551 2.99639,-6.34323 2.95651,-2.75442 5.93077,-2.2471 4.75711,0.81141 -0.83205,2.16828 1.77926,6.69915 3.86096,6.69915 0.81955,0 1.83065,1.07304 2.2469,2.38453 0.41625,1.31148 1.57915,2.70008 2.58424,3.08576 1.00507,0.38568 1.82741,1.2814 1.82741,1.99048 C 707.5,404.82794 704.84652,403.78884 700.95574,399.89805 Z M 476.875,397.5 c 0.4249,-0.6875 1.0206,-1.25 1.32377,-1.25 0.30318,0 0.55123,0.5625 0.55123,1.25 0,0.6875 -0.5957,1.25 -1.32377,1.25 C 476.69815,398.75 476.4501,398.1875 476.875,397.5 z m 190.79899,-56.11876 c -2.99853,-2.2618 -3.31798,-6.37658 -0.56615,-7.29276 2.18112,-0.72619 5.81411,5.37951 4.54755,7.64274 C 670.74686,343.35467 670.22999,343.30924 667.67399,341.38124 Z M 533.75,327.57377 c 0,-2.02192 0.5625,-4.02387 1.25,-4.44877 2.05543,-1.27032 1.41984,-5.08383 -1.25,-7.5 -2.54377,-2.30209 -3.51411,-9.8507 -1.4317,-11.1377 0.58756,-0.36314 2.31709,0.66901 3.84338,2.29367 2.43151,2.58824 2.57007,3.28339 1.1192,5.61519 -1.41115,2.26795 -1.33259,3.2262 0.53162,6.48385 3.45434,6.03635 2.58584,12.36999 -1.69624,12.36999 C 534.33096,331.25 533.75,330.34741 533.75,327.57377 z m 12.08334,-3.40711 C 545.375,323.70834 545,322.75209 545,322.04166 c 0,-0.78325 0.58221,-0.70945 1.47916,0.1875 0.81355,0.81355 1.18855,1.7698 0.83334,2.125 C 546.95729,324.70937 546.29166,324.625 545.83334,324.16666 Z M 691.875,317.5 c 0.4249,-0.6875 1.0206,-1.25 1.32378,-1.25 0.30317,0 0.55122,0.5625 0.55122,1.25 0,0.6875 -0.5957,1.25 -1.32378,1.25 C 691.69815,318.75 691.4501,318.1875 691.875,317.5 z m -116.3014,-3.83316 c -1.34534,-2.1768 0.1869,-2.6378 1.90132,-0.57205 C 578.46086,314.28278 578.5557,315 577.72682,315 576.99572,315 576.02678,314.40008 575.5736,313.66684 z m -32.48744,-1.22968 c -1.08866,-1.76149 2.99195,-10.19094 4.48625,-9.26741 1.32956,0.82172 1.56321,5.62085 0.41885,8.60301 C 547.12916,314.01937 544.3008,314.40248 543.08616,312.43716 z m 43.39821,-13.76529 c 0.30079,-0.90235 1.28516,-1.88672 2.1875,-2.1875 0.9375,-0.3125 1.40625,0.15625 1.09375,1.09375 -0.30078,0.90234 -1.28516,1.88672 -2.1875,2.1875 C 586.64062,300.07812 586.17187,299.60937 586.48437,298.67187 Z M 661.25,293.31874 c 0,-1.6122 1.125,-3.94938 2.5,-5.19374 2.1921,-1.98383 2.5,-2.01493 2.5,-0.25255 0,2.73994 -2.65856,8.37755 -3.95065,8.37755 C 661.72221,296.25 661.25,294.93092 661.25,293.31874 Z M 593.125,282.5 c -0.4249,-0.6875 -0.17685,-1.25 0.55123,-1.25 0.72807,0 1.32377,0.5625 1.32377,1.25 0,0.6875 -0.24805,1.25 -0.55123,1.25 C 594.1456,283.75 593.5499,283.1875 593.125,282.5 z m 67.5,-2.5 c -0.4249,-0.6875 -2.42685,-1.25 -4.44878,-1.25 -2.43442,0 -3.67622,-0.63336 -3.67622,-1.875 0,-1.28787 1.29166,-1.875 4.125,-1.875 4.29319,0 7.125,1.8382 7.125,4.625 C 663.75,281.54446 661.72939,281.78694 660.625,280 z m -32.25769,-32.04935 c -0.9576,-0.9576 0.10472,-2.95065 1.57273,-2.95065 0.57337,0 1.36626,0.84375 1.762,1.875 C 632.4152,248.73349 629.94646,249.5298 628.36731,247.95065 Z"
       id="path817"
       inkscape:connector-curvature="0" />
  </g>
  <rect
     style="opacity:0.15400002;fill:#ff6600;fill-opacity:1;fill-rule:nonzero;stroke:none"
     id="rect144"
     width="171.83527"
     height="92.248413"
     x="-274.93643"
     y="1105.9427" />
  <rect
     y="-1.1626025"
     x="39.875565"
     height="20"
     width="20"
     id="rect12621-3-7-0-6"
     style="fill:#ff6600;fill-opacity:1"
     transform="matrix(0,-1,1,0,0,0)" />
  <rect
     style="fill:#6f7c91;fill-opacity:1"
     id="rect152"
     width="20"
     height="20"
     x="39.875565"
     y="18.837397"
     transform="matrix(0,-1,1,0,0,0)" />
  <rect
     y="58.837399"
     x="39.875565"
     height="20"
     width="20"
     id="rect156"
     style="fill:#162d50;fill-opacity:1"
     transform="matrix(0,-1,1,0,0,0)" />
  <rect
     style="fill:#000000;fill-opacity:1"
     id="rect158"
     width="20"
     height="20"
     x="39.875565"
     y="78.837395"
     transform="matrix(0,-1,1,0,0,0)" />
  <rect
     transform="matrix(0,-1,1,0,0,0)"
     y="38.837399"
     x="39.875565"
     height="20"
     width="20"
     id="rect157"
     style="fill:#566182;fill-opacity:1" />
</svg>
