<?xml version="1.0" encoding="UTF-8" standalone="no"?>
<!-- Created with Inkscape (http://www.inkscape.org/) -->

<svg
   xmlns:dc="http://purl.org/dc/elements/1.1/"
   xmlns:cc="http://creativecommons.org/ns#"
   xmlns:rdf="http://www.w3.org/1999/02/22-rdf-syntax-ns#"
   xmlns:svg="http://www.w3.org/2000/svg"
   xmlns="http://www.w3.org/2000/svg"
   xmlns:sodipodi="http://sodipodi.sourceforge.net/DTD/sodipodi-0.dtd"
   xmlns:inkscape="http://www.inkscape.org/namespaces/inkscape"
   width="1920"
   height="1200"
   id="svg2"
   version="1.1"
   inkscape:version="0.48.1 r9760"
   sodipodi:docname="background.svg"
   inkscape:export-filename="aptosid-ponos-wide.png"
   inkscape:export-xdpi="90"
   inkscape:export-ydpi="90"
   style="display:inline;enable-background:new">
  <defs
     id="defs4">
    <filter
       id="filter6636"
       inkscape:collect="always"
       color-interpolation-filters="sRGB">
      <feGaussianBlur
         id="feGaussianBlur6638"
         stdDeviation="2"
         inkscape:collect="always" />
    </filter>
  </defs>
  <sodipodi:namedview
     id="base"
     pagecolor="#1e72a0"
     bordercolor="#666666"
     borderopacity="1.0"
     inkscape:pageopacity="1"
     inkscape:pageshadow="2"
     inkscape:zoom="0.5"
     inkscape:cx="1177.383"
     inkscape:cy="655.1811"
     inkscape:document-units="px"
     inkscape:current-layer="layer6"
     showgrid="false"
     inkscape:window-width="1592"
     inkscape:window-height="1173"
     inkscape:window-x="231"
     inkscape:window-y="0"
     inkscape:window-maximized="0"
     borderlayer="true" />
  <metadata
     id="metadata7">
    <rdf:RDF>
      <cc:Work
         rdf:about="">
        <dc:format>image/svg+xml</dc:format>
        <dc:type
           rdf:resource="http://purl.org/dc/dcmitype/StillImage" />
        <dc:title />
      </cc:Work>
    </rdf:RDF>
  </metadata>
  <g
     inkscape:groupmode="layer"
     id="layer6"
     inkscape:label="fred"
     style="display:inline">
    <g
       transform="matrix(-1,0,0,1,2125.4286,477.09626)"
       id="layer1-7"
       inkscape:label="Layer 1">
      <g
         transform="translate(-422.36026,466.6479)"
         id="fred"
         style="display:inline">
        <path
           inkscape:connector-curvature="0"
           id="path4615"
           d="m 784.6481,-12.44218 c 13.09318,0.23398 25.19748,15.87438 25.19748,15.87438 19.95546,-16.46903 19.83035,22.09813 19.83035,22.09813 18.56422,8.56773 13.75784,38.95527 13.75784,38.95527 l -5.79544,1.28506 c 4.65288,9.11441 7.28205,19.40283 7.28205,30.28734 0,3.21342 -0.23844,6.35437 -0.6803,9.44902 9.81891,1.66334 28.71495,6.02288 25.44935,14.51372 l 1.73865,3.50245 c 0,0 8.75732,3.50342 7.00485,9.19703 -1.05093,3.41429 -9.4778,10.25952 -16.07592,15.21929 2.40619,0.9499 10.01921,4.38867 8.13879,9.54976 -2.22414,6.10085 -30.56454,22.52656 -30.56454,22.52656 l 13.8838,-21.11548 c 0,0 -24.89943,-2.9335 -33.66378,-10.91046 -1.10924,0.91154 -2.23507,1.80324 -3.40165,2.64571 4.824,2.29389 8.00075,5.32275 6.501,9.22224 l 1.76375,3.50246 c 0,0 8.75732,3.50347 7.00496,9.19709 -1.75253,5.69355 -24.08891,21.01467 -24.08874,21.01467 l 10.96083,-19.70445 c 0,0 -12.38274,-1.714 -20.93902,-6.14817 0.89867,12.2489 -9.01328,27.25225 -25.44952,36.71271 -15.92338,9.1653 -33.23541,10.36225 -43.51589,4.13238 5.11032,-0.77187 10.71526,-2.70606 16.12629,-5.82066 14.42992,-8.30555 22.23718,-21.8211 17.43669,-30.16133 -4.78446,-8.31235 -20.30735,-8.34844 -34.69692,-0.12596 4.34316,-5.62103 10.32791,-10.86411 17.58786,-15.0429 0.28598,-0.1646 0.5698,-0.31918 0.85663,-0.47874 -4.10121,-1.96513 -7.96716,-4.33297 -11.56555,-7.03007 -0.87017,3.99644 -2.38891,8.13942 -4.61112,12.17037 -2.93503,5.32394 -6.66317,9.72485 -10.6837,12.95152 5.77385,-10.55133 5.56646,-21.8118 -0.52912,-25.17226 -6.11609,-3.37173 -15.83635,2.49578 -21.6698,13.07743 -2.18765,3.96811 -3.51481,8.04875 -4.00642,11.76726 -3.20956,-5.08244 -3.8779,-12.63829 -1.88983,-20.66194 -3.36827,-2.13093 -20.42497,-13.11573 -22.17371,-18.26816 -1.93255,-5.69356 7.73564,-9.19703 7.73564,-9.19703 l 1.91504,-3.50245 c -1.82342,-4.29829 2.63335,-7.53766 8.86946,-9.9026 -3.36879,-2.57426 -6.24959,-5.14495 -6.7782,-6.7025 -1.40558,-4.14473 5.64426,-6.67729 5.64426,-6.67729 l 1.38586,-2.54496 c -2.60627,-6.14329 12.36778,-9.30724 20.28395,-10.53252 4.63662,-32.92291 33.39338,-58.30688 68.0078,-58.30688 16.61949,0 31.89063,5.84241 43.79326,15.57202 -2.22323,-6.31866 -3.7797,-11.46485 -3.7797,-11.46485 -8.229,1.81129 -16.45387,-19.95635 -16.45387,-19.95635 -7.13211,1.56981 -34.84815,-7.28207 -34.84815,-7.28207 0,0 -9.14915,9.47028 -13.58133,2.39377 -4.43309,-7.0749 -13.58139,0.12598 -13.58139,0.12598 21.13882,-29.38333 26.93601,-8.23956 26.93601,-8.23956 l 5.87091,-4.73711 c 4.46142,-5.41252 9.32453,-7.3415 14.06025,-7.25687 z m -76.70093,115.55541 c -6.8513,3.11397 -16.47919,4.30877 -16.47919,4.30877 l 2.34341,3.83002 c 5.53258,-1.4772 11.08385,-2.39186 14.86645,-2.9229 -0.3202,-1.71429 -0.54493,-3.45922 -0.73067,-5.21589 z m 130.87542,20.81312 c -0.92962,2.01613 -1.98043,3.96596 -3.0993,5.87097 12.3709,2.40132 26.96859,6.82625 23.66038,14.08541 l 0.22682,0.37794 5.69458,-10.23017 c 0,0 -19.52885,-2.70447 -26.48248,-10.10415 z m -124.52565,1.33543 c -0.0555,0.0823 -0.0928,0.17062 -0.15129,0.25198 0.0774,-0.03 0.14942,-0.0716 0.22682,-0.1008 -0.0249,-0.0504 -0.0504,-0.10052 -0.0758,-0.15118 z m -10.20501,6.82821 c -9.14445,3.59119 -20.43506,4.98912 -20.43506,4.98912 l 7.9875,15.824 c 0.90576,-3.26203 2.21195,-6.57229 4.00647,-9.82701 2.37543,-4.30922 5.2883,-8.01578 8.44109,-10.98611 z"
           style="color:#000000;fill:#ffffff;fill-opacity:1;stroke:#7d7d7d;stroke-width:2;stroke-linecap:square;stroke-linejoin:bevel;stroke-miterlimit:4;stroke-opacity:1;stroke-dasharray:none;marker:none;visibility:visible;display:inline;overflow:visible;filter:url(#filter6636)"
           sodipodi:nodetypes="sccccscccsccccccccccccsccsccccscscccccccccccsccccccccsccccccccccccccccccccc" />
        <path
           style="color:#000000;fill:#000000;fill-opacity:1;stroke:none;stroke-width:7;marker:none;visibility:visible;display:inline;overflow:visible"
           d="m 784.6481,-12.44218 c 13.09318,0.23398 25.19748,15.87438 25.19748,15.87438 19.95546,-16.46903 19.83035,22.09813 19.83035,22.09813 18.56422,8.56773 13.75784,38.95527 13.75784,38.95527 l -5.79544,1.28506 c 4.65288,9.11441 7.28205,19.40283 7.28205,30.28734 0,3.21342 -0.23844,6.35437 -0.6803,9.44902 9.81891,1.66334 28.71495,6.02288 25.44935,14.51372 l 1.73865,3.50245 c 0,0 8.75732,3.50342 7.00485,9.19703 -1.05093,3.41429 -9.4778,10.25952 -16.07592,15.21929 2.40619,0.9499 10.01921,4.38867 8.13879,9.54976 -2.22414,6.10085 -30.56454,22.52656 -30.56454,22.52656 l 13.8838,-21.11548 c 0,0 -24.89943,-2.9335 -33.66378,-10.91046 -1.10924,0.91154 -2.23507,1.80324 -3.40165,2.64571 4.824,2.29389 8.00075,5.32275 6.501,9.22224 l 1.76375,3.50246 c 0,0 8.75732,3.50347 7.00496,9.19709 -1.75253,5.69355 -24.08891,21.01467 -24.08874,21.01467 l 10.96083,-19.70445 c 0,0 -12.38274,-1.714 -20.93902,-6.14817 0.89867,12.2489 -9.01328,27.25225 -25.44952,36.71271 -15.92338,9.1653 -33.23541,10.36225 -43.51589,4.13238 5.11032,-0.77187 10.71526,-2.70606 16.12629,-5.82066 14.42992,-8.30555 22.23718,-21.8211 17.43669,-30.16133 -4.78446,-8.31235 -20.30735,-8.34844 -34.69692,-0.12596 4.34316,-5.62103 10.32791,-10.86411 17.58786,-15.0429 0.28598,-0.1646 0.5698,-0.31918 0.85663,-0.47874 -4.10121,-1.96513 -7.96716,-4.33297 -11.56555,-7.03007 -0.87017,3.99644 -2.38891,8.13942 -4.61112,12.17037 -2.93503,5.32394 -6.66317,9.72485 -10.6837,12.95152 5.77385,-10.55133 5.56646,-21.8118 -0.52912,-25.17226 -6.11609,-3.37173 -15.83635,2.49578 -21.6698,13.07743 -2.18765,3.96811 -3.51481,8.04875 -4.00642,11.76726 -3.20956,-5.08244 -3.8779,-12.63829 -1.88983,-20.66194 -3.36827,-2.13093 -20.42497,-13.11573 -22.17371,-18.26816 -1.93255,-5.69356 7.73564,-9.19703 7.73564,-9.19703 l 1.91504,-3.50245 c -1.82342,-4.29829 2.63335,-7.53766 8.86946,-9.9026 -3.36879,-2.57426 -6.24959,-5.14495 -6.7782,-6.7025 -1.40558,-4.14473 5.64426,-6.67729 5.64426,-6.67729 l 1.38586,-2.54496 c -2.60627,-6.14329 12.36778,-9.30724 20.28395,-10.53252 4.63662,-32.92291 33.39338,-58.30688 68.0078,-58.30688 16.61949,0 31.89063,5.84241 43.79326,15.57202 -2.22323,-6.31866 -3.7797,-11.46485 -3.7797,-11.46485 -8.229,1.81129 -16.45387,-19.95635 -16.45387,-19.95635 -7.13211,1.56981 -34.84815,-7.28207 -34.84815,-7.28207 0,0 -9.14915,9.47028 -13.58133,2.39377 -4.43309,-7.0749 -13.58139,0.12598 -13.58139,0.12598 21.13882,-29.38333 26.93601,-8.23956 26.93601,-8.23956 l 5.87091,-4.73711 c 4.46142,-5.41252 9.32453,-7.3415 14.06025,-7.25687 z m -0.20149,3.12448 c -9.09623,-0.28501 -12.42241,8.34055 -12.42241,8.34036 4.17358,2.66887 31.82428,1.9654 31.82428,1.9654 -8.29535,-7.576 -14.63736,-10.15646 -19.40187,-10.30576 z m 31.11876,12.7499 c -1.99057,-0.062 -3.40159,0.68033 -3.40159,0.68033 l 10.07898,15.26964 c 2.43323,2.64027 1.04328,5.63406 -0.50401,7.66004 -1.20919,0.96418 -2.1664,1.86173 -2.21734,2.34336 0,0 1.14301,-0.93692 2.21734,-2.34336 2.2485,-1.79304 5.39216,-3.8048 5.39216,-3.8048 C 825.23219,6.58908 819.36553,3.5506 815.56537,3.4322 z m 13.73262,25.60059 c 4.45717,3.95162 1.36065,26.583 1.36065,26.58329 l 9.97813,4.53553 C 842.05453,40.11165 829.29799,29.03279 829.29799,29.03279 z m -53.06588,8.56716 c -32.92994,0 -59.4658,26.17872 -59.46597,58.45805 0,0.46611 0.0147,0.92231 0.0249,1.38581 16.16233,23.89531 59.17664,8.93973 84.15948,-8.61748 23.70758,-16.66114 32.58435,1.37125 34.77245,7.35764 5e-5,-0.0425 0,-0.0836 0,-0.12597 0,-32.27933 -26.56113,-58.45805 -59.49124,-58.45805 z m 7.20658,37.74574 -32.22755,24.59271 c -7.1834,-12.18986 32.22755,-24.59271 32.22755,-24.59271 z m -54.09896,1.99057 c 5.5864,-0.17877 7.73569,23.08089 7.73569,23.08089 l -9.57509,-22.19899 c 0.65293,-0.57133 1.26149,-0.86337 1.8394,-0.8819 z m -21.11542,11.01132 c -11.293,-0.0453 -18.52014,7.93719 -18.52014,7.93719 l 0.17639,3.9812 c 3.69018,0 21.44299,-7.33248 21.44299,-7.33248 l 0.52917,-4.30877 c -1.25202,-0.19424 -2.46013,-0.27249 -3.62841,-0.27714 z m 101.59605,12.59869 c -4.24825,-0.10551 -10.25538,4.03157 -10.25538,4.03157 -52.78449,21.05077 -80.73251,0.73073 -80.73251,0.73073 7.76256,19.59781 83.83492,15.97092 88.49342,15.24445 4.65838,-0.72648 8.52642,-10.90356 6.19842,-17.43663 -0.65502,-1.83741 -2.04162,-2.52882 -3.70395,-2.57012 z m -122.73668,0.75594 c 0,0 -8.09675,2.06922 -3.52762,3.50245 l 3.52762,-3.50245 z m 20.86349,1.41102 c -6.8513,3.11397 -16.47919,4.30877 -16.47919,4.30877 l 2.34341,3.83002 c 5.53258,-1.4772 11.08385,-2.39186 14.86645,-2.9229 -0.3202,-1.71429 -0.54493,-3.45922 -0.73067,-5.21589 z M 844.41642,107.8 c -1.45568,0.007 -2.95028,0.13627 -4.51038,0.40316 l 0.6552,5.89618 c 0,0 22.11132,10.07899 26.70924,10.07899 l 0.22688,-5.46787 c 0,0 -9.00976,-10.97256 -23.08094,-10.91046 z m -137.72921,3.04887 c -15.52006,-0.0621 -25.44934,10.91046 -25.44934,10.91046 l 0.25192,5.46787 c 5.07225,0 29.45587,-10.05378 29.45587,-10.05378 l 0.73073,-5.9214 c -1.72069,-0.26688 -3.38358,-0.39675 -4.98918,-0.40315 z m 14.81613,6.22375 c 8.67964,11.16647 63.42139,28.24464 64.75745,28.90148 1.33605,0.65684 10.00334,-3.28883 10.00334,-7.88681 0,-4.59798 -4.66149,-7.88681 -4.66149,-7.88681 -11.34915,5.91165 -70.0993,-13.12786 -70.0993,-13.12786 z m 117.31925,6.85373 c -0.92962,2.01613 -1.98043,3.96596 -3.0993,5.87097 12.3709,2.40132 26.96859,6.82625 23.66038,14.08541 l 0.22682,0.37794 5.69458,-10.23017 c 0,0 -19.52885,-2.70447 -26.48248,-10.10415 z m -124.52565,1.33543 c -0.0555,0.0823 -0.0928,0.17062 -0.15129,0.25198 0.0774,-0.03 0.14942,-0.0716 0.22682,-0.1008 -0.0249,-0.0504 -0.0504,-0.10052 -0.0758,-0.15118 z m 156.47594,0.88191 4.38442,4.81273 c 5.69361,-1.97057 -4.38442,-4.81273 -4.38442,-4.81273 z m -193.16343,3.07408 c 0,0 -11.09224,2.84216 -4.81279,4.81273 l 4.81279,-4.81273 z m 149.72301,1.56226 c -1.84755,0.007 -3.76469,0.14239 -5.74494,0.42837 l 0.83152,6.34971 c 0,0 28.05363,10.78451 33.89066,10.78451 l 0.27708,-5.87097 c 0,0 -11.39351,-11.75837 -29.25432,-11.69162 z m -97.69038,0.0249 c 3.82793,10.07015 -5.69458,37.09059 -5.69458,37.09059 0,0 4.94974,-7.03987 8.61748,-19.30118 3.6678,-12.26137 -2.9229,-17.78941 -2.9229,-17.78941 z m -25.55015,1.28506 c -9.14445,3.59119 -20.43506,4.98912 -20.43506,4.98912 l 7.9875,15.824 c 0.90576,-3.26203 2.21195,-6.57229 4.00647,-9.82701 2.37543,-4.30922 5.2883,-8.01578 8.44109,-10.98611 z m 93.91079,15.5468 c -1.45561,0.007 -2.95027,0.13633 -4.51031,0.40316 l 0.65519,5.9214 c 0,0 22.11127,10.05383 26.70919,10.05383 l 0.20166,-5.46787 c 0,0 -8.98437,-10.97257 -23.05573,-10.91052 z m -97.91715,0.78116 c -0.20891,-0.0108 -0.41251,-0.006 -0.62992,0 -0.80297,0.0147 -1.65229,0.1433 -2.54502,0.42837 -3.59833,8.10598 -2.39373,15.74835 -2.39373,15.74835 0,0 1.58996,-6.77451 4.61112,-10.20495 3.02128,-3.43027 5.84576,-4.35914 5.84576,-4.35914 0.37698,0.28665 -1.75469,-1.44803 -4.88821,-1.61263 z m 160.68397,2.041 5.54339,5.14024 c 7.22675,-2.1124 -5.54339,-5.14024 -5.54339,-5.14024 z m -103.30943,9.57503 c -0.29799,-0.008 -0.60562,-0.0119 -0.93228,0 -10.45994,0.38735 -13.17829,5.44265 -13.17829,5.44265 0,0 8.52926,-1.95278 13.17829,-0.40321 4.64875,1.54968 6.19843,4.25839 6.19843,4.25839 -0.37517,0.75062 3.971,-9.03729 -5.26615,-9.29783 z m 37.4181,1.9402 c -5.50645,21.64334 -51.12551,48.83258 -51.12551,48.83258 0,0 15.7109,-3.22548 35.37716,-16.57988 19.6662,-13.3544 15.74835,-32.2527 15.74835,-32.2527 z m 29.48109,4.03157 4.3843,4.81273 c 5.69367,-1.97057 -4.3843,-4.81273 -4.3843,-4.81273 z"
           id="outline"
           inkscape:connector-curvature="0" />
      </g>
    </g>
  </g>
</svg>
