<?xml version="1.0" encoding="UTF-8" standalone="no"?>
<!-- Created with Inkscape (http://www.inkscape.org/) -->

<svg
   xmlns:dc="http://purl.org/dc/elements/1.1/"
   xmlns:cc="http://creativecommons.org/ns#"
   xmlns:rdf="http://www.w3.org/1999/02/22-rdf-syntax-ns#"
   xmlns:svg="http://www.w3.org/2000/svg"
   xmlns="http://www.w3.org/2000/svg"
   xmlns:sodipodi="http://sodipodi.sourceforge.net/DTD/sodipodi-0.dtd"
   xmlns:inkscape="http://www.inkscape.org/namespaces/inkscape"
   id="svg2"
   version="1.1"
   inkscape:version="0.49+devel r"
   width="1600"
   height="1200"
   sodipodi:docname="kde-splash-ani-1.svg"
   inkscape:export-filename="/home/hhl/bastelecke/spielplatz/firestarter1png"
   inkscape:export-xdpi="90"
   inkscape:export-ydpi="90">
  <metadata
     id="metadata8">
    <rdf:RDF>
      <cc:Work
         rdf:about="">
        <dc:format>image/svg+xml</dc:format>
        <dc:type
           rdf:resource="http://purl.org/dc/dcmitype/StillImage" />
        <dc:title></dc:title>
      </cc:Work>
    </rdf:RDF>
  </metadata>
  <defs
     id="defs6">
    <filter
       style="color-interpolation-filters:sRGB"
       y="-0.25"
       x="-0.25"
       height="1.5"
       width="1.5"
       inkscape:label="Drop shadow"
       id="filter8554-99-02-3-5-2">
      <feGaussianBlur
         result="blur"
         stdDeviation="1"
         in="SourceAlpha"
         id="feGaussianBlur8556-3-0-6-6-6" />
      <feColorMatrix
         values="-1 0 0 0 1 0 -1 0 0 1 0 0 -1 0 1 0 0 0 0.5 0 "
         type="matrix"
         result="bluralpha"
         id="feColorMatrix8558-6-1-1-4-1" />
      <feOffset
         result="offsetBlur"
         dy="-1"
         dx="1"
         in="bluralpha"
         id="feOffset8560-0-9-0-5-6" />
      <feMerge
         id="feMerge8562-5-62-6-3-7">
        <feMergeNode
           in="offsetBlur"
           id="feMergeNode8564-0-1-3-3-8" />
        <feMergeNode
           in="SourceGraphic"
           id="feMergeNode8566-2-20-2-0-4" />
      </feMerge>
    </filter>
    <linearGradient
       id="linearGradient6147-1-1-4-4-7-0-3-0">
      <stop
         id="stop6149-6-3-9-3-3-6-8-8"
         offset="0"
         style="stop-color:#5f8dd3;stop-opacity:1;" />
      <stop
         id="stop6151-5-0-9-5-1-1-9-2"
         offset="1"
         style="stop-color:#162d50;stop-opacity:1;" />
    </linearGradient>
    <linearGradient
       id="linearGradient6147-1-1-5-94-7-1-5-4-1">
      <stop
         id="stop6149-6-3-5-2-4-9-5-4-1"
         offset="0"
         style="stop-color:#5f8dd3;stop-opacity:1;" />
      <stop
         id="stop6151-5-0-3-06-3-0-4-3-6"
         offset="1"
         style="stop-color:#162d50;stop-opacity:1;" />
    </linearGradient>
    <linearGradient
       id="linearGradient6147-1-1-0-9-4-5-7-7-8">
      <stop
         id="stop6149-6-3-3-5-6-6-6-5-2"
         offset="0"
         style="stop-color:#5f8dd3;stop-opacity:1;" />
      <stop
         id="stop6151-5-0-36-6-9-7-5-3-2"
         offset="1"
         style="stop-color:#162d50;stop-opacity:1;" />
    </linearGradient>
    <linearGradient
       id="linearGradient6147-1-1-5-3-14-2-7-6-6-6">
      <stop
         id="stop6149-6-3-5-0-3-2-4-9-7-4"
         offset="0"
         style="stop-color:#5f8dd3;stop-opacity:1;" />
      <stop
         id="stop6151-5-0-3-0-7-6-0-3-6-4"
         offset="1"
         style="stop-color:#162d50;stop-opacity:1;" />
    </linearGradient>
    <linearGradient
       id="linearGradient6147-1-1-0-5-7-1-64-7-6-5">
      <stop
         id="stop6149-6-3-3-1-3-2-7-4-9-3"
         offset="0"
         style="stop-color:#5f8dd3;stop-opacity:1;" />
      <stop
         id="stop6151-5-0-36-1-39-8-4-5-8-0"
         offset="1"
         style="stop-color:#162d50;stop-opacity:1;" />
    </linearGradient>
    <linearGradient
       id="linearGradient6147-1-1-0-2-4-9-8-2-8-2">
      <stop
         id="stop6149-6-3-3-4-4-28-5-5-6-4"
         offset="0"
         style="stop-color:#5f8dd3;stop-opacity:1;" />
      <stop
         id="stop6151-5-0-36-9-49-8-8-4-7-7"
         offset="1"
         style="stop-color:#162d50;stop-opacity:1;" />
    </linearGradient>
    <linearGradient
       id="linearGradient6147-1-1-5-3-1-3-6-2-7-7-2">
      <stop
         id="stop6149-6-3-5-0-7-8-8-6-4-0-0"
         offset="0"
         style="stop-color:#5f8dd3;stop-opacity:1;" />
      <stop
         id="stop6151-5-0-3-0-2-32-3-0-4-9-4"
         offset="1"
         style="stop-color:#162d50;stop-opacity:1;" />
    </linearGradient>
    <linearGradient
       id="linearGradient6147-1-1-0-5-6-5-3-6-3-5-6">
      <stop
         id="stop6149-6-3-3-1-1-4-3-6-0-5-5"
         offset="0"
         style="stop-color:#5f8dd3;stop-opacity:1;" />
      <stop
         id="stop6151-5-0-36-1-5-3-3-4-7-3-7"
         offset="1"
         style="stop-color:#162d50;stop-opacity:1;" />
    </linearGradient>
    <linearGradient
       id="linearGradient6147-1-1-5-3-1-8-4-0-6-8-2-2">
      <stop
         id="stop6149-6-3-5-0-7-1-9-4-2-6-3-4"
         offset="0"
         style="stop-color:#5f8dd3;stop-opacity:1;" />
      <stop
         id="stop6151-5-0-3-0-2-3-5-7-8-8-8-1"
         offset="1"
         style="stop-color:#162d50;stop-opacity:1;" />
    </linearGradient>
    <filter
       style="color-interpolation-filters:sRGB"
       y="-0.25"
       x="-0.25"
       height="1.5"
       width="1.5"
       inkscape:label="Drop shadow"
       id="filter8554-99-02-3-5-2-9">
      <feGaussianBlur
         result="blur"
         stdDeviation="1"
         in="SourceAlpha"
         id="feGaussianBlur8556-3-0-6-6-6-3" />
      <feColorMatrix
         values="-1 0 0 0 1 0 -1 0 0 1 0 0 -1 0 1 0 0 0 0.5 0 "
         type="matrix"
         result="bluralpha"
         id="feColorMatrix8558-6-1-1-4-1-3" />
      <feOffset
         result="offsetBlur"
         dy="-1"
         dx="1"
         in="bluralpha"
         id="feOffset8560-0-9-0-5-6-1" />
      <feMerge
         id="feMerge8562-5-62-6-3-7-4">
        <feMergeNode
           in="offsetBlur"
           id="feMergeNode8564-0-1-3-3-8-0" />
        <feMergeNode
           in="SourceGraphic"
           id="feMergeNode8566-2-20-2-0-4-9" />
      </feMerge>
    </filter>
    <filter
       style="color-interpolation-filters:sRGB"
       y="-0.25"
       x="-0.25"
       height="1.5"
       width="1.5"
       inkscape:label="Drop shadow"
       id="filter3309">
      <feGaussianBlur
         result="blur"
         stdDeviation="1"
         in="SourceAlpha"
         id="feGaussianBlur3311" />
      <feColorMatrix
         values="-1 0 0 0 1 0 -1 0 0 1 0 0 -1 0 1 0 0 0 0.5 0 "
         type="matrix"
         result="bluralpha"
         id="feColorMatrix3313" />
      <feOffset
         result="offsetBlur"
         dy="-1"
         dx="1"
         in="bluralpha"
         id="feOffset3315" />
      <feMerge
         id="feMerge3317">
        <feMergeNode
           in="offsetBlur"
           id="feMergeNode3319" />
        <feMergeNode
           in="SourceGraphic"
           id="feMergeNode3321" />
      </feMerge>
    </filter>
  </defs>
  <sodipodi:namedview
     pagecolor="#ffffff"
     bordercolor="#eb1f1f"
     borderopacity="1"
     objecttolerance="10"
     gridtolerance="10"
     guidetolerance="10"
     inkscape:pageopacity="0"
     inkscape:pageshadow="2"
     inkscape:window-width="1024"
     inkscape:window-height="725"
     id="namedview4"
     showgrid="false"
     borderlayer="true"
     inkscape:showpageshadow="false"
     showguides="true"
     inkscape:guide-bbox="true"
     inkscape:zoom="0.55285506"
     inkscape:cx="518.03828"
     inkscape:cy="568.24966"
     inkscape:window-x="-5"
     inkscape:window-y="23"
     inkscape:window-maximized="1"
     inkscape:current-layer="svg2">
    <sodipodi:guide
       orientation="0,1"
       position="1.8087924,94.057202"
       id="guide2198" />
    <sodipodi:guide
       orientation="1,0"
       position="171.83527,94.057202"
       id="guide140" />
    <sodipodi:guide
       orientation="1,0"
       position="1.8087924,94.057202"
       id="guide142" />
    <sodipodi:guide
       orientation="0,1"
       position="1.8087924,0"
       id="guide146" />
  </sodipodi:namedview>
  <g
     id="g815"
     transform="matrix(1.3573755,0,0,1.3573755,-18.5358,79.716605)">
    <path
       style="fill:#ff6600"
       d="m 285.92767,584.67839 c 0,-0.63733 0.55416,-1.50127 1.23146,-1.91987 0.67731,-0.4186 1.23146,0.10282 1.23146,1.15878 0,1.05593 -0.55415,1.91987 -1.23146,1.91987 C 286.48183,585.83717 285.92767,585.31572 285.92767,584.67839 z m 468.77602,-0.89366 c -1.27391,-1.27389 -0.96709,-7.56358 0.41048,-8.41497 0.74371,-0.45965 1.23146,1.21868 1.23146,4.23743 C 756.34563,584.71187 756.14396,585.225 754.70369,583.78473 Z M 742.177,578.44086 c -2.74154,-3.02937 -1.93687,-4.06706 2.32444,-2.99753 2.05623,0.51608 3.22397,1.65288 3.22397,3.13858 C 747.72541,581.62421 744.99507,581.55479 742.177,578.44086 z m 161.27754,1.15708 c -1.13336,-1.83383 0.18069,-2.83087 2.53849,-1.92609 1.0881,0.41754 1.63345,1.31723 1.2119,1.99932 C 906.20674,581.28628 904.47712,581.2525 903.45454,579.59794 Z M 724.42488,566.64692 c 0.0591,-1.4346 0.35089,-1.72639 0.744,-0.74402 0.35573,0.88895 0.31198,1.9511 -0.0971,2.3603 C 724.66246,568.6724 724.3714,567.94507 724.42488,566.64692 z m 9.75446,-1.74458 c 0,-1.35461 0.55416,-2.46292 1.23146,-2.46292 0.6773,0 1.23146,1.10831 1.23146,2.46292 0,1.35461 -0.55416,2.46292 -1.23146,2.46292 C 734.7335,567.36526 734.17934,566.25695 734.17934,564.90234 z m 0.62416,-6.14365 c -0.59594,-0.96425 -0.17307,-2.01538 1.09665,-2.72596 1.90307,-1.065 1.86485,-1.48302 -0.483,-5.2819 -1.4023,-2.26897 -2.04017,-4.44025 -1.41752,-4.82506 1.36113,-0.84123 3.26615,1.3514 4.40563,5.07075 C 739.43192,554.34771 736.27808,561.1446 734.8035,558.75869 z m 149.9219,-0.82923 c -1.71573,-0.69231 -2.13045,-4.11027 -0.49873,-4.11027 0.57233,0 2.04361,1.10832 3.26952,2.46293 C 889.73783,558.7591 888.54257,559.46973 884.7254,557.92946 z m -160.39775,-2.33575 c 0,-1.05593 0.5632,-1.57179 1.25155,-1.14637 0.68835,0.42542 0.93273,1.28936 0.54305,1.91986 C 725.0666,558.0753 724.32765,557.7568 724.32765,555.59371 z m 95.99748,-3.11145 c -0.75601,-1.41261 -1.05492,-2.88802 -0.66426,-3.27869 1.2385,-1.23848 6.87801,2.01952 6.87801,3.97349 C 826.53888,555.96553 821.91247,555.44823 820.32513,552.48226 z m -96.7836,-2.97318 c -0.9464,-2.46627 0.45022,-5.89454 2.00888,-4.93122 1.63186,1.00854 1.60635,6.77841 -0.0299,6.77841 C 724.8219,551.35627 723.93138,550.52504 723.54153,549.50908 z m -398.20712,-4.15933 c 0,-1.81729 3.50315,-4.1087 4.9317,-3.22582 0.96108,0.59398 0.93341,1.32755 -0.0969,2.56895 C 328.57743,546.61092 325.33441,547.05154 325.33441,545.34975 z m 402.93392,-4.09145 c -0.81277,-0.81277 -1.47776,-2.47524 -1.47776,-3.69439 0,-2.36866 -3.03611,-3.04653 -4.32252,-0.96508 -1.13087,1.82977 -3.06624,0.21664 -3.06624,-2.55568 0,-1.483 0.8435,-2.39025 2.22227,-2.39025 2.48772,0 11.3238,7.57675 11.3238,9.70991 C 732.94788,543.18011 730.12714,543.11711 728.26833,541.2583 z m 77.95145,0.24629 c -0.41859,-0.67731 0.10283,-1.23146 1.15878,-1.23146 1.05593,0 1.91988,0.55415 1.91988,1.23146 0,0.6773 -0.52145,1.23146 -1.15878,1.23146 C 807.50233,542.73605 806.63838,542.18189 806.21978,541.50459 z m -11.69887,-9.23596 c 0,-1.01595 -0.43469,-1.84719 -0.96595,-1.84719 -1.16266,0 -5.19135,-6.59817 -5.19135,-8.50236 0,-2.99769 4.85926,-1.132 7.28832,2.79828 3.01492,4.87826 3.35938,9.39846 0.71617,9.39846 C 795.35214,534.11582 794.52091,533.28459 794.52091,532.26863 z m -402.07189,-4.31011 c -1.22404,-1.98053 0.52352,-3.69438 3.76705,-3.69438 2.62498,0 3.00598,-0.55655 3.00598,-4.39107 0,-5.33738 1.87365,-9.155 4.4932,-9.155 1.42777,0 1.80946,0.9142 1.4381,3.44442 -0.46389,3.16074 -0.22186,3.40277 2.93889,2.93888 1.89443,-0.27805 3.44442,0.0149 3.44442,0.65104 0,2.22896 -5.72939,6.51173 -8.71123,6.51173 -1.67726,0 -3.69224,1.09094 -4.54905,2.46292 C 396.63238,529.35953 393.69811,529.9796 392.44902,527.95852 Z M 835.98009,516.0544 c -0.45154,-0.45153 -0.82098,-1.55984 -0.82098,-2.46293 0,-2.17985 3.25032,-2.11248 4.09351,0.0848 C 840.2476,516.26922 837.9005,517.97481 835.98009,516.0544 z m -94.13949,-7.25441 c -1.50615,-1.05495 -3.91975,-4.51121 -5.36357,-7.68058 -1.44382,-3.16938 -3.52035,-6.41711 -4.61452,-7.21719 -1.09418,-0.80008 -1.56376,-1.88033 -1.04352,-2.40057 0.9368,-0.93682 18.13788,16.36118 18.13788,18.24009 C 748.95687,511.38635 744.73557,510.82771 741.8406,508.79999 z m 29.98911,-4.13887 c -3.14956,-3.48022 -1.88426,-5.33094 1.75637,-2.56897 2.19549,1.66563 2.69937,2.71633 1.75651,3.66269 C 774.39841,506.70254 773.39422,506.38989 771.82971,504.66112 z m 45.78109,-3.14148 c -3.25809,-4.48069 -2.5812,-6.39855 0.92359,-2.61682 3.03348,3.27319 3.96227,5.69496 2.15506,5.61925 C 820.18146,504.50078 818.79607,503.14968 817.6108,501.51964 z m -308.26347,-4.75501 c -0.91574,-2.38636 2.51154,-6.98139 5.20715,-6.98139 2.34235,0 2.00612,1.31082 -1.4077,5.48792 C 510.55655,498.44051 510.06463,498.63387 509.34733,496.76463 z m 257.6832,0.71524 c -0.29897,-0.50798 -0.91724,-2.66715 -1.37393,-4.79815 -0.4567,-2.13101 -1.90724,-4.84914 -3.22347,-6.04031 -2.38494,-2.15833 -3.25499,-5.47839 -1.43567,-5.47839 3.86406,0 8.89424,9.01413 8.89424,15.93857 C 769.8917,498.59243 767.84464,498.86307 767.03053,497.47987 Z M 518.07902,484.8914 c -0.48292,-0.78136 0.007,-2.39914 1.08981,-3.59508 2.66882,-2.94901 2.47469,-3.85331 -0.75249,-3.5053 -1.70803,0.18419 -2.88005,-0.47119 -3.14959,-1.76123 -0.36127,-1.72897 0.65531,-2.04483 6.41469,-1.99308 4.35445,0.0391 6.84397,0.5836 6.84397,1.4968 C 528.52541,477.99708 519.05903,486.4771 518.07902,484.8914 z m 148.58677,-4.65198 c -1.78494,-3.4927 -2.80611,-10.38303 -1.41105,-9.52082 1.25925,0.77825 4.88865,8.644 4.88865,10.5948 C 670.14339,483.19979 667.81048,482.47932 666.66579,480.23942 z m 85.47249,-6.02569 c -1.03095,-2.68662 0.33789,-3.93539 1.79252,-1.63527 1.45626,2.30265 1.48725,3.65872 0.0836,3.65872 C 753.40962,476.23718 752.56534,475.32662 752.13828,474.21373 Z M 433.70295,473.2312 c 0,-1.98766 1.74411,-3.45965 2.82204,-2.38172 0.961,0.961 -0.3631,4.15623 -1.72234,4.15623 C 434.19782,475.00571 433.70295,474.20719 433.70295,473.2312 z m 226.04284,-9.58265 c -1.05435,-1.50529 -1.91701,-3.63605 -1.91701,-4.73497 0,-1.09894 -1.15407,-3.04246 -2.56458,-4.31897 -1.41053,-1.2765 -3.35008,-4.20086 -4.31011,-6.49855 -2.12167,-5.07788 -2.12291,-5.10863 -0.20621,-5.10706 0.84663,6.9e-4 3.15468,2.91001 5.129,6.46517 1.97431,3.55515 4.60656,7.7855 5.84943,9.40077 2.39756,3.11592 3.04132,7.53055 1.09813,7.53055 C 662.18555,466.38549 660.80016,465.15387 659.74579,463.64855 z m 82.61649,-0.0339 c -2.38315,-3.82674 -3.86076,-11.87152 -1.80244,-9.8132 2.01812,2.01812 4.48851,1.89091 6.72576,-0.34635 2.24918,-2.24918 4.08886,-2.38199 4.26467,-0.30786 0.23502,2.77247 -0.26201,8.8834 -0.90147,11.08314 C 749.7394,467.35886 744.44918,466.96577 742.36228,463.6147 z m 5.49095,-6.21419 c -1.58056,-1.58057 -3.18338,-0.35898 -2.01324,1.53437 0.45328,0.73341 1.38829,0.98481 2.07781,0.55867 C 748.75889,458.97372 748.73765,458.28492 747.85323,457.40051 z m -32.55628,5.70108 c -0.45154,-0.45151 -0.82098,-1.39358 -0.82098,-2.09347 0,-0.77164 0.57357,-0.69893 1.45722,0.18471 0.80148,0.80149 1.17092,1.74356 0.82098,2.09349 C 716.40423,463.63625 715.74847,463.55313 715.29695,463.10159 z m 34.89138,-15.24171 c 0,-1.89601 5.93648,-7.96633 6.87392,-7.02889 0.44179,0.4418 -0.50849,2.46254 -2.11174,4.49054 C 751.92607,449.14722 750.18833,450.07346 750.18833,447.85984 z m -224.12584,-2.87413 c 0,-0.93301 0.82469,-2.38082 1.83262,-3.21733 1.48991,-1.23652 1.98405,-1.12634 2.64236,0.58922 0.47397,1.23513 0.097,2.56147 -0.90901,3.19848 C 527.17222,447.11137 526.06249,446.93387 526.06249,444.98571 z m -74.93438,-0.70494 c 0.27093,-0.81276 0.89435,-1.43619 1.3854,-1.38539 1.47245,0.15232 1.18729,1.84139 -0.40023,2.37056 C 451.30052,445.53686 450.85719,445.09354 451.12811,444.28077 z m 286.96782,-1.50444 c 0.58012,-3.94252 3.47217,-4.36476 3.47217,-0.50694 0,2.06947 -0.67549,3.18127 -1.93284,3.18127 C 738.35166,445.45066 737.83461,444.55235 738.09593,442.77633 z m -10.49506,-5.54609 c -0.44566,-0.44566 -0.8103,-1.82624 -0.8103,-3.06798 0,-2.66103 3.12967,-3.04261 4.10516,-0.50051 C 731.63337,435.58399 728.90719,438.53656 727.60087,437.23024 z m -135.44998,-2.45225 c -1.48332,-1.4833 -0.85804,-6.23546 1.02621,-7.79924 1.59114,-1.32053 1.84719,-0.82933 1.84719,3.5436 C 595.02429,435.27887 594.06802,436.69514 592.15089,434.77799 Z M 463.258,424.04545 c 0,-1.01595 0.55416,-2.18967 1.23146,-2.60827 0.67731,-0.4186 1.23146,0.0702 1.23146,1.08611 0,1.01595 -0.55415,2.18967 -1.23146,2.60827 C 463.81216,425.55016 463.258,425.06141 463.258,424.04545 Z M 709.85799,416.586 c -2.20124,-2.14804 -4.00225,-5.07849 -4.00225,-6.51211 0,-1.51733 -2.05846,-4.36856 -4.92584,-6.82292 -2.70921,-2.31899 -4.92584,-4.82318 -4.92584,-5.56487 0,-2.85091 -2.63575,-2.72786 -7.92153,0.36981 -4.46099,2.61432 -5.9682,2.96489 -8.02174,1.86588 -1.85275,-0.99157 -3.23469,-0.97542 -5.17007,0.0603 -1.67674,0.89735 -5.23843,1.11984 -9.75213,0.60918 -6.53303,-0.73913 -7.6228,-0.48937 -13.41491,3.07456 -8.113,4.99198 -15.67984,7.23021 -24.10312,7.12961 -5.90476,-0.0705 -7.10913,-0.52984 -9.81193,-3.74195 -1.69453,-2.01375 -3.08097,-4.39751 -3.08097,-5.29714 0,-0.89963 -2.63225,-3.19166 -5.84944,-5.0934 -4.62507,-2.73397 -7.44676,-3.47935 -13.48068,-3.56102 -6.43633,-0.0871 -8.07531,-0.57673 -10.46742,-3.12689 -1.55988,-1.66297 -5.13758,-4.05219 -7.95043,-5.30939 -5.03801,-2.25173 -5.21787,-2.24705 -12.06162,0.31353 -6.4512,2.4137 -7.21265,2.46213 -10.66226,0.67827 -4.58706,-2.37206 -11.05972,-0.65726 -15.46626,4.09747 -2.79306,3.01378 -3.0225,3.04826 -10.17711,1.52995 -4.02579,-0.85433 -9.2943,-1.18288 -11.70782,-0.73009 -3.83344,0.71915 -4.38819,0.514 -4.38819,-1.62282 0,-1.34532 -0.55416,-2.78853 -1.23146,-3.20713 -0.67731,-0.4186 -1.23146,-2.40825 -1.23146,-4.42144 0,-3.98048 2.93117,-6.07031 5.2549,-3.74657 2.06523,2.06523 3.6033,1.69296 3.1313,-0.75786 -0.22802,-1.18408 -1.4101,-2.15385 -2.62685,-2.15506 -1.21674,-9.8e-4 -3.1321,-1.51525 -4.25633,-3.3645 -1.66538,-2.73938 -1.75045,-3.65196 -0.45919,-4.92584 1.28268,-1.26541 1.88144,-1.16228 3.14009,0.54092 1.18688,1.60607 2.40673,1.87674 5.1508,1.14289 4.37617,-1.17031 5.38392,-4.50067 1.6568,-5.47534 -2.30602,-0.60303 -2.56453,-1.28175 -1.87932,-4.93425 0.6713,-3.57832 0.40833,-4.336 -1.69593,-4.88628 -2.78081,-0.7272 -3.44866,-4.57622 -0.79402,-4.57622 0.93301,0 2.38626,-0.83124 3.22943,-1.84719 0.84317,-1.01596 3.25096,-1.84719 5.35064,-1.84719 l 3.81759,0 -2.76737,-1.93835 c -1.84751,-1.29404 -3.98527,-1.67086 -6.43131,-1.13361 -4.71042,1.03458 -4.89461,-1.43379 -0.49702,-6.66003 1.7418,-2.07001 2.86441,-4.25312 2.49469,-4.85134 -1.19422,-1.93228 2.03906,-16.7753 3.9602,-18.18016 2.13743,-1.56301 1.13021,-5.60341 -1.27517,-5.11535 -0.86548,0.17561 -1.5736,-0.51195 -1.5736,-1.5279 0,-1.01596 1.10832,-1.86275 2.46292,-1.88175 1.8495,-0.026 2.38262,-0.75694 2.14049,-2.93493 -0.44968,-4.04502 1.97915,-6.58128 5.46477,-5.70644 2.12147,0.53247 2.86216,0.19708 2.86216,-1.29593 0,-1.42785 -0.73889,-1.82105 -2.53799,-1.35058 -3.34322,0.87428 -5.27736,-3.61704 -3.07886,-7.14947 0.84308,-1.35461 1.90815,-3.98686 2.36685,-5.84944 0.45871,-1.86259 1.31037,-3.38652 1.89259,-3.38652 0.58224,0 1.74723,-1.66247 2.58887,-3.69438 1.8098,-4.36923 1.92383,-4.38928 7.0809,-1.24496 4.07605,2.48523 5.11643,5.79549 2.60939,8.30253 -0.76608,0.76609 -1.60295,4.22803 -1.85974,7.69322 l -0.46687,6.30035 4.15992,-0.78041 c 3.67144,-0.68876 4.68863,-0.23603 8.66229,3.85553 4.90877,5.05442 5.13449,7.05613 0.86619,7.68184 -1.8786,0.2754 -2.54029,1.00048 -2.05858,2.25578 0.39043,1.01746 0.70987,2.87621 0.70987,4.13057 0,1.81211 0.69573,2.1577 3.38652,1.68213 1.86257,-0.3292 4.45987,-1.65834 5.77176,-2.95365 2.31151,-2.2823 2.31578,-2.43187 0.13792,-4.83839 -1.81043,-2.00049 -1.9537,-2.8371 -0.73701,-4.30313 0.91124,-1.09798 1.1943,-3.25878 0.7136,-5.44744 -0.46068,-2.09743 -0.24689,-3.96742 0.50679,-4.43323 0.71696,-0.44311 1.30722,-2.0198 1.31168,-3.50376 0.005,-1.48396 1.10912,-4.36057 2.45481,-6.39248 2.97484,-4.49187 3.0755,-6.51794 0.46703,-9.40025 -1.85452,-2.04923 -1.76731,-2.47703 1.23146,-6.04089 1.77505,-2.1095 3.23569,-4.76272 3.24589,-5.89605 0.01,-1.13332 0.81712,-4.2772 1.79313,-6.98641 1.24641,-3.45971 1.7907,-4.10115 1.82866,-2.15505 0.0297,1.52392 0.60821,2.77078 1.28551,2.77078 0.6773,0 2.33978,1.10832 3.69438,2.46292 2.413,2.413 2.46292,2.41447 2.46292,0.0727 0,-1.31464 -0.58687,-2.75296 -1.30417,-3.19627 -0.7173,-0.44333 -1.13967,-2.06146 -0.93859,-3.59587 0.20107,-1.5344 -0.43272,-3.75173 -1.40845,-4.92739 -1.55906,-1.87857 -1.51995,-2.27976 0.32287,-3.31105 1.34748,-0.75409 2.09688,-2.7029 2.09688,-5.45287 0,-3.38124 -0.61884,-4.51468 -2.94859,-5.40044 -3.50602,-1.33298 -7.7662,-8.66967 -5.03419,-8.66967 0.92406,0 2.03901,0.58067 2.47762,1.29039 0.43864,0.70971 1.99526,1.12534 3.4592,0.92359 2.11396,-0.29131 2.60132,0.20339 2.36835,2.404 -0.35892,3.39002 1.05972,3.54327 3.88639,0.41984 1.95128,-2.15615 1.96925,-2.65714 0.21677,-6.04605 -1.05094,-2.0323 -2.55213,-3.90887 -3.33595,-4.17015 -1.03684,-0.3456 -0.96842,-1.20638 0.25112,-3.15916 1.32274,-2.11804 1.35811,-3.00228 0.16777,-4.19262 -3.08551,-3.0855 -1.70299,-5.79444 3.69967,-7.24922 6.2528,-1.6837 8.93107,-0.41597 9.00699,4.26339 0.038,2.34912 1.18101,3.97386 4.00224,5.68955 4.16747,2.5344 4.9114,4.67698 2.47115,7.11723 -1.12111,1.12111 -1.13298,1.82252 -0.0492,2.90635 1.08381,1.08382 2.02498,0.71232 3.8997,-1.53933 1.35911,-1.63234 2.48954,-3.6032 2.51208,-4.37967 0.0226,-0.77646 1.93446,-3.07426 4.24872,-5.10622 2.31428,-2.03195 4.39236,-4.99869 4.61798,-6.59274 0.26993,-1.90716 1.35775,-3.03285 3.18102,-3.29179 1.52393,-0.21642 2.77078,-1.16671 2.77078,-2.11173 0,-0.94501 1.14409,-2.33051 2.54244,-3.07889 1.99365,-1.06697 2.23658,-1.72917 1.12544,-3.06802 -2.11922,-2.55351 -0.35546,-4.53759 2.46686,-2.77502 1.2794,0.79899 2.07853,1.85342 1.77585,2.34316 -0.61107,0.98873 4.23591,9.85105 6.08454,11.12514 0.64613,0.4453 1.94875,0.51266 2.89472,0.14965 0.94597,-0.36299 2.81881,0.51951 4.16189,1.96113 1.34308,1.44163 2.97452,2.62113 3.62545,2.62113 0.65091,0 1.18349,0.61878 1.18349,1.37509 0,0.75629 -1.02962,1.10584 -2.28803,0.77675 -3.80718,-0.9956 -6.3322,1.30248 -6.3322,5.76306 0,2.25397 0.7756,4.74181 1.72356,5.52855 1.15418,0.95789 1.51879,2.95689 1.10374,6.05132 -0.44793,3.33955 -0.0622,5.08369 1.3912,6.28988 1.72929,1.43517 2.43722,1.26857 5.05356,-1.18936 2.80759,-2.63759 3.81478,-2.42038 3.01231,0.64965 -0.17703,0.6773 -0.66464,3.17101 -1.08357,5.54157 -0.68041,3.85011 -1.22018,4.35234 -5.05766,4.70579 -5.86412,0.54009 -7.40325,2.3297 -4.23607,4.92544 1.38755,1.13721 2.89408,3.03743 3.34787,4.22271 1.51549,3.95843 7.62497,1.53637 8.54228,-3.38652 0.28919,-1.55188 1.3336,-2.38382 2.82351,-2.2491 4.04101,0.36541 6.64089,-1.90801 8.01412,-7.0078 0.97914,-3.63622 1.95552,-4.9049 3.77486,-4.9049 3.52323,0 4.05885,2.65491 1.84883,9.16434 -2.58927,7.62654 -2.48878,8.15744 1.48681,7.85451 5.87965,-0.44802 8.54484,3.09065 4.71911,6.26572 -0.94095,0.78093 -1.97242,2.78834 -2.29215,4.46091 -0.75822,3.96631 3.27742,4.23483 5.3532,0.35618 1.37369,-2.56678 1.50927,-2.58588 3.08254,-0.4343 1.99632,2.73014 1.28373,4.09828 -3.01307,5.78487 -3.0887,1.21236 -3.13023,1.33505 -0.76121,2.24919 5.54498,2.1397 6.88019,8.63116 1.77529,8.63116 -1.2257,0 -2.47593,0.69271 -2.77829,1.53933 -0.31978,0.89536 -1.00668,1.08241 -1.64196,0.44715 -0.63528,-0.63529 -0.44821,-1.32219 0.44715,-1.64196 2.12226,-0.75795 1.94476,-4.0389 -0.21851,-4.0389 -1.90124,0 -6.86242,5.6509 -6.86242,7.81644 0,0.72985 1.43367,2.47017 3.18595,3.86738 3.65001,2.91042 6.53875,13.96462 4.05109,15.50209 -0.7674,0.47427 -0.99218,1.51453 -0.49952,2.31168 0.64902,1.05013 1.56144,0.84693 3.31241,-0.73766 1.65919,-1.50156 4.75149,-2.27142 9.86598,-2.45626 l 7.44934,-0.26924 -0.77594,3.87965 c -0.42675,2.13381 -1.5266,4.29975 -2.4441,4.81321 -2.03381,1.13818 -1.86198,12.31244 0.19991,12.99973 0.75845,0.25282 2.59067,-0.18879 4.07158,-0.98135 2.59146,-1.38689 2.66131,-1.27427 1.85967,2.99879 -0.81172,4.3268 -0.73528,4.43981 3.00292,4.43981 3.27351,0 3.77815,0.40618 3.44231,2.77079 -0.53735,3.7835 -4.95311,4.20917 -10.38964,1.00153 -5.14793,-3.03735 -7.78942,-2.19295 -4.55376,1.4557 1.62487,1.83225 1.81492,2.66761 0.69595,3.05901 -2.78151,0.97294 -1.66916,4.02758 1.46664,4.02758 1.65329,0 3.33351,0.52996 3.73383,1.17768 0.40032,0.64772 1.54134,0.86551 2.53561,0.48398 2.73003,-1.04762 2.16783,1.75335 -0.65518,3.26418 -1.3546,0.72496 -2.46292,1.78555 -2.46292,2.35685 0,1.86419 6.93002,3.96251 10.29638,3.11761 l 3.28628,-0.8248 -0.52101,6.60326 c -0.4616,5.85035 -0.83365,6.60326 -3.26305,6.60326 -3.87725,0 -5.92075,3.58065 -3.89485,6.82464 0.9589,1.53544 1.27361,4.13308 0.80402,6.63626 -0.98913,5.27252 1.23559,6.7586 3.38967,2.26425 1.13411,-2.36626 2.56704,-3.41055 4.67982,-3.41055 3.85941,0 4.86127,3.77388 1.30177,4.90362 -4.13575,1.31264 -2.91328,2.76292 3.31648,3.93448 5.46296,1.02735 5.83225,1.33452 5.58945,4.64894 -0.143,1.95188 -0.69716,3.87198 -1.23146,4.26688 -0.53432,0.3949 -2.0157,2.77227 -3.29195,5.28306 -2.18155,4.29174 -2.19998,4.819 -0.30787,8.80633 2.59611,5.47089 2.55067,7.94822 -0.14185,7.73447 -1.36421,-0.10824 -2.29901,0.84527 -2.54857,2.59975 C 717.85043,421.86635 714.71831,421.32886 709.85799,416.586 z m 8.13597,-23.95307 c 1.2192,-0.77253 1.28648,-1.2962 0.2489,-1.93745 -1.76423,-1.09036 -4.99835,0.0509 -4.99835,1.76372 C 713.24451,393.99518 715.70217,394.08509 717.99396,392.63293 z m -9.67529,-3.21373 c 0,-1.01595 -0.55416,-1.84719 -1.23147,-1.84719 -0.6773,0 -1.23146,0.83124 -1.23146,1.84719 0,1.01596 0.55416,1.84719 1.23146,1.84719 C 707.76451,391.26639 708.31867,390.43516 708.31867,389.4192 z m -8.62023,-64.65168 c 0,-0.6773 -0.24437,-1.23146 -0.54304,-1.23146 -0.29869,0 -0.88555,0.55416 -1.30415,1.23146 -0.4186,0.6773 -0.17423,1.23146 0.54304,1.23146 C 699.11158,325.99898 699.69844,325.44482 699.69844,324.76752 z m -11.23569,-15.93506 1.90545,-2.86975 -3.99537,2.06608 c -2.19745,1.13636 -3.64938,2.6259 -3.22653,3.3101 C 684.24048,313.1093 686.25302,312.16048 688.46275,308.83246 Z M 581.17094,272.73831 c -0.2819,-0.84664 -1.5573,-1.74178 -2.83421,-1.98924 -2.00863,-0.38923 -2.09908,-0.18168 -0.67077,1.53933 C 579.61931,274.64205 581.90238,274.9351 581.17094,272.73831 z m 91.56319,-2.51982 c -1.58056,-1.58056 -3.18338,-0.35897 -2.01324,1.53437 0.45328,0.73342 1.38829,0.98482 2.07781,0.55867 C 673.63979,271.79171 673.61855,271.1029 672.73413,270.21849 z m -6.70607,-5.24036 c 0.53379,-1.39101 1.69564,-1.69936 4.27147,-1.13362 4.64676,1.0206 4.59157,-1.01761 -0.15614,-5.76532 l -3.69439,-3.69438 0,3.02259 c 0,1.66243 -0.83123,3.71246 -1.84719,4.55563 -2.10698,1.74863 -2.4792,4.92584 -0.57709,4.92584 C 664.72329,266.88887 665.62478,266.02903 666.02806,264.97813 z m -24.20827,-28.26005 c 0,-1.01595 -0.55416,-1.84719 -1.23146,-1.84719 -0.6773,0 -1.23146,0.83124 -1.23146,1.84719 0,1.01596 0.55416,1.8472 1.23146,1.8472 C 641.26563,238.56528 641.81979,237.73404 641.81979,236.71808 z m 93.682,182.36582 c -0.93007,-1.12067 -1.00553,-2.00733 -0.21257,-2.49743 0.67621,-0.41791 1.83092,0.36399 2.56604,1.73757 C 739.37555,421.16472 737.6824,421.71137 735.50179,419.0839 z m -266.96017,-1.56927 c -0.42925,-1.1186 0.14588,-3.64787 1.27807,-5.62061 1.13219,-1.97272 2.05854,-6.20395 2.05854,-9.40271 0,-4.97417 0.59385,-6.39151 4.10299,-9.79272 2.71015,-2.62677 4.80038,-3.70917 6.1573,-3.18847 2.41374,0.92624 2.69465,5.6902 0.53906,9.14183 -1.2494,2.00063 -1.15418,2.78738 0.54267,4.48424 1.92293,1.92293 1.88096,2.36792 -0.63979,6.78345 -2.09724,3.67367 -3.45155,4.72765 -6.08426,4.73502 -2.06912,0.006 -3.38651,0.67681 -3.38651,1.72492 C 473.10969,418.97846 469.45209,419.88729 468.54162,417.51463 z m -23.75553,-3.63833 c 0,-1.29849 4.17447,-4.0588 6.15731,-4.07145 1.21596,-0.007 0.79516,0.81113 -1.23147,2.39637 C 446.557,414.66904 444.78609,415.27126 444.78609,413.8763 z m -7.38876,-17.61139 c 0,-3.31594 2.32961,-4.42815 4.574,-2.18375 2.2444,2.24439 1.13218,4.574 -2.18376,4.574 C 438.24252,398.65516 437.39733,397.80996 437.39733,396.26491 z m 21.41708,-3.05511 c -0.36955,-0.96302 -0.0752,-2.86615 0.65439,-4.22915 0.72946,-1.36301 1.32628,-3.55508 1.32628,-4.87127 0,-3.04425 2.81182,-5.41896 5.29027,-4.46789 2.77842,1.06617 3.63809,4.29223 1.75057,6.56928 -0.90132,1.08733 -2.28819,3.5009 -3.08194,5.36349 C 463.21245,395.19156 459.92253,396.0975 458.81441,393.20981 z m 94.34022,-1.255 c 0,-1.05592 0.55415,-1.91987 1.23146,-1.91987 0.6773,0 1.23146,0.52145 1.23146,1.15879 0,0.63732 -0.55416,1.50126 -1.23146,1.91986 C 553.70878,393.53218 553.15463,393.01073 553.15463,391.9548 z m 169.22628,-13.1641 c -1.04961,-1.69828 1.36105,-4.04063 3.07091,-2.98388 0.73631,0.45507 1.33875,1.28956 1.33875,1.85443 C 726.79057,379.2994 723.25497,380.20498 722.38091,378.7907 z m 14.26135,-5.99622 c 0,-0.6773 0.55416,-1.23146 1.23146,-1.23146 0.6773,0 1.23146,0.55416 1.23146,1.23146 0,0.67731 -0.55416,1.23146 -1.23146,1.23146 C 737.19642,374.02594 736.64226,373.47179 736.64226,372.79448 z m -237.6719,-1.77451 c 0,-3.78524 6.40138,-3.80627 7.85208,-0.0257 0.52427,1.36614 -0.33914,1.80025 -3.58062,1.80025 C 500.34369,372.79448 498.97036,372.22395 498.97036,371.01997 Z M 721.249,365.40572 c -0.4186,-0.6773 0.13556,-1.23146 1.23146,-1.23146 1.0959,0 1.65006,0.55416 1.23146,1.23146 -0.4186,0.6773 -0.97275,1.23146 -1.23146,1.23146 C 722.22176,366.63718 721.6676,366.08302 721.249,365.40572 z m -218.394,-6.69625 c 0.234,-1.12974 0.97963,-2.0248 1.65693,-1.98902 1.82784,0.0965 1.49204,2.85159 -0.42547,3.49076 C 503.05065,360.55648 502.58902,359.99352 502.855,358.70947 z m 219.02859,-2.23184 c 0.01,-0.84663 0.54146,-2.36593 1.18018,-3.37622 0.90286,-1.42806 1.49002,-1.50821 2.63816,-0.36006 1.14815,1.14814 1.126,1.89958 -0.0995,3.37623 C 723.69961,358.41032 721.85773,358.58865 721.88359,356.47763 Z M 701.6883,299.74586 c -2.47846,-1.85478 -0.72819,-4.94533 2.45366,-4.33256 2.82506,0.54406 3.73109,4.15995 1.2782,5.1012 C 704.4368,300.89186 702.75745,300.54597 701.6883,299.74586 z m -6.9157,-5.22181 c 0,-1.05593 0.55416,-1.57738 1.23146,-1.15878 0.6773,0.4186 1.23146,1.28254 1.23146,1.91987 0,0.63733 -0.55416,1.15878 -1.23146,1.15878 C 695.32676,296.44392 694.7726,295.57998 694.7726,294.52405 z m -7.73043,-2.52666 c -1.50261,-1.50261 -0.98781,-7.26454 0.87449,-9.78776 2.28371,-3.09419 5.02757,-0.77567 3.98689,3.36884 C 690.9412,289.41105 688.14625,293.10146 687.04217,291.99739 z m -139.45329,-6.67572 c -0.47825,-0.77383 -0.29008,-1.98641 0.41813,-2.69463 1.65496,-1.65495 5.51342,-0.21142 4.84011,1.81079 C 552.16169,286.49644 548.67694,287.08217 547.58888,285.32167 z m 147.85205,0.1242 c -0.91073,-1.47357 1.40585,-2.93362 3.04614,-1.91987 1.37721,0.85116 0.47309,3.06624 -1.25155,3.06624 C 696.63816,286.59224 695.8306,286.07637 695.44093,285.44587 Z M 529.29366,266.22653 c -0.41501,-1.08151 0.0634,-2.19701 1.11539,-2.6007 1.90172,-0.72975 5.50513,1.50478 5.50513,3.41382 C 535.91418,268.92389 530.05247,268.20396 529.29366,266.22653 z m 9.98073,-9.35188 c -2.59317,-1.45121 -2.81907,-4.76331 -0.32489,-4.76331 2.03938,0 4.8715,4.46031 3.40688,5.36551 C 541.8321,257.80086 540.44521,257.52988 539.27439,256.87465 z m -6.40387,-9.63251 c -1.14148,-1.84697 0.67654,-7.4454 2.41781,-7.4454 2.06624,0 3.06718,4.03912 1.63509,6.59812 C 535.65689,248.65802 533.96428,249.01186 532.87052,247.24214 z m 127.0107,-7.03492 c -1.25649,-1.25649 -0.97579,-5.33633 0.36716,-5.33633 1.54803,0 3.88247,4.37059 2.8734,5.37966 C 662.11736,241.25497 660.91286,241.23886 659.88122,240.20722 z m -131.13359,-6.77919 c 0.58012,-3.94252 3.47217,-4.36476 3.47217,-0.50694 0,2.06946 -0.67549,3.18126 -1.93285,3.18126 C 529.00336,236.10235 528.4863,235.20405 528.74763,233.42803 z m 156.95093,1.81003 c -0.4277,-0.42772 -0.77765,-1.7936 -0.77765,-3.03534 0,-1.58721 0.91427,-2.25767 3.07865,-2.25767 1.88275,0 3.07866,0.70071 3.07866,1.80386 C 691.07822,233.75654 686.91636,236.45584 685.69856,235.23806 z m -31.95203,-14.03201 c -0.94758,-3.62351 0.24525,-6.03853 2.98255,-6.03853 2.44691,0 2.78337,1.26572 1.55499,5.84944 C 657.3493,224.50504 654.63876,224.61799 653.74653,221.20605 z m 7.03445,-6.6108 c -1.8025,-1.33065 -2.00359,-2.0626 -0.87993,-3.20272 1.80613,-1.83258 5.31649,-0.63318 5.31649,1.81648 C 665.21754,215.94951 663.38931,216.52076 660.78098,214.59525 z m -50.7713,-11.92807 c 0.22658,-1.59314 1.41016,-3.05888 2.66293,-3.29776 1.74586,-0.3329 2.16296,0.21754 1.84719,2.43776 -0.22659,1.59316 -1.41015,3.05889 -2.66293,3.29777 C 610.111,205.43785 609.6939,204.88741 610.00968,202.66718 z m 17.78218,-45.89882 c 0.80427,-2.0959 3.93129,-3.47061 5.57863,-2.45251 1.72067,1.06344 -1.25077,4.20448 -3.97745,4.20448 C 627.93302,158.52033 627.36012,157.89347 627.79185,156.76836 z m -6.9069,-9.90358 c 0,-2.30531 3.97496,-4.47075 5.9575,-3.24545 0.83307,0.51486 1.15955,1.86158 0.72549,2.99272 C 626.58491,149.1738 620.88496,149.38938 620.88496,146.86478 Z"
       id="path821"
       inkscape:connector-curvature="0" />
    <path
       style="fill:#ff6600"
       d="M 620.83334,410.41666 C 620.375,409.95834 620,408.83334 620,407.91666 c 0,-1.24074 2.39584,-1.66666 9.375,-1.66666 5.998,0 9.375,-0.49644 9.375,-1.37819 0,-0.9285 -3.3649,-1.2344 -10.3125,-0.9375 -9.89672,0.42293 -10.3286,0.32729 -10.71194,-2.37181 -0.23263,-1.63799 -1.27665,-2.81594 -2.5,-2.82074 -1.15531,-0.005 -3.78806,-1.12582 -5.85056,-2.49176 -2.10483,-1.39398 -5.86465,-2.48714 -8.57013,-2.49176 -3.4642,-0.006 -6.15479,-1.06534 -9.56478,-3.76609 -2.88805,-2.28738 -5.53037,-3.45636 -6.75252,-2.98739 -1.1043,0.42376 -4.04962,-0.19841 -6.54516,-1.38262 -3.50982,-1.66553 -6.12594,-1.95399 -11.55237,-1.27382 -9.89424,1.24018 -16.44472,1.097 -17.93369,-0.39197 -1.48788,-1.48788 -4.76195,0.0556 -10.03569,4.73115 -2.24674,1.99187 -4.96336,3.0625 -7.77084,3.0625 -5.38046,0 -6.78318,-1.27066 -3.80596,-3.44765 1.89066,-1.3825 2.13049,-2.62415 1.3857,-7.17459 -1.67754,-10.24946 -1.65417,-19.17499 0.0576,-21.98425 1.0458,-1.71635 3.17937,-2.87774 5.74087,-3.125 4.36941,-0.42179 6.8889,-4.76851 2.76396,-4.76851 -2.38482,0 -5.44101,-3.41689 -5.50221,-6.15158 -0.0219,-0.97711 -0.91017,-2.73838 -1.97404,-3.91392 -1.74878,-1.93239 -1.73395,-2.33769 0.15465,-4.22629 1.38889,-1.38889 3.1972,-1.8455 5.3961,-1.36254 2.01907,0.44347 4.27144,-0.002 5.78287,-1.1449 3.60046,-2.72145 5.3012,-2.38058 7.41811,1.48673 1.0349,1.89062 3.07201,4.83202 4.52691,6.53645 2.42105,2.83625 2.77556,2.92077 4.18223,0.99704 1.42328,-1.94645 1.72557,-1.91329 4.08735,0.44848 1.42803,1.42804 4.41205,2.63954 6.78073,2.75297 3.46453,0.16588 4.23034,-0.25002 4.23034,-2.29744 0,-1.77259 -0.96082,-2.61129 -3.30217,-2.88248 -2.57915,-0.29872 -3.16304,-0.91453 -2.66672,-2.8125 0.3495,-1.33651 1.6517,-2.43002 2.89378,-2.43002 1.24206,0 3.97321,-1.44301 6.06922,-3.20669 2.81984,-2.37274 4.35383,-2.90286 5.89845,-2.03845 1.14814,0.64253 3.10712,0.9016 4.35329,0.57573 1.64088,-0.4291 2.49116,0.30547 3.08298,2.66345 0.66951,2.66753 1.5471,3.25596 4.85603,3.25596 3.12475,0 4.37024,-0.72731 5.50304,-3.21354 1.3283,-2.9153 1.23965,-3.14226 -0.9553,-2.44561 -1.85604,0.58909 -2.51415,0.10025 -2.82604,-2.09898 -0.26438,-1.86433 -2.04576,-3.66783 -5.09406,-5.15732 -5.27542,-2.57773 -5.99277,-5.51583 -2.1875,-8.95955 1.375,-1.24436 2.5,-3.44635 2.5,-4.89331 0,-2.13729 0.76215,-2.62859 4.0625,-2.61878 3.55393,0.01 4.03854,-0.37912 3.8711,-3.11291 -0.25146,-4.10576 2.96364,-13.78496 5.51656,-16.6078 1.71485,-1.89618 1.78834,-2.87153 0.48737,-6.4693 -3.36005,-9.29206 2.32221,-14.75644 9.80451,-9.42856 4.27326,3.04282 8.08235,2.53811 6.98602,-0.92568 -0.57218,-1.80781 0.18218,-2.25394 4.28882,-2.53636 3.11876,-0.21448 4.98312,0.19474 4.98312,1.09375 0,0.92602 1.31863,1.17272 3.71094,0.69426 3.51047,-0.7021 3.67346,-0.55482 3.01725,2.72626 -0.46331,2.31657 -0.0353,4.01495 1.28906,5.114 1.09051,0.90505 1.98275,2.94972 1.98275,4.54372 0,3.85723 2.48236,5.22043 4.49475,2.46833 0.88853,-1.21512 3.07515,-2.9666 4.85918,-3.89216 2.89143,-1.5001 3.52037,-1.40616 5.79152,0.86499 2.49943,2.49942 2.43669,6.10455 -0.10625,6.10455 -2.46567,0 -1.26951,3.70529 1.85764,5.75426 2.46638,1.61604 2.83873,2.43318 1.72194,3.77883 -0.7837,0.9443 -2.34042,1.73562 -3.45935,1.7585 -4.18154,0.0855 3.7828,4.95841 8.10402,4.95841 4.24109,0 5.19004,0.96136 3.14635,3.1875 -1.65308,1.80067 -2.82845,11.56075 -1.49168,12.3869 0.93873,0.58017 5.08186,7.77314 5.08186,8.82272 0,0.14467 -2.10938,0.19888 -4.6875,0.1205 -4.45204,-0.13541 -4.70789,0.0711 -5.09349,4.11144 -0.27109,2.84059 0.45572,5.41953 2.1875,7.76189 1.42642,1.92932 2.59349,4.09315 2.59349,4.80849 0,1.67022 4.65586,1.70801 5.21111,0.0423 0.27038,-0.81113 1.86224,-0.71374 4.47916,0.27405 3.59358,1.35641 4.05973,2.07502 4.05973,6.25832 0,4.38655 -0.26155,4.72595 -3.6419,4.72595 -3.3625,0 -3.57136,0.26371 -2.7226,3.4375 1.14976,4.29931 5.01654,5.3321 5.99237,1.60053 0.44575,-1.70459 1.36533,-2.42438 2.52753,-1.97839 1.00477,0.38556 3.32147,1.02429 5.14822,1.41939 l 3.32138,0.71837 -2.87348,-2.33757 c -2.99314,-2.43489 -2.75075,-6.60984 0.3837,-6.60984 2.75295,0 6.75176,8.01265 5.29654,10.61299 -0.69158,1.23576 -1.21655,5.40026 -1.16663,9.25442 0.0601,4.64198 -0.73208,8.60918 -2.34676,11.75191 -1.47227,2.8656 -2.14335,5.9164 -1.69464,7.70418 1.04709,4.17195 -3.39403,8.49512 -7.63377,7.43102 -1.71706,-0.43096 -3.59734,-1.63307 -4.1784,-2.67136 -0.8898,-1.59 -1.36405,-1.44866 -3.00628,0.89595 -1.73041,2.4705 -2.6412,2.68866 -8.09406,1.9387 -4.98249,-0.68527 -7.13024,-0.33112 -11.35899,1.87303 -2.86811,1.49495 -5.53166,3.23085 -5.91898,3.85756 -1.53725,2.48731 -9.99355,4.8516 -17.35262,4.8516 C 625.16048,411.25 621.29166,410.875 620.83334,410.41666 Z M 617.5,387.64187 c 0,-0.60947 -1.54688,-1.37366 -3.4375,-1.69821 -1.89063,-0.32455 -4.49863,-1.04052 -5.79556,-1.59106 -1.74845,-0.7422 -2.20749,-0.54554 -1.77564,0.76071 0.4943,1.49513 2.24369,2.09824 10.0712,3.47214 C 617.07812,388.67595 617.5,388.25134 617.5,387.64187 z m -16.58854,-2.14708 c -0.41536,-0.41536 -1.4935,-0.45977 -2.39584,-0.0986 -0.99716,0.39903 -0.70097,0.69523 0.75522,0.7552 C 600.58854,386.20559 601.32682,385.91015 600.91146,385.49479 Z M 654.375,380 c 0,-2.1925 -5.3401,-3.2849 -7.16025,-1.46475 -1.99226,1.99226 0.22527,4.14229 3.8408,3.72389 C 653.00211,382.03387 654.375,381.09952 654.375,380 z m -59.60994,-3.1516 c -0.39111,-0.39113 -2.30434,-0.82639 -4.25161,-0.96726 -4.53263,-0.32792 -5.91783,3.67555 -1.52401,4.40468 C 591.85136,380.76075 596.13059,378.21393 594.76506,376.8484 Z M 613.75,365 c 0,-0.6875 -0.5957,-1.25 -1.32377,-1.25 -0.72808,0 -0.97613,0.5625 -0.55123,1.25 0.4249,0.6875 1.0206,1.25 1.32377,1.25 C 613.50195,366.25 613.75,365.6875 613.75,365 z m -76.25,-2.55996 c 0,-0.57338 -0.61151,-1.42043 -1.35891,-1.88235 -1.7356,-1.07267 -4.18255,1.30495 -3.11714,3.0288 C 533.91117,365.02206 537.5,364.10285 537.5,362.44004 z m 62.06951,-9.37865 c 2.29927,-1.75374 4.18049,-3.6961 4.18049,-4.31635 0,-2.49005 -8.35774,-5.16799 -12.66709,-4.05873 -5.79161,1.49083 -6.60868,6.75048 -1.46847,9.45287 C 594.48138,356.6979 594.8548,356.65748 599.56951,353.06139 Z M 665,351.78335 c 0,-1.16405 -0.85046,-1.80173 -2.08391,-1.5625 -3.13597,0.60819 -3.56657,3.52915 -0.52025,3.52915 C 663.93125,353.75 665,352.94289 665,351.78335 z m -83.75,-14.98213 c 0,-0.99067 -1.125,-1.80122 -2.5,-1.80122 -2.72841,0 -3.45919,3.1976 -0.9375,4.10215 C 579.92718,339.8607 581.25,338.97526 581.25,336.80123 z m 75,-9.22745 c 0,-0.64692 -0.5625,-1.52387 -1.25,-1.94877 -0.6875,-0.4249 -1.25,0.10437 -1.25,1.17623 0,1.07182 0.5625,1.94877 1.25,1.94877 C 655.6875,328.75 656.25,328.2207 656.25,327.57377 Z M 597.5,318.75 c 0,-0.6875 -0.84375,-1.25 -1.875,-1.25 -1.03125,0 -1.875,0.5625 -1.875,1.25 0,0.6875 0.84375,1.25 1.875,1.25 C 596.65625,320 597.5,319.4375 597.5,318.75 z m 16.09765,-3.62939 c 2.3814,-1.50836 0.61557,-3.87061 -2.89336,-3.87061 -3.04408,0 -6.26719,2.77042 -4.86012,4.17751 C 607.0096,316.59294 611.55734,316.41292 613.59765,315.12061 z m 47.71837,-3.24561 c -0.098,-1.85536 -2.89452,-1.5145 -3.54331,0.43187 -0.35047,1.0514 0.22097,1.51999 1.52435,1.25 C 660.44381,313.31935 661.35234,312.5625 661.31602,311.875 Z M 625,294.86626 c 0,-0.61394 -0.84375,-1.11626 -1.875,-1.11626 -1.03125,0 -1.875,0.8261 -1.875,1.83577 0,1.11824 0.73286,1.55454 1.875,1.11627 C 624.15625,296.3063 625,295.48021 625,294.86626 z m 1.31602,-12.99126 c -0.098,-1.85536 -2.89452,-1.5145 -3.54331,0.43187 -0.35047,1.0514 0.22096,1.51999 1.52435,1.25 C 625.44381,283.31935 626.35234,282.5625 626.31602,281.875 z m 74.63972,118.02305 c -3.22519,-3.22519 -4.50802,-3.72887 -7.88405,-3.09553 -3.83765,0.71996 -4.02308,0.57672 -3.8447,-2.96985 0.10362,-2.06139 1.44244,-4.89551 2.99639,-6.34323 2.95651,-2.75442 5.93077,-2.2471 4.75711,0.81141 -0.83205,2.16828 1.77926,6.69915 3.86096,6.69915 0.81955,0 1.83065,1.07304 2.2469,2.38453 0.41625,1.31148 1.57915,2.70008 2.58424,3.08576 1.00507,0.38568 1.82741,1.2814 1.82741,1.99048 C 707.5,404.82794 704.84652,403.78884 700.95574,399.89805 Z M 476.875,397.5 c 0.4249,-0.6875 1.0206,-1.25 1.32377,-1.25 0.30318,0 0.55123,0.5625 0.55123,1.25 0,0.6875 -0.5957,1.25 -1.32377,1.25 C 476.69815,398.75 476.4501,398.1875 476.875,397.5 z m 190.79899,-56.11876 c -2.99853,-2.2618 -3.31798,-6.37658 -0.56615,-7.29276 2.18112,-0.72619 5.81411,5.37951 4.54755,7.64274 C 670.74686,343.35467 670.22999,343.30924 667.67399,341.38124 Z M 533.75,327.57377 c 0,-2.02192 0.5625,-4.02387 1.25,-4.44877 2.05543,-1.27032 1.41984,-5.08383 -1.25,-7.5 -2.54377,-2.30209 -3.51411,-9.8507 -1.4317,-11.1377 0.58756,-0.36314 2.31709,0.66901 3.84338,2.29367 2.43151,2.58824 2.57007,3.28339 1.1192,5.61519 -1.41115,2.26795 -1.33259,3.2262 0.53162,6.48385 3.45434,6.03635 2.58584,12.36999 -1.69624,12.36999 C 534.33096,331.25 533.75,330.34741 533.75,327.57377 z m 12.08334,-3.40711 C 545.375,323.70834 545,322.75209 545,322.04166 c 0,-0.78325 0.58221,-0.70945 1.47916,0.1875 0.81355,0.81355 1.18855,1.7698 0.83334,2.125 C 546.95729,324.70937 546.29166,324.625 545.83334,324.16666 Z M 691.875,317.5 c 0.4249,-0.6875 1.0206,-1.25 1.32378,-1.25 0.30317,0 0.55122,0.5625 0.55122,1.25 0,0.6875 -0.5957,1.25 -1.32378,1.25 C 691.69815,318.75 691.4501,318.1875 691.875,317.5 z m -116.3014,-3.83316 c -1.34534,-2.1768 0.1869,-2.6378 1.90132,-0.57205 C 578.46086,314.28278 578.5557,315 577.72682,315 576.99572,315 576.02678,314.40008 575.5736,313.66684 z m -32.48744,-1.22968 c -1.08866,-1.76149 2.99195,-10.19094 4.48625,-9.26741 1.32956,0.82172 1.56321,5.62085 0.41885,8.60301 C 547.12916,314.01937 544.3008,314.40248 543.08616,312.43716 z m 43.39821,-13.76529 c 0.30079,-0.90235 1.28516,-1.88672 2.1875,-2.1875 0.9375,-0.3125 1.40625,0.15625 1.09375,1.09375 -0.30078,0.90234 -1.28516,1.88672 -2.1875,2.1875 C 586.64062,300.07812 586.17187,299.60937 586.48437,298.67187 Z M 661.25,293.31874 c 0,-1.6122 1.125,-3.94938 2.5,-5.19374 2.1921,-1.98383 2.5,-2.01493 2.5,-0.25255 0,2.73994 -2.65856,8.37755 -3.95065,8.37755 C 661.72221,296.25 661.25,294.93092 661.25,293.31874 Z M 593.125,282.5 c -0.4249,-0.6875 -0.17685,-1.25 0.55123,-1.25 0.72807,0 1.32377,0.5625 1.32377,1.25 0,0.6875 -0.24805,1.25 -0.55123,1.25 C 594.1456,283.75 593.5499,283.1875 593.125,282.5 z m 67.5,-2.5 c -0.4249,-0.6875 -2.42685,-1.25 -4.44878,-1.25 -2.43442,0 -3.67622,-0.63336 -3.67622,-1.875 0,-1.28787 1.29166,-1.875 4.125,-1.875 4.29319,0 7.125,1.8382 7.125,4.625 C 663.75,281.54446 661.72939,281.78694 660.625,280 z m -32.25769,-32.04935 c -0.9576,-0.9576 0.10472,-2.95065 1.57273,-2.95065 0.57337,0 1.36626,0.84375 1.762,1.875 C 632.4152,248.73349 629.94646,249.5298 628.36731,247.95065 Z"
       id="path817"
       inkscape:connector-curvature="0" />
  </g>
  <rect
     style="opacity:0.15400002;fill:#ff6600;fill-opacity:1;fill-rule:nonzero;stroke:none"
     id="rect144"
     width="171.83527"
     height="92.248413"
     x="-274.93643"
     y="1105.9427" />
</svg>
