<?xml version="1.0" encoding="UTF-8" standalone="no"?>
<!-- Created with Inkscape (http://www.inkscape.org/) -->

<svg
   xmlns:dc="http://purl.org/dc/elements/1.1/"
   xmlns:cc="http://creativecommons.org/ns#"
   xmlns:rdf="http://www.w3.org/1999/02/22-rdf-syntax-ns#"
   xmlns:svg="http://www.w3.org/2000/svg"
   xmlns="http://www.w3.org/2000/svg"
   xmlns:sodipodi="http://sodipodi.sourceforge.net/DTD/sodipodi-0.dtd"
   xmlns:inkscape="http://www.inkscape.org/namespaces/inkscape"
   id="svg2"
   version="1.1"
   inkscape:version="0.49+devel r"
   width="1600"
   height="1200"
   sodipodi:docname="kde-splash-ani-2.svg"
   inkscape:export-filename="/home/hhl/bastelecke/spielplatz/firestarter1png"
   inkscape:export-xdpi="90"
   inkscape:export-ydpi="90">
  <metadata
     id="metadata8">
    <rdf:RDF>
      <cc:Work
         rdf:about="">
        <dc:format>image/svg+xml</dc:format>
        <dc:type
           rdf:resource="http://purl.org/dc/dcmitype/StillImage" />
        <dc:title></dc:title>
      </cc:Work>
    </rdf:RDF>
  </metadata>
  <defs
     id="defs6">
    <filter
       style="color-interpolation-filters:sRGB"
       y="-0.25"
       x="-0.25"
       height="1.5"
       width="1.5"
       inkscape:label="Drop shadow"
       id="filter8554-99-02-3-5-2">
      <feGaussianBlur
         result="blur"
         stdDeviation="1"
         in="SourceAlpha"
         id="feGaussianBlur8556-3-0-6-6-6" />
      <feColorMatrix
         values="-1 0 0 0 1 0 -1 0 0 1 0 0 -1 0 1 0 0 0 0.5 0 "
         type="matrix"
         result="bluralpha"
         id="feColorMatrix8558-6-1-1-4-1" />
      <feOffset
         result="offsetBlur"
         dy="-1"
         dx="1"
         in="bluralpha"
         id="feOffset8560-0-9-0-5-6" />
      <feMerge
         id="feMerge8562-5-62-6-3-7">
        <feMergeNode
           in="offsetBlur"
           id="feMergeNode8564-0-1-3-3-8" />
        <feMergeNode
           in="SourceGraphic"
           id="feMergeNode8566-2-20-2-0-4" />
      </feMerge>
    </filter>
    <linearGradient
       id="linearGradient6147-1-1-4-4-7-0-3-0">
      <stop
         id="stop6149-6-3-9-3-3-6-8-8"
         offset="0"
         style="stop-color:#5f8dd3;stop-opacity:1;" />
      <stop
         id="stop6151-5-0-9-5-1-1-9-2"
         offset="1"
         style="stop-color:#162d50;stop-opacity:1;" />
    </linearGradient>
    <linearGradient
       id="linearGradient6147-1-1-5-94-7-1-5-4-1">
      <stop
         id="stop6149-6-3-5-2-4-9-5-4-1"
         offset="0"
         style="stop-color:#5f8dd3;stop-opacity:1;" />
      <stop
         id="stop6151-5-0-3-06-3-0-4-3-6"
         offset="1"
         style="stop-color:#162d50;stop-opacity:1;" />
    </linearGradient>
    <linearGradient
       id="linearGradient6147-1-1-0-9-4-5-7-7-8">
      <stop
         id="stop6149-6-3-3-5-6-6-6-5-2"
         offset="0"
         style="stop-color:#5f8dd3;stop-opacity:1;" />
      <stop
         id="stop6151-5-0-36-6-9-7-5-3-2"
         offset="1"
         style="stop-color:#162d50;stop-opacity:1;" />
    </linearGradient>
    <linearGradient
       id="linearGradient6147-1-1-5-3-14-2-7-6-6-6">
      <stop
         id="stop6149-6-3-5-0-3-2-4-9-7-4"
         offset="0"
         style="stop-color:#5f8dd3;stop-opacity:1;" />
      <stop
         id="stop6151-5-0-3-0-7-6-0-3-6-4"
         offset="1"
         style="stop-color:#162d50;stop-opacity:1;" />
    </linearGradient>
    <linearGradient
       id="linearGradient6147-1-1-0-5-7-1-64-7-6-5">
      <stop
         id="stop6149-6-3-3-1-3-2-7-4-9-3"
         offset="0"
         style="stop-color:#5f8dd3;stop-opacity:1;" />
      <stop
         id="stop6151-5-0-36-1-39-8-4-5-8-0"
         offset="1"
         style="stop-color:#162d50;stop-opacity:1;" />
    </linearGradient>
    <linearGradient
       id="linearGradient6147-1-1-0-2-4-9-8-2-8-2">
      <stop
         id="stop6149-6-3-3-4-4-28-5-5-6-4"
         offset="0"
         style="stop-color:#5f8dd3;stop-opacity:1;" />
      <stop
         id="stop6151-5-0-36-9-49-8-8-4-7-7"
         offset="1"
         style="stop-color:#162d50;stop-opacity:1;" />
    </linearGradient>
    <linearGradient
       id="linearGradient6147-1-1-5-3-1-3-6-2-7-7-2">
      <stop
         id="stop6149-6-3-5-0-7-8-8-6-4-0-0"
         offset="0"
         style="stop-color:#5f8dd3;stop-opacity:1;" />
      <stop
         id="stop6151-5-0-3-0-2-32-3-0-4-9-4"
         offset="1"
         style="stop-color:#162d50;stop-opacity:1;" />
    </linearGradient>
    <linearGradient
       id="linearGradient6147-1-1-0-5-6-5-3-6-3-5-6">
      <stop
         id="stop6149-6-3-3-1-1-4-3-6-0-5-5"
         offset="0"
         style="stop-color:#5f8dd3;stop-opacity:1;" />
      <stop
         id="stop6151-5-0-36-1-5-3-3-4-7-3-7"
         offset="1"
         style="stop-color:#162d50;stop-opacity:1;" />
    </linearGradient>
    <linearGradient
       id="linearGradient6147-1-1-5-3-1-8-4-0-6-8-2-2">
      <stop
         id="stop6149-6-3-5-0-7-1-9-4-2-6-3-4"
         offset="0"
         style="stop-color:#5f8dd3;stop-opacity:1;" />
      <stop
         id="stop6151-5-0-3-0-2-3-5-7-8-8-8-1"
         offset="1"
         style="stop-color:#162d50;stop-opacity:1;" />
    </linearGradient>
    <filter
       style="color-interpolation-filters:sRGB"
       y="-0.25"
       x="-0.25"
       height="1.5"
       width="1.5"
       inkscape:label="Drop shadow"
       id="filter8554-99-02-3-5-2-9">
      <feGaussianBlur
         result="blur"
         stdDeviation="1"
         in="SourceAlpha"
         id="feGaussianBlur8556-3-0-6-6-6-3" />
      <feColorMatrix
         values="-1 0 0 0 1 0 -1 0 0 1 0 0 -1 0 1 0 0 0 0.5 0 "
         type="matrix"
         result="bluralpha"
         id="feColorMatrix8558-6-1-1-4-1-3" />
      <feOffset
         result="offsetBlur"
         dy="-1"
         dx="1"
         in="bluralpha"
         id="feOffset8560-0-9-0-5-6-1" />
      <feMerge
         id="feMerge8562-5-62-6-3-7-4">
        <feMergeNode
           in="offsetBlur"
           id="feMergeNode8564-0-1-3-3-8-0" />
        <feMergeNode
           in="SourceGraphic"
           id="feMergeNode8566-2-20-2-0-4-9" />
      </feMerge>
    </filter>
    <filter
       style="color-interpolation-filters:sRGB"
       y="-0.25"
       x="-0.25"
       height="1.5"
       width="1.5"
       inkscape:label="Drop shadow"
       id="filter3309">
      <feGaussianBlur
         result="blur"
         stdDeviation="1"
         in="SourceAlpha"
         id="feGaussianBlur3311" />
      <feColorMatrix
         values="-1 0 0 0 1 0 -1 0 0 1 0 0 -1 0 1 0 0 0 0.5 0 "
         type="matrix"
         result="bluralpha"
         id="feColorMatrix3313" />
      <feOffset
         result="offsetBlur"
         dy="-1"
         dx="1"
         in="bluralpha"
         id="feOffset3315" />
      <feMerge
         id="feMerge3317">
        <feMergeNode
           in="offsetBlur"
           id="feMergeNode3319" />
        <feMergeNode
           in="SourceGraphic"
           id="feMergeNode3321" />
      </feMerge>
    </filter>
  </defs>
  <sodipodi:namedview
     pagecolor="#ffffff"
     bordercolor="#eb1f1f"
     borderopacity="1"
     objecttolerance="10"
     gridtolerance="10"
     guidetolerance="10"
     inkscape:pageopacity="0"
     inkscape:pageshadow="2"
     inkscape:window-width="1024"
     inkscape:window-height="725"
     id="namedview4"
     showgrid="false"
     borderlayer="true"
     inkscape:showpageshadow="false"
     showguides="true"
     inkscape:guide-bbox="true"
     inkscape:zoom="0.55285506"
     inkscape:cx="518.03828"
     inkscape:cy="571.86724"
     inkscape:window-x="-5"
     inkscape:window-y="23"
     inkscape:window-maximized="1"
     inkscape:current-layer="svg2">
    <sodipodi:guide
       orientation="0,1"
       position="1.8087924,94.057202"
       id="guide2198" />
    <sodipodi:guide
       orientation="1,0"
       position="171.83527,94.057202"
       id="guide140" />
    <sodipodi:guide
       orientation="1,0"
       position="1.8087924,94.057202"
       id="guide142" />
    <sodipodi:guide
       orientation="0,1"
       position="1.8087924,0"
       id="guide146" />
  </sodipodi:namedview>
  <g
     id="g815"
     transform="matrix(1.3573755,0,0,1.3573755,-18.5358,79.716605)">
    <path
       style="fill:#ffcc00"
       d="m 339.32743,609.70177 c -0.87019,-2.26766 1.36043,-7.20177 3.25578,-7.20177 2.61094,0 2.69604,4.0263 0.13915,6.58319 C 340.42704,611.37852 340.00066,611.45621 339.32743,609.70177 z m 590.28988,-1.75112 C 928.61865,606.95199 929.74755,605 931.32378,605 931.9707,605 932.5,605.84375 932.5,606.875 932.5,608.80801 931.02505,609.35838 929.61731,607.95065 Z M 345.9216,598.00494 c -1.36974,-1.36974 3.41439,-9.19288 5.6409,-9.22419 2.58299,-0.0364 2.77255,1.96107 0.625,6.58529 C 350.74149,598.47966 347.684,599.76733 345.9216,598.00494 z m 413.45659,-1.30533 c -4.52371,-4.5237 -5.91863,-7.8845 -5.09493,-12.27525 1.55202,-8.2729 5.49344,-7.11802 6.38777,1.87166 0.29621,2.97747 1.11016,5.98517 1.80877,6.68378 1.59014,1.59014 1.66946,5.7702 0.1095,5.7702 C 761.95089,598.75 760.5059,597.82732 759.37819,596.69961 z m -479.98723,-2.92377 c -1.23936,-2.00534 1.75675,-6.27584 4.40301,-6.27584 2.82473,0 3.11482,2.15242 0.71597,5.3125 C 282.66551,595.24222 280.544,595.64148 279.39096,593.77584 z m 464.70671,-1.42817 c -0.77127,-0.77127 -1.12466,-2.12586 -0.7853,-3.01021 0.33935,-0.88434 -1.46387,-4.56839 -4.00716,-8.18675 -4.04306,-5.75211 -4.60455,-7.43026 -4.46799,-13.35382 0.0859,-3.72623 0.43519,-7.22639 0.77619,-7.77813 C 736.48761,558.60428 732.72584,550 731.23322,550 c -2.26466,0 -2.21511,28.26811 0.0535,30.53675 1.82947,1.82947 1.45598,4.46325 -0.63294,4.46325 -4.1635,0 -5.88649,-5.69668 -6.16414,-20.38027 -0.2238,-11.83629 -0.72386,-15.07366 -3.00409,-19.44837 -1.50455,-2.88659 -2.73556,-6.50389 -2.73556,-8.03845 0,-1.69449 -1.1044,-3.27461 -2.8125,-4.024 -3.93681,-1.72717 -3.57479,-4.89616 0.61444,-5.37842 2.65666,-0.30583 3.75047,0.3156 4.8664,2.76478 0.79171,1.73762 3.59415,4.5852 6.22766,6.32798 3.10785,2.05668 6.77374,6.56058 10.44609,12.83408 6.28815,10.74203 6.49845,11.6478 3.69711,15.92318 -1.08986,1.66334 -1.78388,4.8363 -1.5625,7.14353 0.33786,3.52105 1.20159,4.5141 5.69179,6.54396 6.3705,2.87986 8.11953,6.69584 4.24742,9.26682 -1.46625,0.97357 -2.66591,2.54525 -2.66591,3.49264 C 747.5,594.11199 746.00289,594.25289 744.09767,592.34767 z m -388.2383,-3.15496 c -1.61161,-1.61161 -0.86282,-4.06019 2.27804,-7.44924 3.95915,-4.27198 4.8563,-3.42561 2.8272,2.66714 C 359.39511,589.12331 357.53363,590.86696 355.85937,589.19271 Z M 907.75,588.5 c -1.81069,-1.81069 -1.96732,-5.56364 -0.27584,-6.60904 1.95704,-1.20951 6.27584,1.72845 6.27584,4.26928 0,1.27726 -0.88975,2.66372 -1.97724,3.08102 C 909.25533,590.2073 909.50292,590.25292 907.75,588.5 z m -9.3125,-12.80825 C 896.54687,573.32225 895,570.87098 895,570.24446 c 0,-0.62652 -3.375,-3.22228 -7.5,-5.76838 -7.53854,-4.65305 -10.32964,-9.27597 -4.6875,-7.76394 1.54687,0.41455 3.52819,0.76141 4.40292,0.7708 3.04554,0.0326 12.78458,10.19884 12.78458,13.34524 0,1.65538 0.90844,4.39623 2.01876,6.0908 C 905.04811,581.54236 902.37474,580.62625 898.4375,575.69175 Z M 367.5,570.96665 c 0,-1.92183 2.42169,-4.71665 4.08694,-4.71665 0.59781,0 0.90718,1.25987 0.6875,2.79972 C 371.84315,572.0727 367.5,573.81646 367.5,570.96665 z m 456.3612,-9.88525 c -3.57716,-3.83964 -3.42472,-7.3314 0.32006,-7.3314 4.06471,0 8.00244,4.49034 6.30189,7.18628 C 828.49148,564.09373 826.70411,564.1329 823.8612,561.0814 z m -444.45116,-5.9175 c 3.17911,-6.32946 6.83996,-8.55211 6.83996,-4.15281 0,2.84579 -2.14869,5.57661 -6.59324,8.37951 l -3.46823,2.18721 L 379.41004,555.1639 z m -59.0232,-2.2088 c -1.14026,-2.97148 1.23802,-6.0201 5.05174,-6.47563 3.83243,-0.45776 4.30788,1.54162 1.36554,5.74239 C 324.51242,555.49371 321.49336,555.83866 320.38684,552.9551 Z M 876.25,551.17623 c 0,-0.72808 0.5625,-0.97613 1.25,-0.55123 0.6875,0.4249 1.25,1.0206 1.25,1.32377 0,0.30318 -0.5625,0.55123 -1.25,0.55123 C 876.8125,552.5 876.25,551.9043 876.25,551.17623 z m -68.61905,-1.06885 c -1.1916,-0.75452 -1.49783,-2.33548 -0.96674,-4.99095 l 0.77733,-3.88663 -4.78813,0.76566 c -5.26377,0.8417 -5.12772,0.9827 -13.12389,-13.60231 C 786.03022,522.01044 785.5308,520 787.44449,520 c 2.43832,0 10.36301,6.29895 13.69566,10.88601 1.89368,2.60644 4.38058,5.51099 5.52645,6.45454 1.14586,0.94356 2.0834,2.26886 2.0834,2.9451 0,0.67625 1.40625,2.3357 3.125,3.68767 4.01015,3.15439 4.18796,7.28392 0.3125,7.25754 C 810.64062,551.22034 808.59017,550.71476 807.63095,550.10737 z m -420.0006,-15.00037 c -2.344,-1.48421 -0.87738,-4.88487 2.69201,-6.24195 2.10198,-0.79916 3.32314,-2.80141 4.49337,-7.3674 1.27147,-4.96102 2.24796,-6.43086 4.67741,-7.04061 1.68875,-0.42385 4.12051,-1.8207 5.40392,-3.10411 2.53137,-2.53137 9.23137,-2.72452 11.62088,-0.335 2.03306,2.03306 -0.88415,4.99347 -4.33838,4.40261 -3.41225,-0.58368 -6.56875,1.28395 -5.39093,3.1897 0.4724,0.76436 1.95072,1.38975 3.28515,1.38975 1.33442,0 2.42622,0.51934 2.42622,1.15409 0,2.54505 -6.92257,9.14462 -12.62127,12.03236 C 393.47249,536.43274 390.46806,536.90384 387.63035,535.10701 z m 142.85103,-9.40555 C 529.59949,523.40331 532.01502,520 534.52805,520 c 1.15234,0 1.72195,-1.52994 1.72195,-4.625 0,-5.12349 1.7778,-4.45795 3.17206,1.1875 0.64974,2.63086 0.39666,3.4375 -1.07852,3.4375 -1.17174,0 -2.08256,1.34362 -2.32301,3.42681 C 535.5757,527.28071 531.69837,528.87292 530.48138,525.70146 z m 310.60433,-1.33877 c -4.03235,-2.19095 -5.24423,-5.0137 -3.52875,-8.21913 1.72273,-3.21892 5.13064,-1.44243 7.79794,4.06493 C 848.27318,526.23406 846.93191,527.5392 841.08571,524.36269 z m -97.14927,-7.5538 c -1.61621,-1.61006 -4.31741,-5.51755 -6.00268,-8.68331 -1.68526,-3.16577 -4.15978,-6.85161 -5.49893,-8.19075 -2.94343,-2.94343 -3.17714,-6.18483 -0.44596,-6.18483 2.00119,0 21.64957,19.66194 21.7222,21.7372 0.0486,1.39108 -3.90662,4.46494 -5.58607,4.34119 C 747.4375,519.77773 745.55265,518.41896 743.93644,516.80889 z m 29.58843,-5.24639 c -3.47933,-4.08628 -7.27487,-11.22339 -7.27487,-13.67965 0,-1.34589 -1.40625,-3.76816 -3.125,-5.38285 -1.71875,-1.61469 -3.125,-3.97479 -3.125,-5.24469 0,-1.2699 -1.40175,-2.94759 -3.115,-3.7282 -1.71324,-0.7806 -3.78488,-3.27182 -4.60364,-5.53605 -1.16977,-3.23498 -2.286,-4.19701 -5.21125,-4.49141 -3.28933,-0.33105 -3.99747,-1.17481 -6.0844,-7.24965 -1.29898,-3.78125 -2.06167,-8.44471 -1.69485,-10.36325 0.36682,-1.91854 -0.009,-4.56972 -0.83393,-5.89152 -1.23404,-1.976 -1.02138,-3.24483 1.19615,-7.13675 5.22733,-9.17437 9.9431,-8.48942 7.51132,1.09101 -0.9179,3.61626 -0.85851,5.3564 0.21959,6.4345 2.09259,2.09259 10.00558,-7.2958 10.06907,-11.94649 0.0855,-6.26452 3.40253,-3.98275 4.32559,2.97558 0.72366,5.45523 0.4687,6.81972 -1.707,9.13566 -3.5995,3.83149 -5.21141,13.61169 -3.4821,21.12751 1.08759,4.72679 2.50236,6.9416 6.46389,10.11915 2.78936,2.23734 6.05593,4.4185 7.25906,4.84703 1.36949,0.48776 2.19011,2.07922 2.19447,4.25585 0.0113,5.44693 2.42229,12.78098 5.07419,15.43288 3.12985,3.12985 3.19493,7.41884 0.11263,7.41884 C 776.42529,513.75 774.5493,512.76562 773.52487,511.5625 z m 60.31369,-4.75016 c -6.23379,-9.23672 -4.4502,-14.05084 2.73672,-7.38675 2.62167,2.43095 3.42472,4.33616 3.42472,8.125 0,2.72217 -0.52265,4.94941 -1.16144,4.94941 C 838.19976,512.5 835.94976,509.94055 833.83856,506.81234 z m -14.12206,1.62516 c -1.00156,-1.54688 -2.23296,-4.5 -2.73642,-6.5625 -0.50348,-2.0625 -2.10375,-5.02308 -3.55619,-6.57905 -1.98263,-2.12399 -2.28426,-3.18557 -1.21032,-4.25953 1.07397,-1.07396 1.91098,-1.03168 3.35846,0.16962 1.06038,0.88003 1.92797,2.06872 1.92797,2.64151 0,1.59667 5.988,10.06026 8.32845,11.77165 2.61497,1.91211 1.36317,5.6308 -1.89546,5.6308 C 822.61549,511.25 820.71806,509.98437 819.7165,508.4375 Z M 533.75,508.125 c 0,-1.28745 0.81925,-1.90054 2.1875,-1.63704 2.6348,0.50741 2.46866,2.72585 -0.24648,3.29119 C 534.55855,510.01496 533.75,509.32591 533.75,508.125 z m 156.5,-3.375 c -2.21703,-2.21702 -1.88659,-5.16581 0.47724,-4.25874 1.08747,0.41731 2.21247,0.75874 2.5,0.75874 0.28751,0 0.52276,1.125 0.52276,2.5 C 693.75,506.58339 692.45374,506.95374 690.25,504.75 z m -184,-3.28211 c 0,-2.18814 1.23274,-4.68517 3.23977,-6.5625 5.17897,-4.84424 5.75999,-6.76761 3.32572,-11.00909 -2.87859,-5.01565 -1.54368,-6.05851 8.43451,-6.58919 7.57665,-0.40295 8.15143,-0.24637 8.51651,2.31995 0.24808,1.74375 -0.79786,3.78623 -2.85476,5.57468 -1.78546,1.55243 -6.15005,6.64214 -9.69908,11.31044 C 510.18125,505.76114 506.25,507.53827 506.25,501.46789 Z M 423.75,497.5 c 0,-0.6875 0.5957,-1.25 1.32377,-1.25 0.72808,0 0.97613,0.5625 0.55123,1.25 -0.4249,0.6875 -1.0206,1.25 -1.32377,1.25 C 423.99805,498.75 423.75,498.1875 423.75,497.5 z m 4.30306,-9.79049 c 0.46441,-4.35351 1.464,-9.27538 2.2213,-10.9375 1.36104,-2.98713 3.98095,-3.98822 5.2144,-1.99245 0.98114,1.58752 -4.10285,16.85835 -6.31566,18.97044 C 427.39319,495.4489 427.28799,494.88156 428.05306,487.70951 z m 246.87854,5.33307 c -0.89349,-1.07658 -3.09162,-2.71609 -4.88476,-3.64335 -1.79314,-0.92728 -4.0091,-3.2808 -4.92438,-5.23009 -0.91527,-1.94928 -2.16101,-4.52088 -2.7683,-5.71468 -0.60728,-1.1938 -1.10416,-2.9355 -1.10416,-3.87045 0,-2.80367 -3.51432,-9.99454 -7.9637,-16.29502 -3.26084,-4.61746 -5.66655,-11.83637 -5.73144,-17.19844 -0.0302,-2.49394 -0.89861,-5.23469 -1.92986,-6.09055 -2.15143,-1.78553 -2.51222,-5 -0.56121,-5 0.72257,0 2.13637,1.96875 3.14177,4.375 1.00539,2.40625 2.6444,4.375 3.64224,4.375 2.32105,0 4.61702,4.23571 3.65495,6.74282 -0.4228,1.10183 1.98269,6.67873 5.62949,13.05139 3.50227,6.12011 6.36776,11.72676 6.36776,12.45924 0,0.73247 1.48226,4.74959 3.29392,8.92691 2.1899,5.04949 4.38433,8.11776 6.54722,9.15441 4.03597,1.93439 5.1488,5.91523 1.65357,5.91523 C 677.65349,495 675.82508,494.11916 674.9316,493.04257 Z M 820.26491,482.1875 c -0.71016,-0.85938 -1.69893,-3.74414 -2.19728,-6.41058 -0.71907,-3.84736 -0.54864,-4.73022 0.82563,-4.2771 0.95245,0.31405 1.908,1.76597 2.12344,3.22649 0.21543,1.46051 1.48105,3.00124 2.8125,3.42383 3.17274,1.00698 3.23331,5.59986 0.0738,5.59986 C 822.61224,483.75 820.97508,483.04687 820.26491,482.1875 Z M 719.0625,474.27928 C 713.22711,465.34757 712.51871,462.5 716.13218,462.5 c 1.71277,0 3.46907,2.32264 6.25,8.26534 C 728.95449,484.81004 727.17396,486.69474 719.0625,474.27928 z m -127.12151,4.57748 c -0.40248,-0.65121 -0.19897,-1.51331 0.45225,-1.91577 0.65121,-0.40248 1.51331,-0.19897 1.91577,0.45225 0.40248,0.65121 0.19897,1.51331 -0.45225,1.91577 C 593.20555,479.71149 592.34345,479.50797 591.94099,478.85676 Z M 799.375,473.75 c -0.4249,-0.6875 -0.17685,-1.25 0.55122,-1.25 0.72808,0 1.32378,0.5625 1.32378,1.25 0,0.6875 -0.24805,1.25 -0.55122,1.25 C 800.3956,475 799.7999,474.4375 799.375,473.75 Z M 417.5,469.375 c 0,-1.03125 0.5625,-1.875 1.25,-1.875 0.6875,0 1.25,0.84375 1.25,1.875 0,1.03125 -0.5625,1.875 -1.25,1.875 C 418.0625,471.25 417.5,470.40625 417.5,469.375 z m 101.84116,-8.17975 c -0.44351,-0.71762 -0.0845,-2.17466 0.79797,-3.23787 1.43923,-1.73418 1.76779,-1.70959 3.19256,0.2389 0.87352,1.19461 1.2918,2.65166 0.9295,3.23787 C 523.34555,462.91569 520.31345,462.76845 519.34116,461.19525 z m -80.35679,-1.27338 c 0.30079,-0.90235 1.28515,-1.88671 2.1875,-2.1875 0.9375,-0.3125 1.40625,0.15625 1.09375,1.09375 -0.30078,0.90234 -1.28516,1.88672 -2.1875,2.1875 C 439.14062,461.32812 438.67187,460.85937 438.98437,459.92187 z m -19.39177,-0.81978 c -0.35381,-0.57249 0.74535,-2.37741 2.44259,-4.01095 2.36973,-2.2808 3.42792,-2.62803 4.55975,-1.4962 1.07267,1.07267 1.10651,2.05995 0.12425,3.62696 C 425.25306,459.56105 420.63005,460.78071 419.5926,459.10209 z m 172.39965,-4.13713 c -0.35323,-1.01197 -0.61997,-4.08996 -0.59275,-6.83996 0.0272,-2.75 -0.33956,-7.122 -0.81505,-9.71555 -0.52656,-2.8722 -0.26185,-6.1705 0.67716,-8.4375 2.69053,-6.4955 5.5118,-4.02468 5.74121,5.02805 0.0784,3.09375 0.57852,8.28577 1.11138,11.53782 0.84504,5.15723 0.66802,6.02414 -1.38518,6.78383 -1.29471,0.47905 -2.74563,1.45876 -3.22428,2.17714 C 592.95258,456.32753 592.39974,456.1324 591.99225,454.96496 Z M 521.25,452.33504 c 0,-1.58944 4.87031,-9.83504 5.80912,-9.83504 0.33288,0 1.69326,0.58229 3.02305,1.29398 3.60078,1.92707 2.98172,5.85022 -1.2701,8.04892 C 524.4488,454.09924 521.25,454.30741 521.25,452.33504 z m -74.51049,-1.61237 c -0.8853,-2.30707 1.76858,-7.26165 3.56831,-6.66173 0.76372,0.25457 1.99126,1.4467 2.72788,2.64917 1.05182,1.71703 0.81848,2.57306 -1.08711,3.9881 C 448.89373,452.96667 447.60294,452.97274 446.73951,450.72268 Z M 537.5,445.69877 c 0,-1.07182 0.5625,-1.94877 1.25,-1.94877 0.6875,0 1.25,0.5293 1.25,1.17623 0,0.64692 -0.5625,1.52387 -1.25,1.94877 C 538.0625,447.2999 537.5,446.7706 537.5,445.69877 z m 190.66521,-2.26127 c -1.0871,-1.54688 -2.30019,-4.8237 -2.69575,-7.28183 -0.59311,-3.68571 -1.68495,-4.99687 -6.2274,-7.47828 -3.0295,-1.65494 -5.80443,-3.94239 -6.16652,-5.08323 -0.36209,-1.14082 -1.73909,-2.35686 -3.06001,-2.70228 -1.37259,-0.35894 -2.73862,-2.15752 -3.188,-4.19747 -1.36398,-6.19154 -1.70049,-6.73777 -5.49103,-8.91325 -2.0388,-1.17011 -4.2917,-3.41095 -5.00644,-4.97964 l -1.29953,-2.85216 -5.15109,3.25174 c -3.38439,2.13648 -6.1316,3.00565 -8.00994,2.53421 -1.88776,-0.4738 -3.1021,-0.0836 -3.57495,1.14859 -0.81234,2.11691 -4.67257,2.48808 -6.53255,0.6281 -0.6809,-0.6809 -3.74652,-1.58159 -6.8125,-2.00154 -4.93946,-0.67655 -6.30481,-0.27197 -11.98536,3.55143 -7.53248,5.06989 -14.97949,7.18811 -25.27111,7.18811 l -7.44993,0 -4.45609,-6.71337 c -5.49068,-8.27208 -11.00656,-11.16813 -21.77575,-11.43316 -6.37887,-0.15698 -8.20291,-0.67775 -9.65991,-2.75791 -2.47523,-3.53388 -11.60047,-8.09366 -14.41178,-7.20138 -1.27143,0.40353 -2.65962,1.82993 -3.08487,3.16976 -0.8779,2.76605 -1.98515,3.05561 -3.99579,1.04497 -1.79819,-1.79818 -3.95812,-0.41826 -5.43803,3.47419 -0.85246,2.24213 -1.94626,2.9807 -3.98539,2.69108 -2.25223,-0.31989 -2.81049,-1.20203 -2.81049,-4.44104 0,-2.22304 -0.4354,-4.11876 -0.96755,-4.21275 -3.36553,-0.59436 -8.53276,1.79467 -10.81551,5.00048 l -2.65845,3.73347 3.78325,6.14857 c 4.32451,7.02823 4.49995,7.74709 1.89064,7.74709 -2.74348,0 -9.27777,-7.64521 -9.32074,-10.9054 -0.0707,-5.3636 -13.91088,-9.08839 -17.53664,-4.7196 -2.24099,2.70023 -3.59104,2.31857 -4.49166,-1.26978 -0.4341,-1.72961 -2.15117,-4.21602 -3.81569,-5.52533 -1.77876,-1.39918 -2.49383,-2.70973 -1.73454,-3.179 1.94383,-1.20135 1.55187,-4.40089 -0.53913,-4.40089 -1.00707,0 -2.4331,1.125 -3.16898,2.5 -1.807,3.37641 -4.81264,3.15554 -6.18519,-0.45453 -0.61781,-1.62497 -2.15076,-3.40863 -3.40656,-3.96366 -3.70059,-1.63559 -19.06433,-5.25907 -19.68156,-4.64184 -0.31189,0.3119 -0.0658,1.88562 0.54693,3.49715 0.90435,2.37864 0.65067,3.07713 -1.34796,3.71147 -3.67457,1.16627 -1.44027,3.424 2.77605,2.80517 2.77264,-0.40694 3.49173,-0.10937 2.97698,1.23209 -0.37328,0.97274 -0.67869,2.00386 -0.67869,2.29139 0,0.28751 -1.16941,0.52276 -2.59869,0.52276 -1.42927,0 -5.12992,2.53125 -8.22367,5.625 -10.06494,10.06493 -12.22474,6.20612 -7.17128,-12.8125 0.22835,-0.85938 2.26095,-1.56689 4.51692,-1.57225 4.80798,-0.0113 7.74676,-4.23194 5.46525,-7.84889 -2.2914,-3.63262 0.81807,-5.11825 4.55698,-2.17721 3.90084,3.0684 4.71958,3.08016 13.45449,0.19326 5.88244,-1.94415 6.93364,-2.76712 7.2812,-5.70035 0.2234,-1.88547 -0.4077,-4.36277 -1.40245,-5.5051 -0.99475,-1.14233 -1.84304,-3.90509 -1.88509,-6.13946 -0.0852,-4.52831 2.0524,-5.2409 7.8278,-2.60945 1.75402,0.79918 3.44993,1.19224 3.7687,0.87345 0.31878,-0.31877 0.95499,-3.7736 1.4138,-7.67739 0.70282,-5.97982 0.50375,-7.22461 -1.26378,-7.90288 -2.86505,-1.09943 -3.93708,0.2829 -2.01525,2.59856 1.26262,1.52137 1.26767,2.28296 0.0251,3.78021 -2.08325,2.51018 -3.42685,2.36235 -4.32776,-0.47615 -0.42629,-1.34314 -2.37843,-2.67759 -4.55328,-3.11256 -4.9031,-0.98061 -4.58112,-4.97558 0.44782,-5.5562 2.87333,-0.33175 3.37143,-0.93151 3.11431,-3.75 -0.16835,-1.8453 0.16701,-3.35509 0.74525,-3.35509 0.57822,0 1.87629,-1.57449 2.88456,-3.49886 1.28818,-2.45856 2.49226,-3.28969 4.04976,-2.79536 1.69189,0.53698 2.1926,0.0337 2.11543,-2.12614 -0.0752,-2.10488 0.69932,-2.94036 3.02391,-3.26191 1.71875,-0.23775 3.80349,-0.9893 4.63275,-1.67012 0.82925,-0.68081 2.05601,-0.89898 2.72613,-0.48483 1.80553,1.11588 2.97967,-1.51872 2.15002,-4.82433 -0.47572,-1.89542 -1.93011,-3.13519 -4.21372,-3.59191 -2.54902,-0.5098 -4.06678,-2.01096 -5.64122,-5.57953 -2.66553,-6.04156 -2.69071,-7.01546 -0.15626,-6.0429 1.19461,0.45843 3.8328,-0.66061 6.5625,-2.78357 2.51064,-1.9526 5.58863,-3.92238 6.83998,-4.37728 3.78301,-1.37523 2.19452,-6.32415 -2.27518,-7.08826 -2.68955,-0.45979 -3.86316,-1.43572 -4.15017,-3.45112 -0.57505,-4.03808 3.32236,-5.19712 6.0692,-1.80492 2.06362,2.54847 2.24021,2.56632 4.18031,0.42253 2.74041,-3.02814 2.60672,-3.58896 -1.72434,-7.2333 -4.11585,-3.46326 -4.66802,-5.61518 -2.00744,-7.82328 1.34264,-1.11428 2.18502,-1.00377 3.67032,0.48153 1.19058,1.19059 2.22541,1.44609 2.7062,0.66815 0.42816,-0.69278 1.87027,-1.25959 3.2047,-1.25959 2.97626,0 3.44602,-5.93712 0.55745,-7.04557 -1.40293,-0.53835 -1.68019,-1.89643 -1.11227,-5.44804 0.6058,-3.78846 0.23105,-5.25638 -1.88122,-7.36865 -3.39259,-3.39259 -3.32106,-4.56805 0.51115,-8.40026 1.73189,-1.73189 2.86309,-3.61134 2.51376,-4.17655 -0.90455,-1.46359 2.71773,-4.18692 4.2826,-3.21977 1.82754,1.12948 1.62811,4.36322 -0.31506,5.10889 -2.1141,0.81125 -1.24586,8.69036 1.17944,10.70318 2.03782,1.69125 3.57177,0.62878 5.93456,-4.1105 1.53859,-3.0861 5.82091,-3.97243 6.68392,-1.38338 0.2813,0.84389 -0.93745,2.87714 -2.70832,4.51834 -1.77089,1.64119 -3.21979,3.68279 -3.21979,4.53689 0,0.8668 -0.82841,1.23501 -1.875,0.83338 -1.43419,-0.55035 -1.875,0.25428 -1.875,3.42254 0,4.86054 3.68545,9.09405 5.94753,6.83198 2.34793,-2.34794 9.05247,1.09628 9.05247,4.6504 0,4.11571 -2.36222,5.0501 -4.61956,1.8273 -2.70134,-3.85672 -4.3966,-1.50994 -3.40206,4.70955 1.04887,6.55935 4.13576,9.35118 10.33946,9.35118 8.48051,0 9.9206,-2.9448 4.55716,-9.31887 -1.71875,-2.04261 -3.125,-4.2 -3.125,-4.79418 0,-1.78612 2.84441,-2.98338 6.43744,-2.70961 3.36695,0.25656 3.37441,0.2387 1.48362,-3.55149 -1.49636,-2.99953 -1.58013,-4.19516 -0.39407,-5.62428 0.82845,-0.99823 1.96676,-1.53035 2.52957,-1.18252 0.56282,0.34783 1.2022,-0.92398 1.42087,-2.82627 0.31295,-2.72253 1.12922,-3.54288 3.83507,-3.85421 3.51491,-0.40444 4.88758,-4.18574 2.13665,-5.8859 -0.71546,-0.44219 -0.97384,-1.83429 -0.57415,-3.09358 0.39969,-1.25929 0.14131,-2.65139 -0.57415,-3.09357 -0.71553,-0.44219 -1.3009,-2.47593 -1.3009,-4.51943 0,-4.28612 2.89616,-6.0216 6.39863,-3.83428 3.4738,2.16943 3.9856,1.80589 3.17356,-2.25426 -0.40716,-2.03583 -0.19623,-4.03779 0.46875,-4.44876 0.66498,-0.41099 1.20906,-3.20739 1.20906,-6.21424 0,-4.23407 0.52489,-5.63359 2.32746,-6.2057 1.75926,-0.55837 2.2933,-1.87586 2.1875,-5.39674 -0.15897,-5.2907 3.01041,-6.67886 4.17869,-1.83022 0.37474,1.55529 2.5236,3.94624 4.77524,5.31323 2.67965,1.62681 4.35668,3.79937 4.85462,6.28901 0.49785,2.4893 2.01143,4.45036 4.38031,5.67536 3.85507,1.99354 7.97734,1.07471 4.3317,-0.96549 -1.32863,-0.74355 -2.03552,-2.80334 -2.03552,-5.9313 0,-4.06835 0.45401,-4.87896 3.00584,-5.36677 1.6532,-0.31603 3.9089,-0.0692 5.01267,0.54849 1.41469,0.7917 2.22698,0.54942 2.7529,-0.82113 0.41034,-1.06931 2.02325,-1.9442 3.58427,-1.9442 3.41521,0 6.20024,-2.99829 5.20183,-5.60014 -0.3972,-1.03509 0.30263,-2.87037 1.55518,-4.07841 3.32551,-3.20735 4.37829,-10.20708 1.94035,-12.90096 -2.54469,-2.81185 -0.85714,-3.76552 4.98547,-2.81739 5.96257,0.9676 6.72766,3.11206 3.36076,9.41983 -1.97586,3.70172 -2.50041,6.27196 -1.95522,9.5805 1.36336,8.27373 3.11246,11.39657 6.38321,11.39657 1.66319,0 4.68869,1.23079 6.72335,2.73507 3.7439,2.76798 5.0061,7.14434 2.13689,7.40912 -0.85938,0.0793 -2.40625,0.21992 -3.4375,0.3125 -1.30436,0.11712 -1.76366,1.30958 -1.50916,3.91831 1.55345,15.9235 1.97085,17.16331 4.81941,14.31475 0.91221,-0.91221 0.91386,-2.79535 0.005,-6.19873 -1.25632,-4.70683 -1.13087,-5.05738 3.37639,-9.43478 5.85046,-5.68189 9.51176,-5.25182 11.91702,1.39982 2.03293,5.62196 0.0769,8.80735 -2.97942,4.85175 -1.86174,-2.40959 -1.89775,-2.40942 -3.77154,0.0166 -2.06026,2.6675 -1.86937,4.96006 0.43351,5.2068 0.80209,0.0859 2.0847,0.22656 2.85027,0.3125 0.92166,0.1035 1.12138,1.96035 0.59117,5.49607 -0.5722,3.81571 -0.26728,6.04559 1.06832,7.8125 1.85519,2.45433 1.86937,2.45365 1.90883,-0.0899 0.0526,-3.39669 2.37094,-5.5625 5.95398,-5.5625 3.68788,0 4.79068,2.81987 3.16912,8.10342 -1.43341,4.67046 -1.09281,5.44831 3.72915,8.51676 2.23605,1.42292 3.4375,3.2696 3.4375,5.28363 0,2.23147 0.67761,3.09619 2.42623,3.09619 1.33442,0 2.77387,0.5625 3.19877,1.25 0.4249,0.6875 1.86435,1.25 3.19878,1.25 1.33442,0 2.42622,0.5625 2.42622,1.25 0,0.6875 -0.77906,1.25 -1.73124,1.25 -0.95217,0 -2.71528,1.50185 -3.91801,3.33743 -1.71744,2.62115 -1.88244,3.82478 -0.76876,5.60804 0.77991,1.24884 1.41801,3.31605 1.41801,4.59383 0,2.76812 4.32923,7.0228 6.05843,5.9541 1.89603,-1.17182 5.19157,0.56078 5.19157,2.72941 0,1.07544 -0.85731,2.90265 -1.90514,4.06049 -2.88352,3.18626 -1.05643,6.51671 3.07704,5.60885 6.50593,-1.42894 10.22358,7.32321 3.82179,8.99731 -1.72293,0.45055 -2.49369,1.70625 -2.49369,4.06259 0,1.87576 -1.125,4.42858 -2.5,5.67295 -3.90859,3.53722 -3.22509,6.64668 1.5625,7.1083 3.59311,0.34643 4.03433,0.79608 3.81863,3.89165 -0.20509,2.94322 0.14272,3.37726 2.18652,2.72857 1.8363,-0.58281 2.73379,0.0266 3.67148,2.49289 1.03723,2.72814 1.90992,3.20385 5.31347,2.89642 4.24694,-0.3836 6.46549,1.79449 2.63345,2.58543 -3.15312,0.65081 -8.7773,7.05809 -9.49612,10.81835 -0.51805,2.71006 0.0448,3.48126 3.63553,4.98159 l 4.24848,1.77512 -1.81544,4.34496 c -0.99849,2.38974 -1.51124,5.50823 -1.13944,6.93 0.3718,1.42177 -0.0505,3.46037 -0.93837,4.53023 -1.36088,1.63975 -1.08538,2.43571 1.7545,5.069 2.33841,2.16829 4.15271,2.87501 5.93142,2.31047 4.76593,-1.51263 10.02733,5.9759 5.43639,7.73762 -1.54343,0.59226 -1.09003,1.48042 2.1875,4.28496 2.27397,1.94581 5.17905,3.5607 6.45574,3.58864 1.5943,0.0349 2.08362,0.67 1.5625,2.02803 -0.41732,1.08748 -0.75874,2.19483 -0.75874,2.46077 0,0.26595 -0.76983,0.18812 -1.71073,-0.17293 -0.9981,-0.38301 -1.97631,0.35914 -2.34828,1.78159 -0.38587,1.47552 -2.17795,2.77639 -4.53928,3.29501 -3.76126,0.82611 -3.90171,1.09186 -3.90171,7.38265 0,3.58911 0.61461,7.14029 1.3658,7.89148 0.98774,0.98773 0.97281,2.1001 -0.0539,4.01855 -1.14443,2.1384 -1.04571,2.79626 0.5092,3.39293 3.1268,1.19987 5.6789,-0.47608 5.6789,-3.72932 0,-3.98888 3.72638,-5.43116 6.29622,-2.43695 2.71616,3.16472 7.31662,5.6213 8.80473,4.7016 0.78892,-0.48758 0.94102,0.53321 0.41277,2.77015 -1.2257,5.19041 -2.51982,6.10401 -6.00459,4.23901 -2.51466,-1.3458 -3.71216,-1.33079 -6.91449,0.0867 -2.65769,1.17641 -3.628,2.30313 -3.09205,3.59046 1.72684,4.14787 1.83925,5.84678 0.60213,9.10067 C 732.28185,446.98654 730.76922,447.14284 728.16521,443.4375 z m -42.41,-148.09896 c -1.27065,-1.27064 -2.31906,0.64236 -1.27652,2.32922 0.78754,1.27428 1.08197,1.27526 1.50537,0.005 C 686.27356,296.80432 686.17057,295.7539 685.75521,295.33854 Z M 572.5,257.5 c 0,-0.6875 -0.5625,-1.25 -1.25,-1.25 -0.6875,0 -1.25,0.5625 -1.25,1.25 0,0.6875 0.5625,1.25 1.25,1.25 C 571.9375,258.75 572.5,258.1875 572.5,257.5 z m 46.82161,-52.41363 c 0.39555,-0.64 0.14749,-1.51695 -0.55122,-1.94877 C 618.07168,202.70578 617.5,203.2294 617.5,204.30122 617.5,206.49689 618.25007,206.82017 619.32161,205.08637 z m -83.89026,234.23472 c -0.40711,-1.0609 -0.41371,-2.25539 -0.0147,-2.65443 1.26137,-1.2613 4.5834,0.67328 4.5834,2.66911 C 540,441.83082 536.38998,441.81924 535.43135,439.32109 z m -79.169,-6.21097 c 0.86265,-1.03943 2.56952,-3.71131 3.79305,-5.9375 1.22353,-2.2262 3.46896,-6.29762 4.98985,-9.04762 1.53184,-2.76977 2.86551,-7.54231 2.99001,-10.6997 0.20444,-5.1846 2.04369,-8.87537 8.22469,-16.50421 0.42507,-0.52464 2.62465,-0.30837 4.88795,0.48062 3.82874,1.3347 4.31669,1.18364 7.01233,-2.17108 2.66395,-3.31531 2.97162,-3.41504 3.82107,-1.23875 0.68368,1.75157 -0.0469,3.21385 -2.81024,5.625 -5.08297,4.4351 -7.12236,9.44438 -5.13837,12.62126 1.24322,1.99074 1.0194,3.43002 -1.26449,8.13095 -1.52631,3.14161 -3.75794,6.02898 -4.95916,6.41639 -5.89462,1.90102 -9.30209,4.22752 -13.95364,9.52702 C 461.59249,432.89062 458.60541,435 457.21745,435 455.10719,435 454.95076,434.69049 456.26235,433.11012 Z M 656.25,428.98891 c 0,-1.2436 0.82586,-3.35297 1.83525,-4.6875 1.79582,-2.3743 1.8361,-2.36821 1.875,0.28385 0.0515,3.50763 -1.17734,6.66474 -2.59399,6.66474 C 656.75233,431.25 656.25,430.23251 656.25,428.98891 z m -27.025,-0.80405 c -0.86171,-2.24561 0.53506,-4.7307 2.11137,-3.75647 C 632.92032,425.40731 632.81679,430 631.21077,430 630.50169,430 629.6081,429.18319 629.225,428.18486 Z M 437.5,421.88451 c 0,-4.80532 11.13411,-12.5004 13.9756,-9.65891 0.94869,0.94869 -0.25035,2.81015 -4.13204,6.41487 C 441.76101,423.82469 437.5,425.22894 437.5,421.88451 z m 103.78975,-0.32201 c 0.0219,-0.51563 0.94129,-2.0625 2.04317,-3.4375 1.7606,-2.19701 1.90728,-2.2225 1.21024,-0.21026 -0.43623,1.25935 -0.79316,2.80622 -0.79316,3.4375 0,0.63126 -0.5625,1.14776 -1.25,1.14776 C 541.8125,422.5 541.26789,422.07812 541.28975,421.5625 Z M 498.75,418.19877 c 0,-0.99067 0.5625,-2.14887 1.25,-2.57377 0.6875,-0.4249 1.25,0.38565 1.25,1.80123 C 501.25,418.8418 500.6875,420 500,420 499.3125,420 498.75,419.18945 498.75,418.19877 z m 30.27271,0.3581 c 0.64879,-1.94637 3.44531,-2.28723 3.54331,-0.43187 0.0362,0.6875 -0.87221,1.44435 -2.01896,1.68187 C 529.24368,420.07686 528.67224,419.60827 529.02271,418.55687 Z M 562.5,413.125 c 0,-1.03125 0.84375,-1.875 1.875,-1.875 1.03125,0 1.875,0.84375 1.875,1.875 0,1.03125 -0.84375,1.875 -1.875,1.875 C 563.34375,415 562.5,414.15625 562.5,413.125 Z M 434.58334,404.16666 C 434.125,403.70834 433.75,401.51851 433.75,399.3004 c 0,-5.32565 2.8196,-6.25988 7.17084,-2.37596 l 3.45416,3.0832 -2.95097,2.49617 C 438.39525,405.0658 436.05206,405.63539 434.58334,404.16666 Z M 406.25,393.125 c 0,-1.04166 1.11111,-1.875 2.5,-1.875 1.38889,0 2.5,0.83334 2.5,1.875 0,1.04166 -1.11111,1.875 -2.5,1.875 C 407.36111,395 406.25,394.16666 406.25,393.125 z m 330.88606,-13.9056 c -1.31185,-1.31185 -1.07455,-6.45536 0.3381,-7.32844 2.27559,-1.40639 6.44864,1.88006 6.03919,4.75611 C 743.12929,379.34487 738.94806,381.0314 737.13606,379.2194 z m -14.59209,-6.63723 C 720.86345,369.44209 720.88091,365 722.57378,365 c 0.72807,0 0.92693,-0.64209 0.44192,-1.42686 -0.48503,-0.78478 -1.08106,-3.8182 -1.32455,-6.74096 -0.57494,-6.90171 2.53062,-8.61358 6.74269,-3.71675 3.0259,3.51782 4.01282,13.49745 1.48906,15.05722 -0.72991,0.45111 -1.84099,2.17181 -2.46906,3.82377 C 726.07361,375.62668 724.28739,375.83978 722.54397,372.58217 z m 6.66127,-36.94881 c -0.43295,-1.12827 -0.18782,-2.65079 0.54476,-3.38336 1.90451,-1.90451 5.51301,-0.16386 5.01553,2.41936 C 734.2114,337.54671 730.20595,338.24115 729.20524,335.63336 Z M 468.75,308.125 c 0,-1.03125 0.84375,-1.875 1.875,-1.875 1.03125,0 1.875,0.84375 1.875,1.875 0,1.03125 -0.84375,1.875 -1.875,1.875 C 469.59375,310 468.75,309.15625 468.75,308.125 z m 250,-0.53335 c 0,-1.78886 0.80279,-2.59165 2.59165,-2.59165 1.78888,0 2.46202,0.67315 2.17315,2.17315 C 722.88729,310.43156 718.75,310.79496 718.75,307.59165 Z M 502.5,300 c 0,-0.6875 0.5957,-1.25 1.32377,-1.25 0.72808,0 0.97613,0.5625 0.55123,1.25 -0.4249,0.6875 -1.0206,1.25 -1.32377,1.25 C 502.74805,301.25 502.5,300.6875 502.5,300 z m -49.44231,-3.85891 c -1.18129,-1.91136 1.38237,-4.12343 3.73328,-3.2213 1.07747,0.41346 1.95903,1.61315 1.95903,2.66598 C 458.75,297.77037 454.33107,298.20146 453.05769,296.14109 z m 41.95552,-0.50018 C 492.96973,293.17867 494.30146,290 497.37654,290 c 2.53692,0 4.63093,4.0131 3.25537,6.23881 C 499.4991,298.07175 496.7915,297.78364 495.01321,295.64091 Z M 706.25,289.92622 c 0,-0.72807 0.5625,-0.97612 1.25,-0.55122 0.6875,0.4249 1.25,1.0206 1.25,1.32377 0,0.30318 -0.5625,0.55123 -1.25,0.55123 C 706.8125,291.25 706.25,290.6543 706.25,289.92622 Z M 502.517,288.7605 c -2.32246,-1.43535 -0.57875,-5.0105 2.44377,-5.0105 1.65805,0 2.53923,0.82115 2.53923,2.36626 C 507.5,288.84686 504.89415,290.22966 502.517,288.7605 Z M 445,278.75 c 0,-0.6875 0.5625,-1.25 1.25,-1.25 0.6875,0 1.25,0.5625 1.25,1.25 0,0.6875 -0.5625,1.25 -1.25,1.25 C 445.5625,280 445,279.4375 445,278.75 z m 37.5,-8.125 c 0,-1.03125 0.84375,-1.875 1.875,-1.875 1.03125,0 1.875,0.84375 1.875,1.875 0,1.03125 -0.84375,1.875 -1.875,1.875 C 483.34375,272.5 482.5,271.65625 482.5,270.625 Z M 510,270 c 0,-0.6875 0.5625,-1.25 1.25,-1.25 0.6875,0 1.25,0.5625 1.25,1.25 0,0.6875 -0.5625,1.25 -1.25,1.25 C 510.5625,271.25 510,270.6875 510,270 z m -60,-10 c 0,-0.6875 0.84375,-1.25 1.875,-1.25 1.03125,0 1.875,0.5625 1.875,1.25 0,0.6875 -0.84375,1.25 -1.875,1.25 C 450.84375,261.25 450,260.6875 450,260 z m 5.41979,-5.70903 c -1.13363,-2.95417 1.52617,-5.0569 3.90223,-3.08493 1.06039,0.88003 1.92798,2.37495 1.92798,3.32201 C 461.25,256.90391 456.34595,256.7045 455.41979,254.29097 z m 229.59555,-18.01232 c -1.04549,-1.9535 -0.81222,-2.98178 1.11325,-4.90724 3.1261,-3.1261 7.62141,-2.15325 7.62141,1.64938 C 693.75,238.54557 687.4801,240.88411 685.01534,236.27865 Z M 696.875,227.5 c -0.49894,-0.80731 -0.34468,-2.03033 0.34283,-2.71783 0.83333,-0.83333 1.5524,-0.76072 2.15717,0.21783 0.49894,0.80731 0.34468,2.03032 -0.34283,2.71782 C 698.19884,228.55116 697.47978,228.47855 696.875,227.5 z m -15.625,-6.25 c 0,-0.6875 0.5625,-1.25 1.25,-1.25 0.6875,0 1.25,0.5625 1.25,1.25 0,0.6875 -0.5625,1.25 -1.25,1.25 C 681.8125,222.5 681.25,221.9375 681.25,221.25 z m -75.7545,-24.26174 c -0.46005,-1.19887 -2.22714,-2.7085 -3.92684,-3.35473 -2.5892,-0.9844 -2.83494,-1.48277 -1.51522,-3.07292 1.37566,-1.65757 2.0513,-1.41096 5.33445,1.94713 2.78681,2.85041 3.39516,4.20921 2.35167,5.2527 C 606.69609,198.80391 606.11558,198.60416 605.4955,196.98826 Z M 585.475,179.43486 C 584.58474,177.11485 585.88361,175 588.19877,175 589.28675,175 590,176.23744 590,178.125 590,181.55964 586.66123,182.52611 585.475,179.43486 Z M 598.75,170.625 c 0,-1.14584 0.60469,-1.88177 1.34375,-1.63541 0.73906,0.24635 1.34375,0.98228 1.34375,1.63541 0,0.65313 -0.60469,1.38906 -1.34375,1.63541 C 599.35469,172.50677 598.75,171.77084 598.75,170.625 z m 27.5,-11.68126 c 0,-2.80378 3.78481,-6.44374 6.70016,-6.44374 3.59375,0 4.00322,3.82915 0.68245,6.38215 C 629.7221,161.88856 626.25,161.91752 626.25,158.94374 z m -5.3125,-8.5554 c -2.83895,-0.74189 -2.77486,-3.13601 0.18166,-6.78718 2.01814,-2.49229 2.88274,-2.74431 5.83536,-1.70097 4.49273,1.58755 4.92517,3.20251 1.76564,6.59387 C 626.1694,151.23199 625.132,151.48449 620.9375,150.38834 Z"
       id="path823"
       inkscape:connector-curvature="0" />
    <path
       style="fill:#ff6600"
       d="m 281.25,591.32377 c 0,-0.64692 0.5625,-1.52387 1.25,-1.94877 0.6875,-0.4249 1.25,0.10437 1.25,1.17623 0,1.07182 -0.5625,1.94877 -1.25,1.94877 C 281.8125,592.5 281.25,591.9707 281.25,591.32377 z m 475.83334,-0.90711 c -1.29309,-1.29307 -0.98165,-7.67745 0.41666,-8.54166 0.75491,-0.46656 1.25,1.23703 1.25,4.30123 C 758.75,591.35776 758.54529,591.87861 757.08334,590.41666 z m -12.71528,-5.42432 c -2.78281,-3.07498 -1.96602,-4.12829 2.35944,-3.04266 2.08718,0.52385 3.2725,1.67777 3.2725,3.18583 C 750,588.22361 747.22856,588.15315 744.36806,584.99234 z m 163.70554,1.1745 c -1.15042,-1.86144 0.18341,-2.87349 2.57671,-1.95509 1.10448,0.42383 1.65804,1.33706 1.23015,2.02942 C 910.86724,587.8806 909.11158,587.84631 908.0736,586.16684 z m -181.72491,-13.146 c 0.06,-1.45619 0.35617,-1.75238 0.7552,-0.75522 0.36109,0.90234 0.31668,1.98048 -0.0986,2.39584 C 726.58985,575.07682 726.29441,574.33854 726.34869,573.02084 Z M 736.25,571.25 c 0,-1.375 0.5625,-2.5 1.25,-2.5 0.6875,0 1.25,1.125 1.25,2.5 0,1.375 -0.5625,2.5 -1.25,2.5 C 736.8125,573.75 736.25,572.625 736.25,571.25 z m 0.63356,-6.23614 c -0.60491,-0.97877 -0.17568,-2.04572 1.11316,-2.767 1.93172,-1.08103 1.89292,-1.50535 -0.49027,-5.36142 -1.42341,-2.30313 -2.07089,-4.50709 -1.43886,-4.8977 1.38162,-0.85389 3.31532,1.37175 4.47195,5.14709 C 741.58166,560.53647 738.38034,567.43569 736.88356,565.01386 Z M 889.0625,564.17215 C 887.32094,563.46941 886.89998,560 888.55626,560 c 0.58095,0 2.07438,1.125 3.31874,2.5 C 894.15039,565.01427 892.93714,565.7356 889.0625,564.17215 Z M 726.25,561.80123 c 0,-1.07183 0.57168,-1.59545 1.27039,-1.16363 0.69871,0.43183 0.94677,1.30877 0.55122,1.94877 C 727.00007,564.32018 726.25,563.99689 726.25,561.80123 z m 97.4427,-3.15829 c -0.76739,-1.43388 -1.0708,-2.9315 -0.67426,-3.32805 C 824.27558,554.05776 830,557.36481 830,559.3482 830,562.17865 825.30394,561.65356 823.6927,558.64294 Z M 725.45204,555.625 c -0.96065,-2.5034 0.457,-5.98328 2.03913,-5.00546 1.65642,1.02372 1.63053,6.88046 -0.0304,6.88046 C 726.75169,557.5 725.84776,556.65625 725.45204,555.625 Z M 321.25,551.40305 c 0,-1.84465 3.55589,-4.17056 5.00594,-3.27438 0.97555,0.60292 0.94747,1.34753 -0.0983,2.60762 C 324.54184,552.68321 321.25,553.13046 321.25,551.40305 z m 409,-4.15305 c -0.825,-0.825 -1.5,-2.5125 -1.5,-3.75 0,-2.40432 -3.08182,-3.0924 -4.3876,-0.97961 -1.14789,1.85731 -3.1124,0.2199 -3.1124,-2.59416 0,-1.50532 0.8562,-2.42623 2.25572,-2.42623 C 726.0309,537.5 735,545.19081 735,547.35609 735,549.20075 732.1368,549.1368 730.25,547.25 z m 79.125,0.25 c -0.4249,-0.6875 0.10437,-1.25 1.17622,-1.25 1.07183,0 1.94878,0.5625 1.94878,1.25 0,0.6875 -0.5293,1.25 -1.17622,1.25 C 810.67685,548.75 809.7999,548.1875 809.375,547.5 Z M 797.5,538.125 c 0,-1.03125 -0.44123,-1.875 -0.98049,-1.875 -1.18016,0 -5.26951,-6.69751 -5.26951,-8.63036 0,-3.04282 4.93242,-1.14905 7.39805,2.8404 C 801.70836,535.41174 802.058,540 799.375,540 798.34375,540 797.5,539.15625 797.5,538.125 Z M 389.375,533.75 c -1.24246,-2.01035 0.53141,-3.75 3.82377,-3.75 2.6645,0 3.05123,-0.56493 3.05123,-4.45718 0,-5.41773 1.90186,-9.29282 4.56085,-9.29282 1.44926,0 1.8367,0.92796 1.45975,3.49627 -0.47088,3.20833 -0.2252,3.454 2.98313,2.98313 1.92295,-0.28224 3.49627,0.0151 3.49627,0.66084 0,2.26251 -5.81564,6.60976 -8.84237,6.60976 -1.70251,0 -3.74783,1.10736 -4.61754,2.5 C 393.62134,535.1721 390.6429,535.80151 389.375,533.75 z m 450.20834,-12.08334 c -0.45834,-0.45832 -0.83334,-1.58332 -0.83334,-2.5 0,-2.21267 3.29925,-2.14429 4.15514,0.0861 C 843.9151,521.88472 841.53266,523.61599 839.58334,521.66666 z m -95.55674,-7.36362 c -1.52882,-1.07083 -3.97876,-4.57912 -5.44432,-7.79621 -1.46555,-3.21709 -3.57335,-6.51372 -4.68399,-7.32584 -1.11065,-0.81213 -1.5873,-1.90864 -1.05923,-2.43671 0.95091,-0.95093 18.41094,16.60749 18.41094,18.51469 C 751.25,516.92834 746.96515,516.36129 744.0266,514.30304 z m 30.44059,-4.20118 c -3.19698,-3.53261 -1.91263,-5.41119 1.78281,-2.60764 2.22854,1.6907 2.74001,2.75722 1.78296,3.71783 C 777.07456,512.17401 776.05525,511.85666 774.46719,510.10186 z m 46.47031,-3.18877 c -3.30714,-4.54815 -2.62005,-6.49488 0.9375,-2.65622 3.07915,3.32247 4.02192,5.7807 2.1875,5.70385 C 823.54687,509.93911 822.14062,508.56767 820.9375,506.91309 z m -312.90431,-4.8266 C 507.10367,499.66421 510.58254,495 513.31874,495 c 2.37761,0 2.03632,1.33055 -1.4289,5.57054 C 509.26062,503.7876 508.76129,503.98387 508.03319,502.08649 z m 261.56257,0.72601 c -0.30347,-0.51563 -0.93105,-2.7073 -1.39461,-4.87039 -0.46358,-2.16309 -1.93596,-4.92214 -3.272,-6.13124 -2.42085,-2.19082 -3.304,-5.56087 -1.45729,-5.56087 3.92224,0 9.02814,9.14984 9.02814,16.17852 C 772.5,503.94181 770.42213,504.21652 769.59576,502.8125 Z M 516.89634,490.03451 c -0.49019,-0.79312 0.007,-2.43526 1.10621,-3.6492 2.709,-2.99341 2.51195,-3.91132 -0.76381,-3.55807 -1.73375,0.18696 -2.92341,-0.47829 -3.19701,-1.78775 -0.36671,-1.755 0.66517,-2.07561 6.51126,-2.02308 4.42001,0.0397 6.94701,0.59238 6.94701,1.51933 C 527.5,483.0364 517.8911,491.64408 516.89634,490.03451 z m 150.82371,-4.72201 c -1.81181,-3.54528 -2.84836,-10.53935 -1.43229,-9.66416 1.2782,0.78997 4.96224,8.77414 4.96224,10.75431 C 671.25,488.31744 668.88197,487.58612 667.72005,485.3125 z m 86.75926,-6.11641 c -1.04647,-2.72706 0.34298,-3.99463 1.81951,-1.65989 1.47818,2.33732 1.50964,3.7138 0.0849,3.7138 C 755.76979,481.25 754.9128,480.32574 754.47931,479.19609 Z M 431.25,478.19877 c 0,-2.01758 1.77037,-3.51173 2.86453,-2.41758 C 435.09,476.75666 433.74596,480 432.36626,480 431.75232,480 431.25,479.18945 431.25,478.19877 z m 229.44587,-9.72691 c -1.07022,-1.52796 -1.94587,-3.69079 -1.94587,-4.80626 0,-1.11548 -1.17144,-3.08826 -2.60319,-4.38399 -1.43176,-1.29572 -3.40051,-4.2641 -4.375,-6.59638 -2.15361,-5.15433 -2.15487,-5.18554 -0.20931,-5.18395 0.85937,7e-4 3.20217,2.95382 5.20621,6.5625 2.00404,3.60867 4.67592,7.90271 5.9375,9.5423 2.43365,3.16283 3.0871,7.64392 1.11466,7.64392 C 663.17236,471.25 661.76611,469.99984 660.69587,468.47186 z m 83.86026,-0.0344 c -2.41902,-3.88435 -3.91888,-12.05025 -1.82957,-9.96094 2.0485,2.0485 4.55608,1.91938 6.82701,-0.35156 2.28304,-2.28305 4.15042,-2.41785 4.32888,-0.3125 0.23856,2.81421 -0.26596,9.01714 -0.91504,11.25 C 752.04432,472.23802 746.67445,471.83902 744.55613,468.4375 z m 5.57362,-6.30775 c -1.60436,-1.60436 -3.23131,-0.36438 -2.04355,1.55747 0.4601,0.74445 1.40919,0.99964 2.10909,0.56708 C 751.04904,463.72665 751.02748,463.02748 750.12975,462.12975 z m -33.04641,5.78691 c -0.45834,-0.45831 -0.83334,-1.41456 -0.83334,-2.12499 0,-0.78325 0.58221,-0.70945 1.47916,0.1875 0.81355,0.81355 1.18855,1.7698 0.83334,2.125 C 718.20729,468.45937 717.54166,468.375 717.08334,467.91666 Z M 752.5,452.44545 c 0,-1.92455 6.02586,-8.08626 6.97741,-7.13471 0.44844,0.44845 -0.51615,2.49961 -2.14353,4.55815 C 754.2639,453.75221 752.5,454.6924 752.5,452.44545 Z M 525,449.52805 c 0,-0.94706 0.8371,-2.41666 1.86021,-3.26577 1.51234,-1.25513 2.01392,-1.14329 2.68214,0.5981 0.4811,1.25372 0.0985,2.60003 -0.9227,3.24663 C 526.12643,451.68571 525,451.50554 525,449.52805 z m -76.0625,-0.71555 c 0.275,-0.825 0.90781,-1.45781 1.40625,-1.40625 1.49462,0.15461 1.20517,1.86911 -0.40625,2.40625 C 449.1125,450.0875 448.6625,449.6375 448.9375,448.8125 z m 291.28806,-1.52709 c 0.58885,-4.00187 3.52444,-4.43047 3.52444,-0.51457 0,2.10062 -0.68566,3.22916 -1.96194,3.22916 C 740.48514,450 739.9603,449.08817 740.22556,447.28541 z m -10.65307,-5.62959 c -0.45236,-0.45237 -0.82249,-1.85373 -0.82249,-3.11416 0,-2.7011 3.17678,-3.08842 4.16696,-0.50805 C 733.6657,439.98479 730.89848,442.98181 729.57249,441.65582 z m -137.48915,-2.48916 c -1.50565,-1.50564 -0.87095,-6.32934 1.04166,-7.91666 1.6151,-1.34041 1.875,-0.84182 1.875,3.59695 C 595,439.67508 594.02934,441.11267 592.08334,439.16666 Z M 461.25,428.27254 c 0,-1.03125 0.5625,-2.22264 1.25,-2.64754 0.6875,-0.4249 1.25,0.0713 1.25,1.10246 0,1.03125 -0.5625,2.22264 -1.25,2.64754 C 461.8125,429.7999 461.25,429.30379 461.25,428.27254 z m 250.3125,-7.57175 c -2.23438,-2.18038 -4.0625,-5.15495 -4.0625,-6.61015 0,-1.54017 -2.08945,-4.43433 -5,-6.92564 -2.75,-2.3539 -5,-4.89579 -5,-5.64864 0,-2.89383 -2.67543,-2.76893 -8.04079,0.37537 -4.52815,2.65368 -6.05805,3.00953 -8.1425,1.89397 -1.88064,-1.00649 -3.28339,-0.9901 -5.24791,0.0612 -1.70198,0.91086 -5.31729,1.1367 -9.89894,0.61835 -6.63139,-0.75026 -7.73756,-0.49674 -13.61687,3.12085 -8.23514,5.06713 -15.9159,7.33906 -24.46599,7.23694 -5.99365,-0.0716 -7.21615,-0.53781 -9.95964,-3.79828 C 616.40731,408.98069 615,406.56105 615,405.64787 c 0,-0.91317 -2.67188,-3.23971 -5.9375,-5.17008 -4.6947,-2.77513 -7.55887,-3.53173 -13.68363,-3.61463 -6.53323,-0.0884 -8.19688,-0.58541 -10.625,-3.17396 -1.58337,-1.68801 -5.21493,-4.1132 -8.07013,-5.38933 -5.11385,-2.28562 -5.29642,-2.28087 -12.2432,0.31825 -6.54832,2.45004 -7.32124,2.4992 -10.82278,0.68849 -4.65612,-2.40777 -11.22622,-0.66716 -15.6991,4.15915 -2.83511,3.05915 -3.068,3.09415 -10.33032,1.55299 -4.0864,-0.8672 -9.43423,-1.20069 -11.88408,-0.74109 -3.89115,0.72998 -4.45426,0.52174 -4.45426,-1.64725 0,-1.36557 -0.5625,-2.83051 -1.25,-3.25541 -0.6875,-0.4249 -1.25,-2.4445 -1.25,-4.488 0,-4.04041 2.9753,-6.1617 5.33402,-3.80298 2.09632,2.09632 3.65754,1.71845 3.17844,-0.76927 -0.23146,-1.2019 -1.43133,-2.18627 -2.6664,-2.1875 -1.23506,-10e-4 -3.17925,-1.53806 -4.32041,-3.41515 -1.69045,-2.78062 -1.7768,-3.70694 -0.4661,-5 1.30199,-1.28446 1.90976,-1.17978 3.18736,0.54906 1.20475,1.63025 2.44297,1.905 5.22835,1.1601 4.44205,-1.18793 5.46497,-4.56843 1.68174,-5.55777 -2.34074,-0.61211 -2.60314,-1.30105 -1.90761,-5.00853 0.6814,-3.6322 0.41447,-4.40128 -1.72146,-4.95985 -2.82268,-0.73814 -3.50058,-4.64511 -0.80598,-4.64511 0.94706,0 2.42219,-0.84375 3.27805,-1.875 0.85586,-1.03125 3.2999,-1.875 5.43119,-1.875 l 3.87507,0 -2.80904,-1.96753 c -1.87532,-1.31352 -4.04526,-1.69601 -6.52813,-1.15068 -4.78133,1.05016 -4.9683,-1.45537 -0.5045,-6.76029 1.76802,-2.10118 2.90753,-4.31715 2.53225,-4.92438 -1.2122,-1.96137 2.06975,-17.02785 4.01982,-18.45386 2.1696,-1.58654 1.14722,-5.68776 -1.29437,-5.19236 -0.87851,0.17826 -1.59729,-0.51965 -1.59729,-1.5509 0,-1.03125 1.125,-1.89079 2.5,-1.91008 1.87734,-0.0264 2.41849,-0.76833 2.17271,-2.97911 -0.45645,-4.10592 2.00895,-6.68036 5.54704,-5.79235 2.15341,0.54048 2.90525,0.20005 2.90525,-1.31544 0,-1.44935 -0.75001,-1.84847 -2.5762,-1.37091 -3.39355,0.88744 -5.35681,-3.6715 -3.12521,-7.25711 0.85577,-1.375 1.93688,-4.04688 2.40248,-5.9375 0.46562,-1.89063 1.3301,-3.4375 1.92109,-3.4375 0.591,0 1.77353,-1.6875 2.62784,-3.75 1.83705,-4.43501 1.95279,-4.45536 7.1875,-1.2637 4.13742,2.52264 5.19346,5.88274 2.64868,8.42752 -0.77762,0.77762 -1.62709,4.29168 -1.88774,7.80904 l -0.4739,6.3952 4.22255,-0.79216 c 3.72671,-0.69913 4.75921,-0.23958 8.7927,3.91357 4.98267,5.13052 5.21178,7.16236 0.87923,7.79749 -1.90689,0.27955 -2.57854,1.01554 -2.08958,2.28974 0.39631,1.03278 0.72056,2.91951 0.72056,4.19276 0,1.83939 0.70621,2.19018 3.4375,1.70745 1.89062,-0.33415 4.52702,-1.6833 5.85866,-2.99811 2.34631,-2.31666 2.35064,-2.46849 0.13999,-4.91124 -1.83768,-2.0306 -1.98311,-2.87981 -0.7481,-4.36791 0.92496,-1.11451 1.21228,-3.30784 0.72434,-5.52945 -0.46761,-2.129 -0.25061,-4.02715 0.51442,-4.49997 0.72775,-0.44978 1.3269,-2.05021 1.33143,-3.55651 0.005,-1.5063 1.12582,-4.42622 2.49176,-6.48872 3.01963,-4.55949 3.12181,-6.61606 0.47407,-9.54176 -1.88244,-2.08009 -1.79392,-2.51433 1.25,-6.13184 1.80177,-2.14126 3.2844,-4.83442 3.29475,-5.98481 0.01,-1.15038 0.82942,-4.34159 1.82013,-7.09159 1.26517,-3.5118 1.81765,-4.16289 1.85619,-2.1875 0.0301,1.54687 0.61736,2.8125 1.30486,2.8125 0.6875,0 2.375,1.125 3.75,2.5 2.44932,2.44932 2.5,2.45082 2.5,0.0738 0,-1.33443 -0.59571,-2.7944 -1.32381,-3.24439 -0.7281,-0.45 -1.15683,-2.09249 -0.95272,-3.65 0.2041,-1.5575 -0.43923,-3.80821 -1.42965,-5.00157 -1.58253,-1.90685 -1.54283,-2.31408 0.32773,-3.3609 1.36776,-0.76544 2.12845,-2.74359 2.12845,-5.53496 0,-3.43215 -0.62816,-4.58265 -2.99298,-5.48175 -3.55881,-1.35304 -7.88312,-8.80018 -5.10998,-8.80018 0.93797,0 2.0697,0.58941 2.51492,1.30981 0.44524,0.7204 2.0253,1.14228 3.51128,0.9375 2.14578,-0.2957 2.64048,0.20645 2.404,2.44019 -0.36432,3.44105 1.07567,3.59661 3.9449,0.42616 1.98066,-2.18861 1.9989,-2.69714 0.22003,-6.13707 -1.06676,-2.0629 -2.59055,-3.96772 -3.38617,-4.23293 -1.05245,-0.35081 -0.983,-1.22455 0.2549,-3.20672 1.34265,-2.14993 1.37856,-3.04748 0.1703,-4.25574 -3.13196,-3.13196 -1.72863,-5.88168 3.75536,-7.35836 6.34694,-1.70905 9.06553,-0.42223 9.14259,4.32757 0.0386,2.38449 1.19879,4.03369 4.0625,5.77521 4.23021,2.57255 4.98534,4.74739 2.50835,7.22438 -1.13799,1.13799 -1.15004,1.84996 -0.0499,2.9501 1.10013,1.10014 2.05546,0.72305 3.95841,-1.5625 1.37957,-1.65692 2.52702,-3.65745 2.5499,-4.44561 0.0229,-0.78815 1.96358,-3.12054 4.31268,-5.18309 2.34912,-2.06254 4.45849,-5.07394 4.6875,-6.69199 0.274,-1.93587 1.37819,-3.07851 3.22891,-3.34135 1.54687,-0.21968 2.8125,-1.18427 2.8125,-2.14352 0,-0.95924 1.16131,-2.3656 2.58071,-3.12524 2.02367,-1.08304 2.27025,-1.75521 1.14238,-3.11421 -2.15112,-2.59195 -0.36081,-4.6059 2.504,-2.8168 1.29866,0.81102 2.10982,1.88132 1.80259,2.37844 -0.62027,1.00361 4.29968,9.99935 6.17614,11.29262 0.65586,0.45201 1.97809,0.52038 2.9383,0.15191 0.96021,-0.36846 2.86125,0.52733 4.22455,1.99065 1.36329,1.46333 3.0193,2.66059 3.68003,2.66059 0.66071,0 1.2013,0.6281 1.2013,1.39579 0,0.76768 -1.04512,1.12249 -2.32247,0.78845 -3.8645,-1.01059 -6.42753,1.32209 -6.42753,5.84982 0,2.2879 0.78727,4.8132 1.7495,5.61178 1.17156,0.97231 1.54166,3.00141 1.12036,6.14242 -0.45467,3.38983 -0.0631,5.16023 1.41215,6.38457 1.75532,1.45678 2.47391,1.28767 5.12964,-1.20726 2.84985,-2.6773 3.87221,-2.45682 3.05766,0.65943 -0.1797,0.6875 -0.67465,3.21875 -1.09989,5.625 -0.69065,3.90807 -1.23855,4.41786 -5.1338,4.77663 -5.9524,0.54822 -7.5147,2.36477 -4.29984,4.99959 1.40844,1.15433 2.93765,3.08316 3.39827,4.28628 1.5383,4.01803 7.73976,1.5595 8.67088,-3.4375 0.29354,-1.57524 1.35368,-2.41971 2.86602,-2.28296 4.10185,0.37091 6.74087,-1.93673 8.13477,-7.1133 0.99388,-3.69096 1.98496,-4.97874 3.83169,-4.97874 3.57627,0 4.11995,2.69488 1.87666,9.30231 -2.62825,7.74135 -2.52625,8.28024 1.5092,7.97275 5.96816,-0.45476 8.67348,3.13718 4.79015,6.36005 -0.95511,0.79269 -2.00211,2.83032 -2.32666,4.52807 -0.76963,4.02602 3.32676,4.29858 5.4338,0.36154 1.39437,-2.60542 1.53199,-2.62481 3.12894,-0.44084 2.02638,2.77125 1.30306,4.15998 -3.05843,5.87196 -3.1352,1.23062 -3.17735,1.35515 -0.77267,2.28306 5.62846,2.17191 6.98377,8.7611 1.80202,8.7611 -1.24415,0 -2.51321,0.70313 -2.82012,1.5625 -0.32459,0.90884 -1.02183,1.09871 -1.66668,0.45388 -0.64484,-0.64485 -0.45496,-1.34209 0.45388,-1.66668 2.15421,-0.76936 1.97404,-4.0997 -0.2218,-4.0997 -1.92986,0 -6.96573,5.73597 -6.96573,7.93411 0,0.74084 1.45526,2.50736 3.23392,3.92561 3.70496,2.95423 6.63719,14.17485 4.11207,15.73547 -0.77895,0.48141 -1.00711,1.53733 -0.50704,2.34648 0.65879,1.06594 1.58495,0.85968 3.36228,-0.74877 1.68417,-1.52416 4.82302,-2.30561 10.01451,-2.49324 l 7.56149,-0.27329 -0.78762,3.93806 c -0.43318,2.16593 -1.54958,4.36448 -2.4809,4.88567 -2.06443,1.15531 -1.89001,12.4978 0.20292,13.19544 0.76987,0.25662 2.62967,-0.19163 4.13288,-0.99613 2.63047,-1.40777 2.70137,-1.29345 1.88767,3.04394 -0.82394,4.39194 -0.74635,4.50665 3.04812,4.50665 3.3228,0 3.83503,0.4123 3.49414,2.8125 -0.54544,3.84046 -5.02768,4.27254 -10.54606,1.01661 -5.22543,-3.08307 -7.90668,-2.22596 -4.62231,1.47762 1.64933,1.85983 1.84224,2.70777 0.70643,3.10506 -2.82339,0.98759 -1.69429,4.08821 1.48872,4.08821 1.67818,0 3.38369,0.53794 3.79004,1.19541 0.40634,0.65748 1.56454,0.87854 2.57378,0.49127 2.77113,-1.06339 2.20047,1.77975 -0.66504,3.31332 -1.375,0.73588 -2.5,1.81243 -2.5,2.39233 0,1.89226 7.03435,4.02217 10.45139,3.16455 l 3.33575,-0.83722 -0.52885,6.70267 c -0.46855,5.93843 -0.8462,6.70267 -3.31218,6.70267 -3.93562,0 -6.00988,3.63456 -3.95348,6.92739 0.97333,1.55855 1.29278,4.1953 0.81612,6.73616 -1.00402,5.3519 1.25419,6.86035 3.4407,2.29834 1.15119,-2.40188 2.60569,-3.46189 4.75028,-3.46189 3.91751,0 4.93445,3.83069 1.32136,4.97744 -4.19801,1.3324 -2.95713,2.80451 3.36641,3.99371 5.54521,1.04282 5.92006,1.35461 5.6736,4.71893 -0.14515,1.98127 -0.70765,3.93027 -1.25,4.33112 -0.54236,0.40084 -2.04604,2.814 -3.34151,5.36259 -2.21439,4.35635 -2.2331,4.89155 -0.3125,8.93891 2.63519,5.55325 2.58907,8.06788 -0.14399,7.85091 -1.38475,-0.10987 -2.33362,0.858 -2.58694,2.63889 C 719.67526,426.06063 716.49599,425.51505 711.5625,420.70079 z m 8.25845,-24.31368 c 1.23756,-0.78416 1.30585,-1.31571 0.25265,-1.96662 C 718.28281,393.31372 715,394.47211 715,396.21077 715,397.76987 717.49466,397.86113 719.82095,396.38711 Z M 710,393.125 c 0,-1.03125 -0.5625,-1.875 -1.25,-1.875 -0.6875,0 -1.25,0.84375 -1.25,1.875 0,1.03125 0.5625,1.875 1.25,1.875 C 709.4375,395 710,394.15625 710,393.125 Z M 701.25,327.5 c 0,-0.6875 -0.24805,-1.25 -0.55122,-1.25 -0.30318,0 -0.89888,0.5625 -1.32378,1.25 -0.4249,0.6875 -0.17685,1.25 0.55122,1.25 C 700.6543,328.75 701.25,328.1875 701.25,327.5 z m -11.40484,-16.17496 1.93413,-2.91295 -4.05552,2.09718 c -2.23053,1.15347 -3.70432,2.66544 -3.2751,3.35994 C 685.55932,315.66627 687.60216,314.70317 689.84516,311.32504 Z M 580.93809,274.6875 c -0.28614,-0.85938 -1.58074,-1.768 -2.87688,-2.01918 -2.03887,-0.39509 -2.13068,-0.18442 -0.68086,1.5625 C 579.3631,276.6199 581.68054,276.91736 580.93809,274.6875 z m 92.94166,-2.55775 c -1.60436,-1.60436 -3.23131,-0.36438 -2.04355,1.55747 0.4601,0.74446 1.40919,0.99964 2.10909,0.56708 C 674.79904,273.72665 674.77748,273.02747 673.87975,272.12975 z m -6.80703,-5.31926 c 0.54182,-1.41195 1.72117,-1.72494 4.33577,-1.15068 4.71672,1.03596 4.6607,-1.03293 -0.15849,-5.85212 l -3.75,-3.75 0,3.0681 c 0,1.68746 -0.84375,3.76835 -1.875,4.62421 -2.1387,1.77496 -2.51653,5 -0.58578,5 C 665.74831,268.75 666.66337,267.87722 667.07272,266.81049 Z M 642.5,238.125 c 0,-1.03125 -0.5625,-1.875 -1.25,-1.875 -0.6875,0 -1.25,0.84375 -1.25,1.875 0,1.03125 0.5625,1.875 1.25,1.875 C 641.9375,240 642.5,239.15625 642.5,238.125 z m 95.09236,185.11129 c -0.94407,-1.13754 -1.02067,-2.03755 -0.21577,-2.53502 0.68639,-0.42421 1.85849,0.36947 2.60467,1.76372 C 741.52444,425.34844 739.8058,425.90332 737.59236,423.23629 z m -270.9792,-1.59289 c -0.43571,-1.13544 0.14808,-3.70279 1.29731,-5.70523 1.14924,-2.00242 2.08953,-6.29735 2.08953,-9.54426 0,-5.04906 0.60279,-6.48774 4.16476,-9.94015 2.75095,-2.66632 4.87265,-3.76501 6.25,-3.23647 2.45008,0.94018 2.73522,5.77586 0.54718,9.27946 -1.26821,2.03074 -1.17156,2.82934 0.55084,4.55175 1.95188,1.95187 1.90927,2.40356 -0.64943,6.88557 -2.12881,3.72897 -3.50351,4.79882 -6.17585,4.8063 -2.10027,0.006 -3.4375,0.687 -3.4375,1.75089 C 471.25,423.12927 467.53734,424.05178 466.61316,421.6434 Z M 442.5,417.9503 c 0,-1.31804 4.23731,-4.11991 6.25,-4.13275 1.23427,-0.007 0.80714,0.82334 -1.25,2.43245 C 444.29757,418.75497 442.5,419.36626 442.5,417.9503 Z M 435,400.07377 c 0,-3.36586 2.36468,-4.49482 4.64286,-2.21663 2.27819,2.27818 1.14923,4.64286 -2.21663,4.64286 C 435.85792,402.5 435,401.64208 435,400.07377 z m 21.73951,-3.1011 c -0.37511,-0.97752 -0.0763,-2.9093 0.66424,-4.29282 0.74044,-1.38353 1.34625,-3.6086 1.34625,-4.94461 0,-3.09008 2.85415,-5.50054 5.36991,-4.53515 2.82025,1.08222 3.69286,4.35685 1.77693,6.66818 -0.91489,1.1037 -2.32264,3.5536 -3.12834,5.44423 C 461.20376,398.98426 457.86431,399.90384 456.73951,396.97268 Z M 552.5,395.69877 c 0,-1.07182 0.5625,-1.94877 1.25,-1.94877 0.6875,0 1.25,0.5293 1.25,1.17623 0,0.64692 -0.5625,1.52387 -1.25,1.94877 C 553.0625,397.2999 552.5,396.7706 552.5,395.69877 z m 171.77395,-13.36228 c -1.06541,-1.72385 1.38154,-4.10146 3.11714,-3.0288 0.7474,0.46192 1.35891,1.30897 1.35891,1.88235 C 728.75,382.85285 725.16117,383.77206 724.27395,382.33649 Z M 738.75,376.25 c 0,-0.6875 0.5625,-1.25 1.25,-1.25 0.6875,0 1.25,0.5625 1.25,1.25 0,0.6875 -0.5625,1.25 -1.25,1.25 C 739.3125,377.5 738.75,376.9375 738.75,376.25 Z M 497.5,374.44877 c 0,-3.84222 6.49775,-3.86357 7.97029,-0.0261 0.53216,1.3867 -0.34424,1.82735 -3.63452,1.82735 C 498.89401,376.25 497.5,375.67088 497.5,374.44877 Z M 723.125,368.75 c -0.4249,-0.6875 0.1376,-1.25 1.25,-1.25 1.1124,0 1.6749,0.5625 1.25,1.25 -0.4249,0.6875 -0.9874,1.25 -1.25,1.25 C 724.1124,370 723.5499,369.4375 723.125,368.75 z m -221.68188,-6.79706 c 0.23753,-1.14675 0.99438,-2.05528 1.68188,-2.01896 1.85536,0.098 1.5145,2.89452 -0.43188,3.54331 C 501.64172,363.82776 501.17314,363.25632 501.44312,361.95294 z m 222.32602,-2.26544 c 0.01,-0.85938 0.54961,-2.40155 1.19795,-3.42705 0.91645,-1.44956 1.51245,-1.53091 2.67788,-0.36548 1.16543,1.16543 1.14295,1.92818 -0.101,3.42706 C 725.6125,361.64929 723.74289,361.8303 723.76914,359.6875 z m -20.49932,-57.58585 c -2.51578,-1.88271 -0.73916,-5.01979 2.4906,-4.39779 2.86759,0.55225 3.78726,4.22258 1.29744,5.178 C 706.05969,303.2649 704.35506,302.9138 703.26982,302.10165 Z M 696.25,296.80122 c 0,-1.07182 0.5625,-1.60112 1.25,-1.17622 0.6875,0.4249 1.25,1.30185 1.25,1.94877 0,0.64693 -0.5625,1.17623 -1.25,1.17623 C 696.8125,298.75 696.25,297.87305 696.25,296.80122 z m -7.84681,-2.5647 c -1.52523,-1.52523 -1.00268,-7.3739 0.88766,-9.93511 2.31809,-3.14077 5.10326,-0.78735 4.04691,3.41956 C 692.36092,291.61125 689.52389,295.35722 688.40319,294.23652 Z M 546.85046,287.4603 c -0.48545,-0.78548 -0.29445,-2.01631 0.42443,-2.73519 1.67987,-1.67987 5.59642,-0.21461 4.91297,1.83805 C 551.49211,288.65276 547.9549,289.24731 546.85046,287.4603 z m 150.07793,0.12607 c -0.92444,-1.49575 1.42702,-2.97778 3.092,-1.94877 1.39795,0.86397 0.48021,3.1124 -1.27039,3.1124 C 698.14365,288.75 697.32393,288.22636 696.92839,287.58637 Z M 528.27981,268.07769 c -0.42126,-1.09779 0.0644,-2.23009 1.13218,-2.63985 C 531.34234,264.6971 535,266.96527 535,268.90305 535,270.81566 529.05005,270.08489 528.27981,268.07769 z m 10.13099,-9.49267 c -2.63221,-1.47306 -2.86151,-4.83502 -0.32978,-4.83502 2.07008,0 4.94484,4.52746 3.45817,5.44628 C 541.00701,259.52517 539.59925,259.25011 538.4108,258.58502 z m -6.50028,-9.77753 c -1.15866,-1.87477 0.68673,-7.55749 2.45421,-7.55749 2.09735,0 3.11336,4.09993 1.65971,6.69746 C 534.73884,250.24469 533.02075,250.60386 531.91052,248.80749 z m 128.92282,-7.14083 c -1.27541,-1.2754 -0.99048,-5.41666 0.37269,-5.41666 1.57133,0 3.94092,4.43639 2.91666,5.46065 C 663.10314,242.73019 661.88051,242.71384 660.83334,241.66666 z m -133.10778,-6.88125 c 0.58885,-4.00187 3.52444,-4.43047 3.52444,-0.51457 0,2.10062 -0.68566,3.22916 -1.96194,3.22916 C 527.98514,237.5 527.4603,236.58817 527.72556,234.78541 z m 159.31379,1.83728 c -0.43414,-0.43415 -0.78935,-1.8206 -0.78935,-3.08103 0,-1.61111 0.92803,-2.29166 3.125,-2.29166 1.91109,0 3.125,0.71126 3.125,1.83102 C 692.5,235.11887 688.27549,237.85881 687.03935,236.62269 z m -32.43306,-14.24325 c -0.96184,-3.67807 0.24895,-6.12944 3.02745,-6.12944 2.48375,0 2.82528,1.28477 1.5784,5.9375 C 658.2633,225.72809 655.51196,225.84274 654.60629,222.37944 z m 7.14036,-6.71033 c -1.82964,-1.35068 -2.03376,-2.09365 -0.89318,-3.25094 1.83332,-1.86016 5.39653,-0.64271 5.39653,1.84383 C 666.25,217.04376 664.39424,217.62361 661.74665,215.66911 z m -51.53566,-12.10764 c 0.23,-1.61713 1.43139,-3.10493 2.70302,-3.34741 1.77215,-0.33791 2.19553,0.22081 1.875,2.47446 -0.23,1.61714 -1.43138,3.10494 -2.70302,3.34742 C 610.31384,206.37385 609.89046,205.81512 610.21099,203.56147 z m 18.04989,-46.58982 c 0.81638,-2.12745 3.99048,-3.52286 5.66262,-2.48943 1.74657,1.07945 -1.2696,4.26778 -4.03733,4.26778 C 628.40417,158.75 627.82264,158.1137 628.26087,156.97165 Z M 621.25,146.91897 c 0,-2.34001 4.0348,-4.53805 6.04719,-3.29431 0.84561,0.52261 1.177,1.88961 0.73641,3.03778 C 627.03576,149.26276 621.25,149.48158 621.25,146.91897 Z"
       id="path821"
       inkscape:connector-curvature="0" />
    <path
       style="fill:#ff6600"
       d="M 620.83334,410.41666 C 620.375,409.95834 620,408.83334 620,407.91666 c 0,-1.24074 2.39584,-1.66666 9.375,-1.66666 5.998,0 9.375,-0.49644 9.375,-1.37819 0,-0.9285 -3.3649,-1.2344 -10.3125,-0.9375 -9.89672,0.42293 -10.3286,0.32729 -10.71194,-2.37181 -0.23263,-1.63799 -1.27665,-2.81594 -2.5,-2.82074 -1.15531,-0.005 -3.78806,-1.12582 -5.85056,-2.49176 -2.10483,-1.39398 -5.86465,-2.48714 -8.57013,-2.49176 -3.4642,-0.006 -6.15479,-1.06534 -9.56478,-3.76609 -2.88805,-2.28738 -5.53037,-3.45636 -6.75252,-2.98739 -1.1043,0.42376 -4.04962,-0.19841 -6.54516,-1.38262 -3.50982,-1.66553 -6.12594,-1.95399 -11.55237,-1.27382 -9.89424,1.24018 -16.44472,1.097 -17.93369,-0.39197 -1.48788,-1.48788 -4.76195,0.0556 -10.03569,4.73115 -2.24674,1.99187 -4.96336,3.0625 -7.77084,3.0625 -5.38046,0 -6.78318,-1.27066 -3.80596,-3.44765 1.89066,-1.3825 2.13049,-2.62415 1.3857,-7.17459 -1.67754,-10.24946 -1.65417,-19.17499 0.0576,-21.98425 1.0458,-1.71635 3.17937,-2.87774 5.74087,-3.125 4.36941,-0.42179 6.8889,-4.76851 2.76396,-4.76851 -2.38482,0 -5.44101,-3.41689 -5.50221,-6.15158 -0.0219,-0.97711 -0.91017,-2.73838 -1.97404,-3.91392 -1.74878,-1.93239 -1.73395,-2.33769 0.15465,-4.22629 1.38889,-1.38889 3.1972,-1.8455 5.3961,-1.36254 2.01907,0.44347 4.27144,-0.002 5.78287,-1.1449 3.60046,-2.72145 5.3012,-2.38058 7.41811,1.48673 1.0349,1.89062 3.07201,4.83202 4.52691,6.53645 2.42105,2.83625 2.77556,2.92077 4.18223,0.99704 1.42328,-1.94645 1.72557,-1.91329 4.08735,0.44848 1.42803,1.42804 4.41205,2.63954 6.78073,2.75297 3.46453,0.16588 4.23034,-0.25002 4.23034,-2.29744 0,-1.77259 -0.96082,-2.61129 -3.30217,-2.88248 -2.57915,-0.29872 -3.16304,-0.91453 -2.66672,-2.8125 0.3495,-1.33651 1.6517,-2.43002 2.89378,-2.43002 1.24206,0 3.97321,-1.44301 6.06922,-3.20669 2.81984,-2.37274 4.35383,-2.90286 5.89845,-2.03845 1.14814,0.64253 3.10712,0.9016 4.35329,0.57573 1.64088,-0.4291 2.49116,0.30547 3.08298,2.66345 0.66951,2.66753 1.5471,3.25596 4.85603,3.25596 3.12475,0 4.37024,-0.72731 5.50304,-3.21354 1.3283,-2.9153 1.23965,-3.14226 -0.9553,-2.44561 -1.85604,0.58909 -2.51415,0.10025 -2.82604,-2.09898 -0.26438,-1.86433 -2.04576,-3.66783 -5.09406,-5.15732 -5.27542,-2.57773 -5.99277,-5.51583 -2.1875,-8.95955 1.375,-1.24436 2.5,-3.44635 2.5,-4.89331 0,-2.13729 0.76215,-2.62859 4.0625,-2.61878 3.55393,0.01 4.03854,-0.37912 3.8711,-3.11291 -0.25146,-4.10576 2.96364,-13.78496 5.51656,-16.6078 1.71485,-1.89618 1.78834,-2.87153 0.48737,-6.4693 -3.36005,-9.29206 2.32221,-14.75644 9.80451,-9.42856 4.27326,3.04282 8.08235,2.53811 6.98602,-0.92568 -0.57218,-1.80781 0.18218,-2.25394 4.28882,-2.53636 3.11876,-0.21448 4.98312,0.19474 4.98312,1.09375 0,0.92602 1.31863,1.17272 3.71094,0.69426 3.51047,-0.7021 3.67346,-0.55482 3.01725,2.72626 -0.46331,2.31657 -0.0353,4.01495 1.28906,5.114 1.09051,0.90505 1.98275,2.94972 1.98275,4.54372 0,3.85723 2.48236,5.22043 4.49475,2.46833 0.88853,-1.21512 3.07515,-2.9666 4.85918,-3.89216 2.89143,-1.5001 3.52037,-1.40616 5.79152,0.86499 2.49943,2.49942 2.43669,6.10455 -0.10625,6.10455 -2.46567,0 -1.26951,3.70529 1.85764,5.75426 2.46638,1.61604 2.83873,2.43318 1.72194,3.77883 -0.7837,0.9443 -2.34042,1.73562 -3.45935,1.7585 -4.18154,0.0855 3.7828,4.95841 8.10402,4.95841 4.24109,0 5.19004,0.96136 3.14635,3.1875 -1.65308,1.80067 -2.82845,11.56075 -1.49168,12.3869 0.93873,0.58017 5.08186,7.77314 5.08186,8.82272 0,0.14467 -2.10938,0.19888 -4.6875,0.1205 -4.45204,-0.13541 -4.70789,0.0711 -5.09349,4.11144 -0.27109,2.84059 0.45572,5.41953 2.1875,7.76189 1.42642,1.92932 2.59349,4.09315 2.59349,4.80849 0,1.67022 4.65586,1.70801 5.21111,0.0423 0.27038,-0.81113 1.86224,-0.71374 4.47916,0.27405 3.59358,1.35641 4.05973,2.07502 4.05973,6.25832 0,4.38655 -0.26155,4.72595 -3.6419,4.72595 -3.3625,0 -3.57136,0.26371 -2.7226,3.4375 1.14976,4.29931 5.01654,5.3321 5.99237,1.60053 0.44575,-1.70459 1.36533,-2.42438 2.52753,-1.97839 1.00477,0.38556 3.32147,1.02429 5.14822,1.41939 l 3.32138,0.71837 -2.87348,-2.33757 c -2.99314,-2.43489 -2.75075,-6.60984 0.3837,-6.60984 2.75295,0 6.75176,8.01265 5.29654,10.61299 -0.69158,1.23576 -1.21655,5.40026 -1.16663,9.25442 0.0601,4.64198 -0.73208,8.60918 -2.34676,11.75191 -1.47227,2.8656 -2.14335,5.9164 -1.69464,7.70418 1.04709,4.17195 -3.39403,8.49512 -7.63377,7.43102 -1.71706,-0.43096 -3.59734,-1.63307 -4.1784,-2.67136 -0.8898,-1.59 -1.36405,-1.44866 -3.00628,0.89595 -1.73041,2.4705 -2.6412,2.68866 -8.09406,1.9387 -4.98249,-0.68527 -7.13024,-0.33112 -11.35899,1.87303 -2.86811,1.49495 -5.53166,3.23085 -5.91898,3.85756 -1.53725,2.48731 -9.99355,4.8516 -17.35262,4.8516 C 625.16048,411.25 621.29166,410.875 620.83334,410.41666 Z M 617.5,387.64187 c 0,-0.60947 -1.54688,-1.37366 -3.4375,-1.69821 -1.89063,-0.32455 -4.49863,-1.04052 -5.79556,-1.59106 -1.74845,-0.7422 -2.20749,-0.54554 -1.77564,0.76071 0.4943,1.49513 2.24369,2.09824 10.0712,3.47214 C 617.07812,388.67595 617.5,388.25134 617.5,387.64187 z m -16.58854,-2.14708 c -0.41536,-0.41536 -1.4935,-0.45977 -2.39584,-0.0986 -0.99716,0.39903 -0.70097,0.69523 0.75522,0.7552 C 600.58854,386.20559 601.32682,385.91015 600.91146,385.49479 Z M 654.375,380 c 0,-2.1925 -5.3401,-3.2849 -7.16025,-1.46475 -1.99226,1.99226 0.22527,4.14229 3.8408,3.72389 C 653.00211,382.03387 654.375,381.09952 654.375,380 z m -59.60994,-3.1516 c -0.39111,-0.39113 -2.30434,-0.82639 -4.25161,-0.96726 -4.53263,-0.32792 -5.91783,3.67555 -1.52401,4.40468 C 591.85136,380.76075 596.13059,378.21393 594.76506,376.8484 Z M 613.75,365 c 0,-0.6875 -0.5957,-1.25 -1.32377,-1.25 -0.72808,0 -0.97613,0.5625 -0.55123,1.25 0.4249,0.6875 1.0206,1.25 1.32377,1.25 C 613.50195,366.25 613.75,365.6875 613.75,365 z m -76.25,-2.55996 c 0,-0.57338 -0.61151,-1.42043 -1.35891,-1.88235 -1.7356,-1.07267 -4.18255,1.30495 -3.11714,3.0288 C 533.91117,365.02206 537.5,364.10285 537.5,362.44004 z m 62.06951,-9.37865 c 2.29927,-1.75374 4.18049,-3.6961 4.18049,-4.31635 0,-2.49005 -8.35774,-5.16799 -12.66709,-4.05873 -5.79161,1.49083 -6.60868,6.75048 -1.46847,9.45287 C 594.48138,356.6979 594.8548,356.65748 599.56951,353.06139 Z M 665,351.78335 c 0,-1.16405 -0.85046,-1.80173 -2.08391,-1.5625 -3.13597,0.60819 -3.56657,3.52915 -0.52025,3.52915 C 663.93125,353.75 665,352.94289 665,351.78335 z m -83.75,-14.98213 c 0,-0.99067 -1.125,-1.80122 -2.5,-1.80122 -2.72841,0 -3.45919,3.1976 -0.9375,4.10215 C 579.92718,339.8607 581.25,338.97526 581.25,336.80123 z m 75,-9.22745 c 0,-0.64692 -0.5625,-1.52387 -1.25,-1.94877 -0.6875,-0.4249 -1.25,0.10437 -1.25,1.17623 0,1.07182 0.5625,1.94877 1.25,1.94877 C 655.6875,328.75 656.25,328.2207 656.25,327.57377 Z M 597.5,318.75 c 0,-0.6875 -0.84375,-1.25 -1.875,-1.25 -1.03125,0 -1.875,0.5625 -1.875,1.25 0,0.6875 0.84375,1.25 1.875,1.25 C 596.65625,320 597.5,319.4375 597.5,318.75 z m 16.09765,-3.62939 c 2.3814,-1.50836 0.61557,-3.87061 -2.89336,-3.87061 -3.04408,0 -6.26719,2.77042 -4.86012,4.17751 C 607.0096,316.59294 611.55734,316.41292 613.59765,315.12061 z m 47.71837,-3.24561 c -0.098,-1.85536 -2.89452,-1.5145 -3.54331,0.43187 -0.35047,1.0514 0.22097,1.51999 1.52435,1.25 C 660.44381,313.31935 661.35234,312.5625 661.31602,311.875 Z M 625,294.86626 c 0,-0.61394 -0.84375,-1.11626 -1.875,-1.11626 -1.03125,0 -1.875,0.8261 -1.875,1.83577 0,1.11824 0.73286,1.55454 1.875,1.11627 C 624.15625,296.3063 625,295.48021 625,294.86626 z m 1.31602,-12.99126 c -0.098,-1.85536 -2.89452,-1.5145 -3.54331,0.43187 -0.35047,1.0514 0.22096,1.51999 1.52435,1.25 C 625.44381,283.31935 626.35234,282.5625 626.31602,281.875 z m 74.63972,118.02305 c -3.22519,-3.22519 -4.50802,-3.72887 -7.88405,-3.09553 -3.83765,0.71996 -4.02308,0.57672 -3.8447,-2.96985 0.10362,-2.06139 1.44244,-4.89551 2.99639,-6.34323 2.95651,-2.75442 5.93077,-2.2471 4.75711,0.81141 -0.83205,2.16828 1.77926,6.69915 3.86096,6.69915 0.81955,0 1.83065,1.07304 2.2469,2.38453 0.41625,1.31148 1.57915,2.70008 2.58424,3.08576 1.00507,0.38568 1.82741,1.2814 1.82741,1.99048 C 707.5,404.82794 704.84652,403.78884 700.95574,399.89805 Z M 476.875,397.5 c 0.4249,-0.6875 1.0206,-1.25 1.32377,-1.25 0.30318,0 0.55123,0.5625 0.55123,1.25 0,0.6875 -0.5957,1.25 -1.32377,1.25 C 476.69815,398.75 476.4501,398.1875 476.875,397.5 z m 190.79899,-56.11876 c -2.99853,-2.2618 -3.31798,-6.37658 -0.56615,-7.29276 2.18112,-0.72619 5.81411,5.37951 4.54755,7.64274 C 670.74686,343.35467 670.22999,343.30924 667.67399,341.38124 Z M 533.75,327.57377 c 0,-2.02192 0.5625,-4.02387 1.25,-4.44877 2.05543,-1.27032 1.41984,-5.08383 -1.25,-7.5 -2.54377,-2.30209 -3.51411,-9.8507 -1.4317,-11.1377 0.58756,-0.36314 2.31709,0.66901 3.84338,2.29367 2.43151,2.58824 2.57007,3.28339 1.1192,5.61519 -1.41115,2.26795 -1.33259,3.2262 0.53162,6.48385 3.45434,6.03635 2.58584,12.36999 -1.69624,12.36999 C 534.33096,331.25 533.75,330.34741 533.75,327.57377 z m 12.08334,-3.40711 C 545.375,323.70834 545,322.75209 545,322.04166 c 0,-0.78325 0.58221,-0.70945 1.47916,0.1875 0.81355,0.81355 1.18855,1.7698 0.83334,2.125 C 546.95729,324.70937 546.29166,324.625 545.83334,324.16666 Z M 691.875,317.5 c 0.4249,-0.6875 1.0206,-1.25 1.32378,-1.25 0.30317,0 0.55122,0.5625 0.55122,1.25 0,0.6875 -0.5957,1.25 -1.32378,1.25 C 691.69815,318.75 691.4501,318.1875 691.875,317.5 z m -116.3014,-3.83316 c -1.34534,-2.1768 0.1869,-2.6378 1.90132,-0.57205 C 578.46086,314.28278 578.5557,315 577.72682,315 576.99572,315 576.02678,314.40008 575.5736,313.66684 z m -32.48744,-1.22968 c -1.08866,-1.76149 2.99195,-10.19094 4.48625,-9.26741 1.32956,0.82172 1.56321,5.62085 0.41885,8.60301 C 547.12916,314.01937 544.3008,314.40248 543.08616,312.43716 z m 43.39821,-13.76529 c 0.30079,-0.90235 1.28516,-1.88672 2.1875,-2.1875 0.9375,-0.3125 1.40625,0.15625 1.09375,1.09375 -0.30078,0.90234 -1.28516,1.88672 -2.1875,2.1875 C 586.64062,300.07812 586.17187,299.60937 586.48437,298.67187 Z M 661.25,293.31874 c 0,-1.6122 1.125,-3.94938 2.5,-5.19374 2.1921,-1.98383 2.5,-2.01493 2.5,-0.25255 0,2.73994 -2.65856,8.37755 -3.95065,8.37755 C 661.72221,296.25 661.25,294.93092 661.25,293.31874 Z M 593.125,282.5 c -0.4249,-0.6875 -0.17685,-1.25 0.55123,-1.25 0.72807,0 1.32377,0.5625 1.32377,1.25 0,0.6875 -0.24805,1.25 -0.55123,1.25 C 594.1456,283.75 593.5499,283.1875 593.125,282.5 z m 67.5,-2.5 c -0.4249,-0.6875 -2.42685,-1.25 -4.44878,-1.25 -2.43442,0 -3.67622,-0.63336 -3.67622,-1.875 0,-1.28787 1.29166,-1.875 4.125,-1.875 4.29319,0 7.125,1.8382 7.125,4.625 C 663.75,281.54446 661.72939,281.78694 660.625,280 z m -32.25769,-32.04935 c -0.9576,-0.9576 0.10472,-2.95065 1.57273,-2.95065 0.57337,0 1.36626,0.84375 1.762,1.875 C 632.4152,248.73349 629.94646,249.5298 628.36731,247.95065 Z"
       id="path817"
       inkscape:connector-curvature="0" />
  </g>
  <rect
     style="opacity:0.15400002;fill:#ff6600;fill-opacity:1;fill-rule:nonzero;stroke:none"
     id="rect144"
     width="171.83527"
     height="92.248413"
     x="-274.93643"
     y="1105.9427" />
</svg>
