<?xml version="1.0" encoding="UTF-8" standalone="no"?>
<!-- Created with Inkscape (http://www.inkscape.org/) -->

<svg
   xmlns:dc="http://purl.org/dc/elements/1.1/"
   xmlns:cc="http://creativecommons.org/ns#"
   xmlns:rdf="http://www.w3.org/1999/02/22-rdf-syntax-ns#"
   xmlns:svg="http://www.w3.org/2000/svg"
   xmlns="http://www.w3.org/2000/svg"
   xmlns:xlink="http://www.w3.org/1999/xlink"
   xmlns:sodipodi="http://sodipodi.sourceforge.net/DTD/sodipodi-0.dtd"
   xmlns:inkscape="http://www.inkscape.org/namespaces/inkscape"
   width="1920"
   height="1200"
   id="svg2"
   version="1.1"
   inkscape:version="0.48.1 r9760"
   sodipodi:docname="background-wide.svg"
   inkscape:export-filename="aptosid-ponos-wide.png"
   inkscape:export-xdpi="90"
   inkscape:export-ydpi="90"
   style="display:inline;enable-background:new">
  <defs
     id="defs4">
    <linearGradient
       id="linearGradient3755">
      <stop
         style="stop-color:#00007d;stop-opacity:1;"
         offset="0"
         id="stop3757" />
      <stop
         id="stop3763"
         offset="0.5"
         style="stop-color:#00007d;stop-opacity:0.78431374;" />
      <stop
         style="stop-color:#000032;stop-opacity:0;"
         offset="1"
         id="stop3759" />
    </linearGradient>
    <radialGradient
       inkscape:collect="always"
       xlink:href="#linearGradient3755"
       id="radialGradient3761"
       cx="960"
       cy="522.08929"
       fx="960"
       fy="522.08929"
       r="960"
       gradientTransform="matrix(1.3817417,-4.4419343e-8,2.5000001e-8,0.77766894,-366.47199,148.21202)"
       gradientUnits="userSpaceOnUse" />
    <filter
       id="filter4037"
       inkscape:label="Ink bleed"
       inkscape:menu="Protrusions"
       inkscape:menu-tooltip="Inky splotches underneath the object"
       color-interpolation-filters="sRGB">
      <feGaussianBlur
         id="feGaussianBlur4039"
         result="result1"
         in="SourceGraphic"
         stdDeviation="2.6000000000000001" />
      <feTurbulence
         id="feTurbulence4041"
         result="result0"
         numOctaves="8"
         baseFrequency="0.040000000000000001" />
      <feDisplacementMap
         in2="result0"
         id="feDisplacementMap4043"
         result="result2"
         scale="40"
         yChannelSelector="G"
         xChannelSelector="R"
         in="result1" />
      <feColorMatrix
         id="feColorMatrix4045"
         values="2 0 0 0 0 0 2 0 0 0 0 0 2 0 0 0 0 0 0.7 0"
         result="result3" />
      <feGaussianBlur
         id="feGaussianBlur4047"
         result="result4"
         in="SourceGraphic"
         stdDeviation="1.1000000000000001" />
      <feComposite
         in2="result3"
         id="feComposite4049"
         in="result4" />
    </filter>
    <filter
       id="filter4692"
       inkscape:label="Inkblot"
       inkscape:menu="Textures"
       inkscape:menu-tooltip="Inkblot on tissue or rough paper"
       height="1.3"
       y="-0.15000001"
       width="1.3"
       x="-0.15000001"
       color-interpolation-filters="sRGB">
      <feTurbulence
         id="feTurbulence4694"
         baseFrequency="0.05"
         numOctaves="5"
         type="fractalNoise"
         result="result91" />
      <feDisplacementMap
         in2="result91"
         id="feDisplacementMap4696"
         scale="25"
         result="result5"
         xChannelSelector="R"
         in="SourceGraphic"
         yChannelSelector="A" />
      <feComposite
         in2="result5"
         id="feComposite4698"
         in="SourceGraphic"
         operator="atop"
         result="fbSourceGraphic" />
      <feColorMatrix
         result="fbSourceGraphicAlpha"
         in="fbSourceGraphic"
         values="0 0 0 -1 0 0 0 0 -1 0 0 0 0 -1 0 0 0 0 1 0"
         id="feColorMatrix4716" />
      <feTurbulence
         id="feTurbulence4718"
         type="fractalNoise"
         numOctaves="3"
         baseFrequency="0.25 0.4"
         seed="5" />
      <feColorMatrix
         id="feColorMatrix4720"
         result="result5"
         values="1 0 0 0 0 0 1 0 0 0 0 0 1 0 0 0 0 0 1 0 " />
      <feComposite
         in2="result5"
         id="feComposite4722"
         in="fbSourceGraphic"
         operator="in" />
      <feMorphology
         id="feMorphology4724"
         operator="dilate"
         radius="1.3999999999999999"
         result="result3" />
      <feTurbulence
         id="feTurbulence4726"
         numOctaves="5"
         baseFrequency="0.03"
         type="fractalNoise"
         seed="7" />
      <feGaussianBlur
         id="feGaussianBlur4728"
         stdDeviation="0.5"
         result="result91" />
      <feDisplacementMap
         in2="result91"
         id="feDisplacementMap4730"
         in="result3"
         xChannelSelector="R"
         yChannelSelector="G"
         scale="54"
         result="result4" />
      <feComposite
         in2="result4"
         id="feComposite4732"
         in="result4"
         k3="0.8"
         k1="1.3"
         result="result2"
         operator="arithmetic"
         k2="0"
         k4="0" />
      <feBlend
         in2="result2"
         id="feBlend4734"
         mode="screen"
         in="result2"
         result="fbSourceGraphic" />
      <feColorMatrix
         result="fbSourceGraphicAlpha"
         in="fbSourceGraphic"
         values="0 0 0 -1 0 0 0 0 -1 0 0 0 0 -1 0 0 0 0 1 0"
         id="feColorMatrix3250" />
      <feGaussianBlur
         id="feGaussianBlur3252"
         result="result1"
         in="fbSourceGraphic"
         stdDeviation="4" />
      <feTurbulence
         id="feTurbulence3254"
         result="result0"
         numOctaves="4"
         baseFrequency="0.05"
         type="fractalNoise" />
      <feDisplacementMap
         id="feDisplacementMap3256"
         in2="result0"
         result="result2"
         scale="20"
         yChannelSelector="G"
         xChannelSelector="R"
         in="result1" />
      <feGaussianBlur
         id="feGaussianBlur3258"
         result="result4"
         in="fbSourceGraphic"
         stdDeviation="3" />
      <feComposite
         id="feComposite3260"
         in2="result2"
         in="result4"
         operator="arithmetic"
         k2="-0.25"
         k3="0.5"
         k1="1.5"
         result="result5"
         k4="0" />
    </filter>
    <filter
       id="filter4700"
       inkscape:label="Inkblot"
       inkscape:menu="Textures"
       inkscape:menu-tooltip="Inkblot on tissue or rough paper"
       height="1.3"
       y="-0.15000001"
       width="1.3"
       x="-0.15000001"
       color-interpolation-filters="sRGB">
      <feTurbulence
         id="feTurbulence4702"
         baseFrequency="0.05"
         numOctaves="5"
         type="fractalNoise"
         result="result91" />
      <feDisplacementMap
         in2="result91"
         id="feDisplacementMap4704"
         scale="25"
         result="result5"
         xChannelSelector="R"
         in="SourceGraphic"
         yChannelSelector="A" />
      <feComposite
         in2="result5"
         id="feComposite4706"
         in="SourceGraphic"
         operator="atop"
         result="fbSourceGraphic" />
      <feColorMatrix
         result="fbSourceGraphicAlpha"
         in="fbSourceGraphic"
         values="0 0 0 -1 0 0 0 0 -1 0 0 0 0 -1 0 0 0 0 1 0"
         id="feColorMatrix4736" />
      <feTurbulence
         id="feTurbulence4738"
         type="fractalNoise"
         numOctaves="3"
         baseFrequency="0.25 0.4"
         seed="5" />
      <feColorMatrix
         id="feColorMatrix4740"
         result="result5"
         values="1 0 0 0 0 0 1 0 0 0 0 0 1 0 0 0 0 0 1 0 " />
      <feComposite
         in2="result5"
         id="feComposite4742"
         in="fbSourceGraphic"
         operator="in" />
      <feMorphology
         id="feMorphology4744"
         operator="dilate"
         radius="1.3999999999999999"
         result="result3" />
      <feTurbulence
         id="feTurbulence4746"
         numOctaves="5"
         baseFrequency="0.03"
         type="fractalNoise"
         seed="7" />
      <feGaussianBlur
         id="feGaussianBlur4748"
         stdDeviation="0.5"
         result="result91" />
      <feDisplacementMap
         in2="result91"
         id="feDisplacementMap4750"
         in="result3"
         xChannelSelector="R"
         yChannelSelector="G"
         scale="54"
         result="result4" />
      <feComposite
         in2="result4"
         id="feComposite4752"
         in="result4"
         k3="0.8"
         k1="1.3"
         result="result2"
         operator="arithmetic"
         k2="0"
         k4="0" />
      <feBlend
         in2="result2"
         id="feBlend4754"
         mode="screen"
         in="result2"
         result="fbSourceGraphic" />
      <feColorMatrix
         result="fbSourceGraphicAlpha"
         in="fbSourceGraphic"
         values="0 0 0 -1 0 0 0 0 -1 0 0 0 0 -1 0 0 0 0 1 0"
         id="feColorMatrix3238" />
      <feGaussianBlur
         id="feGaussianBlur3240"
         result="result1"
         in="fbSourceGraphic"
         stdDeviation="4" />
      <feTurbulence
         id="feTurbulence3242"
         result="result0"
         numOctaves="4"
         baseFrequency="0.05"
         type="fractalNoise" />
      <feDisplacementMap
         id="feDisplacementMap3244"
         in2="result0"
         result="result2"
         scale="20"
         yChannelSelector="G"
         xChannelSelector="R"
         in="result1" />
      <feGaussianBlur
         id="feGaussianBlur3246"
         result="result4"
         in="fbSourceGraphic"
         stdDeviation="3" />
      <feComposite
         id="feComposite3248"
         in2="result2"
         in="result4"
         operator="arithmetic"
         k2="-0.25"
         k3="0.5"
         k1="1.5"
         result="result5"
         k4="0" />
    </filter>
    <filter
       id="filter4708"
       inkscape:label="Inkblot"
       inkscape:menu="Textures"
       inkscape:menu-tooltip="Inkblot on tissue or rough paper"
       height="1.3"
       y="-0.15000001"
       width="1.3"
       x="-0.15000001"
       color-interpolation-filters="sRGB">
      <feTurbulence
         id="feTurbulence4710"
         baseFrequency="0.05"
         numOctaves="5"
         type="fractalNoise"
         result="result91" />
      <feDisplacementMap
         in2="result91"
         id="feDisplacementMap4712"
         scale="25"
         result="result5"
         xChannelSelector="R"
         in="SourceGraphic"
         yChannelSelector="A" />
      <feComposite
         in2="result5"
         id="feComposite4714"
         in="SourceGraphic"
         operator="atop"
         result="fbSourceGraphic" />
      <feColorMatrix
         result="fbSourceGraphicAlpha"
         in="fbSourceGraphic"
         values="0 0 0 -1 0 0 0 0 -1 0 0 0 0 -1 0 0 0 0 1 0"
         id="feColorMatrix4756" />
      <feTurbulence
         id="feTurbulence4758"
         type="fractalNoise"
         numOctaves="3"
         baseFrequency="0.25 0.4"
         seed="5" />
      <feColorMatrix
         id="feColorMatrix4760"
         result="result5"
         values="1 0 0 0 0 0 1 0 0 0 0 0 1 0 0 0 0 0 1 0 " />
      <feComposite
         in2="result5"
         id="feComposite4762"
         in="fbSourceGraphic"
         operator="in" />
      <feMorphology
         id="feMorphology4764"
         operator="dilate"
         radius="1.3999999999999999"
         result="result3" />
      <feTurbulence
         id="feTurbulence4766"
         numOctaves="5"
         baseFrequency="0.03"
         type="fractalNoise"
         seed="7" />
      <feGaussianBlur
         id="feGaussianBlur4768"
         stdDeviation="0.5"
         result="result91" />
      <feDisplacementMap
         in2="result91"
         id="feDisplacementMap4770"
         in="result3"
         xChannelSelector="R"
         yChannelSelector="G"
         scale="54"
         result="result4" />
      <feComposite
         in2="result4"
         id="feComposite4772"
         in="result4"
         k3="0.8"
         k1="1.3"
         result="result2"
         operator="arithmetic"
         k2="0"
         k4="0" />
      <feBlend
         in2="result2"
         id="feBlend4774"
         mode="screen"
         in="result2"
         result="fbSourceGraphic" />
      <feColorMatrix
         result="fbSourceGraphicAlpha"
         in="fbSourceGraphic"
         values="0 0 0 -1 0 0 0 0 -1 0 0 0 0 -1 0 0 0 0 1 0"
         id="feColorMatrix3262" />
      <feGaussianBlur
         id="feGaussianBlur3264"
         result="result1"
         in="fbSourceGraphic"
         stdDeviation="4" />
      <feTurbulence
         id="feTurbulence3266"
         result="result0"
         numOctaves="4"
         baseFrequency="0.05"
         type="fractalNoise" />
      <feDisplacementMap
         id="feDisplacementMap3268"
         in2="result0"
         result="result2"
         scale="20"
         yChannelSelector="G"
         xChannelSelector="R"
         in="result1" />
      <feGaussianBlur
         id="feGaussianBlur3270"
         result="result4"
         in="fbSourceGraphic"
         stdDeviation="3" />
      <feComposite
         id="feComposite3272"
         in2="result2"
         in="result4"
         operator="arithmetic"
         k2="-0.25"
         k3="0.5"
         k1="1.5"
         result="result5"
         k4="0" />
    </filter>
    <filter
       id="filter3142"
       inkscape:label="Motion blur, horizontal"
       inkscape:menu="Blurs"
       inkscape:menu-tooltip="Blur as if the object flies horizontally; adjust Standard Deviation to vary force"
       x="-0.2"
       y="-0.2"
       width="1.4"
       height="1.4"
       color-interpolation-filters="sRGB">
      <feTurbulence
         id="feTurbulence3144"
         seed="8"
         type="turbulence"
         baseFrequency="0.02"
         numOctaves="4"
         result="result8" />
      <feColorMatrix
         id="feColorMatrix3146"
         values="1 0 0 0 0 0 1 0 0 0 0 0 1 0 0 0 0 0 4 -0.7 "
         result="result5" />
      <feComposite
         id="feComposite3148"
         in2="result5"
         result="result11"
         operator="in"
         in="SourceGraphic" />
      <feDisplacementMap
         id="feDisplacementMap3150"
         in2="result8"
         result="result4"
         scale="100"
         yChannelSelector="G"
         xChannelSelector="R"
         in="result11" />
      <feComposite
         id="feComposite3152"
         in2="SourceAlpha"
         result="result7"
         operator="arithmetic"
         in="result4"
         k2="1.3"
         k1="0"
         k3="0"
         k4="0" />
      <feColorMatrix
         id="feColorMatrix3154"
         result="fbSourceGraphicAlpha"
         in="result7"
         values="1 0 0 -1 0 1 0 1 -1 0 1 0 0 -1 0 -0.8 -1 0 4 -2.5 " />
      <feGaussianBlur
         id="feGaussianBlur3156"
         stdDeviation="0.5"
         result="result10" />
      <feDiffuseLighting
         id="feDiffuseLighting3158"
         surfaceScale="15"
         diffuseConstant="0.40000001"
         result="result6"
         lighting-color="#ffffff"
         in="result10">
        <feDistantLight
           id="feDistantLight3160"
           azimuth="235"
           elevation="25" />
      </feDiffuseLighting>
      <feComposite
         id="feComposite3162"
         in2="result7"
         operator="in"
         result="result2"
         in="result6" />
      <feComposite
         id="feComposite3164"
         in2="result7"
         operator="arithmetic"
         k2="0.8"
         k3="0.8"
         result="result12"
         k1="0"
         k4="0" />
      <feBlend
         id="feBlend3166"
         in2="result12"
         mode="lighten"
         result="fbSourceGraphic" />
      <feColorMatrix
         result="fbSourceGraphicAlpha"
         in="fbSourceGraphic"
         values="0 0 0 -1 0 0 0 0 -1 0 0 0 0 -1 0 0 0 0 1 0"
         id="feColorMatrix3180" />
      <feMorphology
         id="feMorphology3182"
         radius="7"
         operator="dilate"
         result="result8"
         in="fbSourceGraphic" />
      <feComposite
         id="feComposite3184"
         in2="result8"
         result="result10"
         in="fbSourceGraphic"
         operator="arithmetic"
         k1="0.5"
         k3="0.5"
         k2="0"
         k4="0" />
      <feTurbulence
         id="feTurbulence3186"
         result="result11"
         type="fractalNoise"
         numOctaves="2"
         baseFrequency="0.14000000000000001" />
      <feDisplacementMap
         id="feDisplacementMap3188"
         in2="result11"
         result="result12"
         in="result10"
         xChannelSelector="R"
         scale="40"
         yChannelSelector="A" />
      <feComposite
         id="feComposite3190"
         in2="result12"
         operator="arithmetic"
         result="fbSourceGraphic"
         in="fbSourceGraphic"
         k1="0.25"
         k2="0.25"
         k3="0.75"
         k4="0" />
      <feColorMatrix
         result="fbSourceGraphicAlpha"
         in="fbSourceGraphic"
         values="0 0 0 -1 0 0 0 0 -1 0 0 0 0 -1 0 0 0 0 1 0"
         id="feColorMatrix3202" />
      <feGaussianBlur
         id="feGaussianBlur3204"
         in="fbSourceGraphic"
         stdDeviation="15 0.01" />
    </filter>
    <radialGradient
       inkscape:collect="always"
       xlink:href="#linearGradient3755"
       id="radialGradient3206"
       gradientUnits="userSpaceOnUse"
       gradientTransform="matrix(1.3817417,-4.4419343e-8,2.5000001e-8,0.77766894,-366.47199,100.5742)"
       cx="960"
       cy="514.83209"
       fx="960"
       fy="514.83209"
       r="960" />
  </defs>
  <sodipodi:namedview
     id="base"
     pagecolor="#000000"
     bordercolor="#666666"
     borderopacity="1.0"
     inkscape:pageopacity="1"
     inkscape:pageshadow="2"
     inkscape:zoom="0.5"
     inkscape:cx="723.07382"
     inkscape:cy="587.693"
     inkscape:document-units="px"
     inkscape:current-layer="layer4"
     showgrid="false"
     borderlayer="true"
     inkscape:window-width="1920"
     inkscape:window-height="1028"
     inkscape:window-x="-3"
     inkscape:window-y="-3"
     inkscape:window-maximized="1" />
  <metadata
     id="metadata7">
    <rdf:RDF>
      <cc:Work
         rdf:about="">
        <dc:format>image/svg+xml</dc:format>
        <dc:type
           rdf:resource="http://purl.org/dc/dcmitype/StillImage" />
        <dc:title />
      </cc:Work>
    </rdf:RDF>
  </metadata>
  <g
     inkscape:label="Background-bottom"
     inkscape:groupmode="layer"
     id="layer1"
     transform="translate(0,147.63782)"
     style="display:inline">
    <rect
       style="fill:url(#radialGradient3206);fill-opacity:1;stroke:none;filter:url(#filter3142)"
       id="rect2985"
       width="1920"
       height="1200"
       x="0"
       y="-47.637817"
       transform="matrix(1,0,0,0.92857144,0,-60.545583)" />
  </g>
  <g
     inkscape:groupmode="layer"
     id="layer5"
     inkscape:label="Background-top"
     style="opacity:0.9;display:inline"
     sodipodi:insensitive="true">
    <rect
       y="0"
       x="0"
       height="1200"
       width="1920"
       id="rect3791"
       style="fill:url(#radialGradient3761);fill-opacity:1;stroke:none;filter:url(#filter4037)" />
  </g>
  <g
     inkscape:groupmode="layer"
     id="layer4"
     inkscape:label="III"
     style="opacity:0.6;display:inline">
    <path
       style="color:#000000;fill:#000000;fill-opacity:1;fill-rule:nonzero;stroke:none;stroke-width:1;marker:none;visibility:visible;display:inline;overflow:visible;filter:url(#filter4708);enable-background:accumulate"
       id="path4682"
       d="m 639.90184,241.64625 c 18.72553,26.8477 24.77494,33.96638 41.63449,67.68503 9.7375,19.47475 26.5173,37.66006 26.80084,59.7203 0.29089,22.63249 -21.07857,40.16561 -25.23171,62.36412 -26.24194,140.26294 40.93463,-21.0059 -22.86875,111.66468 24.6098,100.15547 8.44515,10.66935 10.42653,107.37955 -4.13039,29.99377 11.72905,57.16707 12.97581,86.25486 1.2136,28.31395 -8.28484,45.53743 -17.7835,71.02506 19.96612,41.99954 19.21555,18.95013 3.88698,53.10519 -3.24349,7.22714 -12.04404,15.10924 -8.5859,22.22267 4.33204,8.91106 20.28242,4.49222 25.60029,12.77617 6.4365,10.0265 -17.03827,33.86488 -19.56162,36.97294 3.85818,35.55998 -90.61107,47.17832 -94.46925,11.61832 l 0,0 c -8.91155,-2.10967 -16.49879,-3.26896 -22.19221,-15.22978 -4.40039,-9.24438 -2.19217,-20.59696 -3.47172,-30.8708 -1.31427,-10.55267 -4.93757,-20.97986 -4.30913,-31.60386 0.63273,-10.69668 8.79433,-20.31588 8.01237,-31.00136 -0.59647,-8.15075 -7.88103,-14.03381 -11.82154,-21.05071 -29.05597,-42.23616 -6.86241,-0.36572 -14.72031,-59.58604 -2.25566,-16.9996 -10.77632,-32.71744 -12.31994,-49.80699 -1.72905,-19.14264 1.9496,-38.40773 2.61611,-57.62558 2.48613,-71.6841 5.23337,-40.87024 -12.203,-109.27448 -1.94184,-17.20499 -1.33582,-34.95854 -5.82551,-51.61499 -5.03268,-18.67091 -23.66149,-33.78274 -22.41677,-53.16202 1.4062,-21.89349 22.69198,-37.13646 29.54585,-57.83233 5.69796,-17.20548 4.61517,-36.16299 7.53603,-54.13964 9.38146,-57.73902 1.78783,-37.21265 30.83403,-79.99031 0,-36.85572 97.91153,-36.85572 97.91153,0 z"
       inkscape:connector-curvature="0"
       transform="matrix(1.0336869,-0.08174628,0.08174628,1.0336869,-44.96496,72.315733)" />
    <path
       style="color:#000000;fill:#000000;fill-opacity:1;fill-rule:nonzero;stroke:none;stroke-width:1;marker:none;visibility:visible;display:inline;overflow:visible;filter:url(#filter4692);enable-background:accumulate"
       id="path4686"
       d="m 1321.8058,233.8525 c 11.264,26.96974 27.6007,61.25533 29.3307,90.3974 1.0353,17.43909 -3.9664,34.77589 -7.7199,51.83769 -3.1523,14.32876 -12.4291,27.40682 -12.9391,42.06935 -3.6702,105.50633 27.9576,-23.21596 0.8953,69.41946 26.2753,42.22181 34.5871,38.19077 21.5594,91.83584 -4.3922,18.08577 -19.2051,33.01758 -21.6441,51.46853 -2.1121,15.97836 5.0498,31.85741 8.5499,47.5901 2.7496,12.35888 13.1223,24.27964 10.179,36.59381 -3.1396,13.13538 -17.529,20.55032 -26.2935,30.82548 14.8756,57.14782 1.2239,2.8414 16.2681,69.56012 2.9339,13.01165 8.2523,25.62901 9.2575,38.92941 1.5187,20.09445 -4.7604,36.21849 -14.6633,52.79286 -2.0728,3.46913 -5.3378,6.06903 -8.0066,9.10354 1.0948,3.2215 3.285,6.26203 3.2845,9.6645 -8e-4,5.91008 -2.1834,11.61676 -3.2883,17.42265 -0.2096,1.1017 -0.2109,2.27033 -0.6552,3.3 -2.7112,6.28174 -5.8512,12.36955 -8.7768,18.55432 -10.2351,30.38414 -96.1744,1.43486 -85.9393,-28.94927 l 0,0 c -1.1278,3.64873 0.3805,10.29897 -3.3834,10.94619 -3.5833,0.61618 -6.0922,-5.83054 -5.5022,-9.41823 1.2082,-7.34584 27.7393,16.76521 -3.2778,-7.69945 -13.4332,-15.38496 -22.2798,-21.84423 -27.2291,-42.919 -2.6145,-11.13315 -1.8474,-22.79751 -2.8445,-34.19 -0.9926,-11.33985 -2.8338,-22.62689 -3.1244,-34.00638 -0.1958,-7.67055 3.4768,-57.46315 3.8626,-62.99973 -2.764,-12.01947 -3.7014,-24.61136 -8.2918,-36.05841 -5.7959,-14.45309 -20.2853,-25.49826 -22.5702,-40.90161 -2.3156,-15.61088 8.6072,-30.60728 9.6269,-46.35599 1.1095,-17.13665 -1.6142,-34.32209 -3.2968,-51.41199 -1.5149,-15.3874 -8.9247,-30.72142 -6.2895,-45.957 2.6975,-15.59604 14.3706,-28.20526 21.556,-42.30788 -0.8188,-12.91669 -1.6377,-25.83337 -2.4565,-38.75006 -3.1416,-12.25157 -8.2497,-24.16147 -9.4248,-36.75472 -1.4345,-15.37191 1.1345,-30.85654 1.6758,-46.28574 0.6095,-17.37074 -0.5285,-34.88607 1.7764,-52.11399 5.6875,-42.51194 12.0022,-49.1509 29.27,-85.2318 0,-42.61203 120.525,-42.61203 120.525,0 z"
       inkscape:connector-curvature="0"
       transform="matrix(0.99386191,0.11062774,-0.11062774,0.99386191,120.11534,-91.71306)" />
    <path
       style="color:#000000;fill:#000000;fill-opacity:1;fill-rule:nonzero;stroke:none;stroke-width:1;marker:none;visibility:visible;display:inline;overflow:visible;filter:url(#filter4700);enable-background:accumulate"
       id="path4690"
       d="m 982.41499,153.65501 c 56.30541,93.18402 -16.50985,-37.14139 24.35151,74.19562 6.8343,18.62171 26.7585,32.07714 29.4053,51.73599 2.8127,20.89179 -14.0403,40.55948 -14.1412,61.63952 -0.7399,154.55809 38.6742,-25.72187 -4.5072,129.59087 9.9616,19.89704 27.2533,37.59584 29.8848,59.69111 2.3021,19.33046 -11.7127,37.17246 -16.0898,56.14105 -3.8071,16.49821 -9.7798,33.21445 -8.4243,50.09187 1.2489,15.55001 13.5766,28.57366 15.9802,43.98746 15.908,102.014 -27.6859,1.25348 24.3367,99.00954 -32.0929,89.66165 -9.5563,8.78526 -16.6067,88.13753 -7.8951,38.92869 -8.2517,34.19066 -11.0612,73.36896 -0.7357,10.26011 2.4641,21.24719 -1.2664,30.83336 -3.5853,9.21318 -12.9645,14.92882 -19.4467,22.39321 1.2091,4.4909 5.4645,9.2001 3.6274,13.4727 -1.4088,3.2762 -7.7426,4.6982 -10.4352,2.3599 -9.67311,-8.3999 -15.08321,-20.71249 -22.62478,-31.06879 25.96308,15.47249 -17.79965,88.90719 -43.76275,73.43479 l 0,0 c -10.60432,-9.3532 -21.52559,-18.3588 -31.81296,-28.0595 -4.79322,-4.5198 -11.0328,-8.3936 -13.37508,-14.5514 -2.44652,-6.4317 -0.008,-13.7627 -0.0126,-20.64399 -2.64061,-8.37377 -8.03685,-16.34177 -7.92185,-25.12124 0.11691,-8.92521 11.95123,-17.0989 8.58317,-25.36504 -5.27581,-12.9483 -25.83611,-15.54022 -30.60537,-28.68353 -3.97501,-10.95449 9.04762,-22.48116 7.83385,-34.07116 -1.39754,-13.3448 -10.20072,-24.82121 -15.30108,-37.23182 -0.18826,-13.81887 -0.37653,-27.63775 -0.5648,-41.45663 24.99596,-108.16299 8.50249,12.2081 -14.0752,-91.97233 -3.7949,-17.51081 6.59137,-35.90081 3.87963,-53.61172 -2.9255,-19.10699 -17.18066,-35.22266 -20.39947,-54.28243 -3.38469,-20.04196 0.62374,-40.64673 0.93561,-60.97009 -5.34331,-21.82409 -10.68663,-43.64818 -16.02994,-65.47227 -2.14744,-20.91316 -13.12146,-109.52864 -7.94349,-131.24958 5.29996,-22.23266 25.27409,-38.96596 31.27129,-61.02077 4.96776,-18.26906 -2.60644,-38.16228 0.76469,-56.79217 6.72234,-37.14974 16.94416,-43.70458 38.25015,-68.45902 0,-37.9376 107.30375,-37.9376 107.30375,0 z"
       inkscape:connector-curvature="0"
       transform="matrix(0.9987451,0.0500821,-0.0500821,0.9987451,56.53134,-38.010575)" />
  </g>
</svg>
