/* XPM */
static char *siduction[] = {
/* columns rows colors chars-per-pixel */
"32 32 149 2 ",
"   c #162D4F",
".  c #172E4F",
"X  c #152C50",
"o  c #152D50",
"O  c #162C50",
"+  c #162D50",
"@  c #172D50",
"#  c #162D51",
"$  c #162E50",
"%  c #162E51",
"&  c #172E52",
"*  c #172F53",
"=  c #183054",
"-  c #183055",
";  c #193156",
":  c #1A3257",
">  c #1A3358",
",  c #1B3359",
"<  c #1B3459",
"1  c #1B345A",
"2  c #1C355B",
"3  c #1C355C",
"4  c #1C365C",
"5  c #1D375E",
"6  c #1E385F",
"7  c #1F3960",
"8  c #1F3961",
"9  c #1F3A61",
"0  c #203A62",
"q  c #203A63",
"w  c #203B63",
"e  c #213B63",
"r  c #213C64",
"t  c #213C65",
"y  c #223D66",
"u  c #223D67",
"i  c #233E67",
"p  c #233F69",
"a  c #243F69",
"s  c #24406A",
"d  c #25416B",
"f  c #24416C",
"g  c #25416C",
"h  c #25426C",
"j  c #26426D",
"k  c #284571",
"l  c #284670",
"z  c #294573",
"x  c #294672",
"c  c #294673",
"v  c #294773",
"b  c #2A4773",
"n  c #2A4774",
"m  c #2A4775",
"M  c #2A4875",
"N  c #2B4976",
"B  c #2C4A78",
"V  c #2C4B78",
"C  c #2D4B79",
"Z  c #2C4B7A",
"A  c #2D4C7A",
"S  c #2E4D7C",
"D  c #2F4E7D",
"F  c #2F4E7E",
"G  c #304F7F",
"H  c #305080",
"J  c #315080",
"K  c #315181",
"L  c #325181",
"P  c #315182",
"I  c #325182",
"U  c #325282",
"Y  c #335282",
"T  c #325382",
"R  c #325283",
"E  c #335283",
"W  c #325383",
"Q  c #325284",
"!  c #335384",
"~  c #345384",
"^  c #335485",
"/  c #345486",
"(  c #345586",
")  c #355587",
"_  c #355588",
"`  c #355688",
"'  c #355789",
"]  c #365789",
"[  c #36578A",
"{  c #36588A",
"}  c #37588B",
"|  c #37598C",
" . c #385A8D",
".. c #395B8F",
"X. c #3A5C90",
"o. c #3A5D91",
"O. c #395D92",
"+. c #3A5D92",
"@. c #3B5D92",
"#. c #3B5E93",
"$. c #3B5E94",
"%. c #3C5F94",
"&. c #3C5F95",
"*. c #3D6096",
"=. c #3D6197",
"-. c #3F639A",
";. c #40649B",
":. c #40649C",
">. c #41659D",
",. c #41669D",
"<. c #41669E",
"1. c #42679F",
"2. c #4267A0",
"3. c #4368A0",
"4. c #4368A1",
"5. c #4369A2",
"6. c #4469A2",
"7. c #446AA3",
"8. c #456BA5",
"9. c #456CA5",
"0. c #466CA6",
"q. c #466DA7",
"w. c #476DA8",
"e. c #476EA9",
"r. c #486FAA",
"t. c #4970AB",
"y. c #4970AC",
"u. c #4971AD",
"i. c #4A72AE",
"p. c #4B73AF",
"a. c #4C74B1",
"s. c #4D75B2",
"d. c #4D76B3",
"f. c #4D76B4",
"g. c #4E76B4",
"h. c #4F78B6",
"j. c #5079B8",
"k. c #507AB9",
"l. c #517AB9",
"z. c #517BBB",
"x. c #527CBC",
"c. c #537DBD",
"v. c #547EBF",
"b. c #557FC1",
"n. c #5681C3",
"m. c #5783C5",
"M. c #5884C6",
"N. c #5A87CB",
"B. c None",
/* pixels */
"B.B.B.B.B.B.B.B.B.B.B.B.B.B.B.B.B.B.B.B.B.B.B.B.B.B.B.B.B.B.B.B.",
"B.B.B.B.B.B.B.B.B.B.B.B.B.v %.6.%.B.B.B.B.B.B.B.B.B.B.B.B.B.B.B.",
"B.B.B.B.B.B.B.B.B.B.B.B.: T 8.N.w.T B.B.B.B.B.B.B.B.B.B.B.B.B.B.",
"B.B.B.B.B.B.B.B.B.B.B.B.* A >.s.6.G B.B.B.B.B.B.B.B.B.B.B.B.B.B.",
"B.B.B.B.B.B.B.B.B.B.B.B.o r G ] T r B.B.B.B.B.B.B.B.B.B.B.B.B.B.",
"B.B.B.B.B.B.B.B.B.B.B.B.B.o < q 3 o B.B.B.B.B.B.B.B.B.B.B.B.B.B.",
"B.B.B.B.B.B.B.B.B.B.B.B.B.B.o o * B.B.B.Z E B.B.B.B.B.B.B.B.B.B.",
"B.B.B.B.B.B.B.B.E ` B.B.B.B.B.B.B.B.B.Z *.w.>.~ B.B.B.B.B.B.B.B.",
"B.B.B.B.B.B.B.T w.g.X.B.B.B.B.B.B.B.7 E w.N.g. .f B.B.B.B.B.B.B.",
"B.B.B.B.B.B.> ^ p.x.*.f B.B.B.B.B.B.< G 2.g.w.] i B.B.B.B.B.B.B.",
"B.B.B.B.B.B.  v  .$.F 1 B.B.B.B.B.B.* d !  .] m : B.B.B.B.B.B.B.",
"B.B.B.B.B.B.  o q p > B.B.B.B.B.B.B.o o r f r : B.B.B.B.B.B.B.B.",
"B.B.B.B.B.B.B.o o o B.B.B.B.B.B.B.B.B.o o o o * B.B.F } ] B.B.B.",
"B.B.Z T B.B.B.B.B.B.B.B.B.v } X.E B.B.B.B.B.B.B.B.F *.w.8.X.m B.",
"B.v 4.g.X.B.B.B.B.B.B.B.6 ` w.l.>.N B.B.B.B.B.B.r ^ 9.M.c.>.F B.",
"B.N 8.x.%.q B.B.B.B.B.B.7 ` i.b.>.A B.B.B.B.B.B.9 T >.h.s.*.Z B.",
"B.q T  .N * B.B.B.B.B.B.: N X.;.] a B.B.B.B.B.B.: k ] *.*.T a B.",
"B.o o < @ B.B.B.B.B.B.B.  , d v r * B.B.B.B.B.B.o 1 f n N a : B.",
"B.B.B.B.B.B.B.B.B.B.B.B.B.o o o * B.B.B.B.B.B.B.o o o : : o   B.",
"B.B.B.B.B.B.B.B.T | B.B.B.B.B.B.B.B.B.v | *. .B.B.B.*     B.B.B.",
"B.B.B.B.B.B.B.Z 6.l.:.v B.B.B.B.B.B.q ` w.l.9.` B.B.B.B.B.B.B.B.",
"B.B.B.B.B.B.o A 8.c.>.v B.B.B.B.B.B.e ` t.M.i.} r B.B.B.B.B.B.B.",
"B.B.B.B.B.B.o a ` X.T 9 B.B.B.B.B.B.< Z *.6.%.A 3 B.B.B.B.B.B.B.",
"B.B.B.B.B.B.B.o 3 t 3 O B.B.B.B.B.B.* q N G N q o B.B.B.B.B.B.B.",
"B.B.B.B.B.B.B.B.o *   B.B.B.B.B.B.B.@ o - , - o B.B.B.B.B.B.B.B.",
"B.B.B.B.B.B.B.B.B.B.B.B.B.B.E X.] B.B.B.* o o B.B.B.B.B.B.B.B.B.",
"B.B.B.B.B.B.B.B.B.B.B.B.B.Z >.l.9.T B.B.B.B.B.B.B.B.B.B.B.B.B.B.",
"B.B.B.B.B.B.B.B.B.B.B.B.: A 6.n.w.` B.B.B.B.B.B.B.B.B.B.B.B.B.B.",
"B.B.B.B.B.B.B.B.B.B.B.B.* f ] ;.X.N * B.B.B.B.B.B.B.B.B.B.B.B.B.",
"B.B.B.B.B.B.B.B.B.B.B.B.@ * a v f 3 B.B.B.B.B.B.B.B.B.B.B.B.B.B.",
"B.B.B.B.B.B.B.B.B.B.B.B.B.@ o * * o B.B.B.B.B.B.B.B.B.B.B.B.B.B.",
"B.B.B.B.B.B.B.B.B.B.B.B.B.B.B.B.B.B.B.B.B.B.B.B.B.B.B.B.B.B.B.B."
};
