<?xml version="1.0" encoding="UTF-8" standalone="no"?>
<!-- Created with Inkscape (http://www.inkscape.org/) -->

<svg
   xmlns:dc="http://purl.org/dc/elements/1.1/"
   xmlns:cc="http://creativecommons.org/ns#"
   xmlns:rdf="http://www.w3.org/1999/02/22-rdf-syntax-ns#"
   xmlns:svg="http://www.w3.org/2000/svg"
   xmlns="http://www.w3.org/2000/svg"
   xmlns:sodipodi="http://sodipodi.sourceforge.net/DTD/sodipodi-0.dtd"
   xmlns:inkscape="http://www.inkscape.org/namespaces/inkscape"
   sodipodi:docname="lang.svg"
   height="32"
   id="svg7384"
   inkscape:version="0.91+devel r"
   version="1.1"
   width="32"
   viewBox="0 0 32 32">
  <metadata
     id="metadata90">
    <rdf:RDF>
      <cc:Work
         rdf:about="">
        <dc:format>image/svg+xml</dc:format>
        <dc:type
           rdf:resource="http://purl.org/dc/dcmitype/StillImage" />
        <dc:title>Gnome Symbolic Icon Theme</dc:title>
      </cc:Work>
    </rdf:RDF>
  </metadata>
  <sodipodi:namedview
     inkscape:bbox-nodes="true"
     inkscape:bbox-paths="true"
     bordercolor="#666666"
     borderopacity="1"
     inkscape:current-layer="layer10"
     inkscape:cx="16.637487"
     inkscape:cy="14.118597"
     gridtolerance="10"
     inkscape:guide-bbox="true"
     guidetolerance="10"
     id="namedview88"
     inkscape:object-nodes="false"
     inkscape:object-paths="false"
     objecttolerance="10"
     pagecolor="#ffffff"
     inkscape:pageopacity="0"
     inkscape:pageshadow="2"
     showborder="true"
     showgrid="false"
     showguides="true"
     inkscape:snap-bbox="true"
     inkscape:snap-bbox-midpoints="false"
     inkscape:snap-global="true"
     inkscape:snap-grids="true"
     inkscape:snap-nodes="true"
     inkscape:snap-others="false"
     inkscape:snap-to-guides="true"
     inkscape:window-height="1136"
     inkscape:window-maximized="1"
     inkscape:window-width="1920"
     inkscape:window-x="0"
     inkscape:window-y="0"
     inkscape:zoom="22.627418"
     inkscape:document-units="px"
     inkscape:checkerboard="true"
     inkscape:snap-page="true"
     inkscape:locked="false"
     borderlayer="true"
     inkscape:showpageshadow="false">
    <inkscape:grid
       empspacing="2"
       enabled="true"
       id="grid4866"
       originx="120.0002px"
       originy="230px"
       snapvisiblegridlinesonly="true"
       spacingx="1px"
       spacingy="1px"
       type="xygrid"
       visible="true" />
    <inkscape:grid
       color="#000000"
       empcolor="#000000"
       empopacity="0"
       empspacing="4"
       enabled="true"
       id="grid5968"
       opacity="0.1254902"
       originx="120.0002px"
       originy="230px"
       snapvisiblegridlinesonly="true"
       spacingx="0.5px"
       spacingy="0.5px"
       type="xygrid"
       visible="true" />
    <sodipodi:guide
       position="4,28"
       orientation="1,0"
       id="guide70"
       inkscape:locked="false" />
    <sodipodi:guide
       position="4,28"
       orientation="0,1"
       id="guide72"
       inkscape:locked="false" />
    <sodipodi:guide
       position="28,4"
       orientation="0,1"
       id="guide74"
       inkscape:locked="false" />
    <sodipodi:guide
       position="28,4"
       orientation="1,0"
       id="guide76"
       inkscape:locked="false" />
    <sodipodi:guide
       position="-11.000001,44.875001"
       orientation="0,1"
       id="guide4339"
       inkscape:locked="false" />
    <sodipodi:guide
       position="-11.000001,41.125"
       orientation="1,0"
       id="guide4341"
       inkscape:locked="false" />
  </sodipodi:namedview>
  <title
     id="title9167">Gnome Symbolic Icon Theme</title>
  <defs
     id="defs7386" />
  <g
     inkscape:groupmode="layer"
     id="layer9"
     inkscape:label="status"
     style="display:inline"
     transform="translate(-121,-431)" />
  <g
     inkscape:groupmode="layer"
     id="layer10"
     inkscape:label="devices"
     style="display:inline"
     transform="translate(-121,-431)">
    <rect
       style="fill:#0000ff"
       id="rect30-3"
       width="2"
       height="2"
       x="117"
       y="427" />
    <rect
       style="fill:#0000ff"
       id="rect30-3-3"
       width="2"
       height="2"
       x="119"
       y="429" />
    <rect
       style="display:inline;fill:#0000ff"
       id="rect30-3-36"
       width="2"
       height="2"
       x="153"
       y="463" />
    <rect
       style="display:inline;fill:#0000ff"
       id="rect30-3-3-7"
       width="2"
       height="2"
       x="155"
       y="465" />
    <path
       id="path24839"
       style="color:#000000;font-style:normal;font-variant:normal;font-weight:normal;font-stretch:normal;font-size:medium;line-height:normal;font-family:Sans;-inkscape-font-specification:Sans;text-indent:0;text-align:start;text-decoration:none;text-decoration-line:none;letter-spacing:normal;word-spacing:normal;text-transform:none;writing-mode:lr-tb;direction:ltr;baseline-shift:baseline;text-anchor:start;display:inline;overflow:visible;visibility:visible;fill:#bebebe;fill-opacity:1;stroke:none;stroke-width:3.45231867;marker:none;enable-background:new"
       d="m 137,435 c -6.62028,0 -12,5.37972 -12,12.00001 0,6.62027 5.37972,11.99999 12,11.99999 6.62029,0 12,-5.37972 12,-11.99999 C 149,440.37972 143.62029,435 137,435 Z m 0,3.16282 c 4.88778,0 8.83723,3.94941 8.83723,8.83719 0,4.88777 -3.94945,8.83718 -8.83723,8.83718 -4.88777,0 -8.83722,-3.94941 -8.83722,-8.83718 0,-4.88778 3.94945,-8.83719 8.83722,-8.83719 z m 0.009,-0.95959 c -5.42806,-1.2e-4 -9.82839,4.39358 -9.82825,9.81344 -1.4e-4,5.41987 4.40019,9.81357 9.82825,9.81345 5.42803,1.2e-4 9.82836,-4.39358 9.82823,-9.81345 1.3e-4,-5.41986 -4.4002,-9.81356 -9.82823,-9.81344 z m 0,1.03462 c 1.3493,0.005 2.67958,0.31838 3.88758,0.91941 l -0.0369,0.11818 -0.13239,0.21173 -0.23839,0.29125 -0.37138,0.0264 -0.34441,-0.0527 -0.18569,-0.26494 -0.37136,-0.3439 -0.48265,0.3439 -0.78959,0.37082 -0.84815,0.47606 -0.26538,0.58135 0.10604,0.26555 0.55704,-0.26555 h 0.31806 0.23839 0.0534 v 0.39831 l 0.0528,0.31758 -0.10603,0.21172 -0.13238,0.2702 h -0.45043 -0.45103 -0.29169 l -0.34443,-0.34975 -0.21205,-0.21172 -0.42408,0.1585 -0.0265,0.40297 -0.27825,0.24565 -0.22549,0.0398 h -0.25187 l -0.14587,-0.0264 h -0.13237 -0.19915 l -0.27824,-0.0134 -0.13237,0.0661 -0.0797,0.1059 0.0797,0.093 0.11953,0.0527 0.19856,0.14564 0.19858,0.17194 0.17278,0.0661 0.0131,0.19884 -0.0926,0.0924 -0.11954,0.0134 h -0.26474 l -0.34501,0.0398 v 0.0924 l 0.0134,0.26494 0.14588,0.15851 0.47679,0.0532 0.29169,-0.0398 0.11954,-0.0929 0.17221,-0.17194 0.0399,-0.1585 0.0399,-0.13277 0.0527,-0.1187 0.0662,-0.1059 c 0,0 -0.0394,-0.0268 0.13295,-0.0929 0.17232,-0.0663 0.2519,-0.10591 0.2519,-0.10591 l 0.13238,-0.0527 0.10601,-0.0398 0.14585,0.0795 0.0662,0.0527 0.33152,0.23864 0.0662,0.0924 0.19856,0.34391 0.19915,0.2515 0.23841,0.3708 0.22551,0.18541 0.23839,0.1059 0.29172,0.13217 0.25187,0.0661 0.14525,-0.13217 0.04,-0.19887 c 0,0 0.0137,-0.0796 0.0269,-0.14562 0.0132,-0.0663 0.0131,-0.11909 0.0264,-0.21172 0.0132,-0.0926 0.0133,-0.0926 0.04,-0.21172 0.0265,-0.1191 0.0662,-0.25149 0.0662,-0.25149 l 0.4106,-0.33045 0.3579,-0.17197 0.31806,-0.0134 0.25306,0.10591 v 0.25149 l 0.17102,0.18539 0.0134,0.21173 0.0134,0.27781 -0.19799,-0.0134 -0.21322,0.48953 0.0797,0.30472 -0.22549,0.21173 -0.31808,0.0924 -0.18568,0.11936 -0.3368,0.0661 -0.17982,0.1322 -0.2384,0.17253 -0.39772,0.17195 -0.2384,0.18481 -0.11953,0.0398 -0.47738,0.0796 -0.19858,-0.15848 -0.54357,-0.27841 -0.38424,-0.4363 -0.42409,-0.39713 -0.56992,-0.25149 -0.51665,-0.0795 -0.59687,0.0264 -0.59629,0.17254 -0.47738,0.25149 -0.51663,0.63516 -0.26535,0.47608 -0.0392,0.5293 -0.0268,1.03228 0.38424,0.90011 0.67595,0.68137 h 0.58341 l 0.90145,0.2316 0.72868,0.0398 c 0,0 0.59658,0.41035 0.6496,0.50299 0.053,0.0925 0.33123,0.82042 0.38425,0.84688 0.053,0.0265 0.21204,1.5616 0.21204,1.5616 l 0.0661,1.09836 0.13295,0.58254 0.31807,0.35735 0.91436,0.48954 0.85579,0.33102 0.43109,0.0229 0.31689,-0.81706 -0.15932,-1.16447 1.03386,-2.72605 1.7496,-2.32954 -0.57773,-0.11091 -0.48246,0.19047 -0.68941,0.0527 -0.42292,-0.39654 v -0.58254 l 0.42292,-0.31757 h 1.00747 l 0.58341,0.37022 h 0.34441 l 0.50376,-0.23804 1.56392,0.26495 0.50375,0.47607 0.18509,0.7147 0.42467,0.23804 0.11153,0.0519 c 0.0472,0.29556 1.39691,-1.02301 0.20543,-2.02394 8e-5,4.84829 -3.93101,8.77868 -8.78034,8.77882 -4.39645,-0.005 -8.11115,-3.26097 -8.69249,-7.61786 l 0.92077,-0.79481 -0.0738,-0.98259 -0.8142,-0.43162 c -0.0133,0.3514 0.0275,-0.37635 -0.0215,-0.0281 0.004,-1.66661 0.29016,-2.09331 1.18658,-3.49842 l 0.10935,0.0454 0.71227,0.14972 1.79942,-1.72183 -0.4727,-0.85564 c 1.53271,-1.17938 3.41201,-1.81982 5.34611,-1.82186 z m 2.15553,17.1266 -8.2e-4,0.005 h 0.0662 z"
       inkscape:connector-curvature="0"
       sodipodi:nodetypes="sssssssssscccccccccccccccccccccccccccccccccccccccccccccccccccccccccccccccccccccccccccccccccccccccccccccccccccccccccccccccccccccccccccccccccccccccccccccccccccccccccccccccccccccccccc" />
  </g>
  <g
     inkscape:groupmode="layer"
     id="layer11"
     inkscape:label="apps"
     transform="translate(-121,-431)" />
  <g
     inkscape:groupmode="layer"
     id="layer13"
     inkscape:label="places"
     style="display:inline"
     transform="translate(-121,-431)" />
  <g
     inkscape:groupmode="layer"
     id="layer14"
     inkscape:label="mimetypes"
     transform="translate(-121,-431)" />
  <g
     inkscape:groupmode="layer"
     id="layer15"
     inkscape:label="emblems"
     style="display:inline"
     transform="translate(-121,-431)" />
  <g
     inkscape:groupmode="layer"
     id="g71291"
     inkscape:label="emotes"
     style="display:inline"
     transform="translate(-121,-431)" />
  <g
     inkscape:groupmode="layer"
     id="g4953"
     inkscape:label="categories"
     style="display:inline"
     transform="translate(-121,-431)" />
  <g
     inkscape:groupmode="layer"
     id="layer12"
     inkscape:label="actions"
     style="display:inline"
     transform="translate(-121,-431)" />
</svg>
