/* XPM */
static char *chipsyBug[] = {
/* columns rows colors chars-per-pixel */
"32 32 210 2 ",
"   c #00004C",
".  c #00004D",
"X  c #00004E",
"o  c #00004F",
"O  c #04044E",
"+  c #04044F",
"@  c #110F4F",
"#  c #000050",
"$  c #1C3456",
"%  c #26416A",
"&  c #294673",
"*  c #2A4774",
"=  c #2C4975",
"-  c #2C4A78",
";  c #3C577E",
":  c #645C48",
">  c #776C4C",
",  c #7D6F4D",
"<  c #7B7048",
"1  c #7F724A",
"2  c #4B5B74",
"3  c #943939",
"4  c #963B3B",
"5  c #973B3B",
"6  c #924F38",
"7  c #964E3C",
"8  c #95503A",
"9  c #935738",
"0  c #975639",
"q  c #915C3C",
"w  c #95623C",
"e  c #9A4E46",
"r  c #905545",
"t  c #995041",
"y  c #985241",
"u  c #9B5147",
"i  c #9D5A4A",
"p  c #9E5F54",
"a  c #9A6246",
"s  c #837648",
"d  c #94665B",
"f  c #96675B",
"g  c #A17840",
"h  c #A6745F",
"j  c #916E66",
"k  c #966E66",
"l  c #8F7777",
"z  c #8D7979",
"x  c #8F7979",
"c  c #927671",
"v  c #907777",
"b  c #957774",
"n  c #937878",
"m  c #917A7A",
"M  c #917B7B",
"N  c #927A7A",
"B  c #8E804B",
"V  c #9C8244",
"C  c #9E8748",
"Z  c #A18345",
"A  c #A18F4B",
"S  c #A3924B",
"D  c #A69249",
"F  c #AF807D",
"G  c #415D87",
"H  c #5F6E84",
"J  c #42679F",
"K  c #496A9B",
"L  c #5C769E",
"P  c #646F80",
"I  c #667387",
"U  c #66758C",
"Y  c #687589",
"T  c #6A788E",
"R  c #6C7A91",
"E  c #6F7D93",
"W  c #6C7F9A",
"Q  c #6C7F9B",
"!  c #707D91",
"~  c #717E93",
"^  c #466CA6",
"/  c #466DA6",
"(  c #4D76B3",
")  c #738095",
"_  c #788393",
"`  c #738298",
"'  c #7B889C",
"]  c #5E83BB",
"[  c #5F83BB",
"{  c #6F83A0",
"}  c #6F83A1",
"|  c #6A82A7",
" . c #7486A3",
".. c #7186A4",
"X. c #7287A7",
"o. c #778BA7",
"O. c #7889A1",
"+. c #7388A9",
"@. c #7991B6",
"#. c #7D96BC",
"$. c #7E96BC",
"%. c #7F98BD",
"&. c #88919F",
"*. c #B18583",
"=. c #B18785",
"-. c #B38686",
";. c #B6908E",
":. c #BD928B",
">. c #B89090",
",. c #B0A184",
"<. c #8E95A1",
"1. c #8A94A4",
"2. c #8E97A4",
"3. c #8492A8",
"4. c #8A96A9",
"5. c #8F98A8",
"6. c #9098A4",
"7. c #939AA6",
"8. c #9099A8",
"9. c #969FAD",
"0. c #8098BF",
"q. c #869CBE",
"w. c #8A9DBB",
"e. c #9EA0A4",
"r. c #9FA4AD",
"t. c #A7A8A9",
"y. c #A5A9AD",
"u. c gray68",
"i. c #B8A1A0",
"p. c #B4ADAD",
"a. c #B5AEAE",
"s. c #A4A9B1",
"d. c #A1A9B4",
"f. c #A0A8B5",
"g. c #A3AAB5",
"h. c #A7AEB9",
"j. c #A9AFBA",
"k. c #ABB1BA",
"l. c #ABB1BB",
"z. c #ADB3BC",
"x. c gray69",
"c. c #B0B2B4",
"v. c #B6B6B6",
"b. c #B9B9B9",
"n. c gray73",
"m. c #B9BCBF",
"M. c #C1AFAF",
"N. c #C2AFAF",
"B. c #CAADAB",
"V. c #CBAEAE",
"C. c #CEB7B7",
"Z. c #819AC1",
"A. c #839DC5",
"S. c #849DC5",
"D. c #849EC6",
"F. c #88A3CD",
"G. c #92A4C0",
"H. c #A3AEC0",
"J. c #A7B1C2",
"K. c #ABB5C4",
"L. c #B3B9C1",
"P. c #B4B9C0",
"I. c #B8BDC4",
"U. c #BCBFC4",
"Y. c #BEC2C8",
"T. c #BFC3C8",
"R. c #BDC2CA",
"E. c #BDC3CB",
"W. c #C0C1C4",
"Q. c #C8C1C1",
"!. c #CAC6C6",
"~. c #C0C4CA",
"^. c #C2C5CA",
"/. c #C3C7CD",
"(. c #C4C7CC",
"). c #C5C8CC",
"_. c #C5C8CD",
"`. c #C6C9CC",
"'. c #C6C8CD",
"]. c #CACACB",
"[. c #C8CACE",
"{. c gray80",
"}. c #CDCDCD",
"|. c #CECECE",
" X c gray81",
".X c #D3C6C6",
"XX c #D0CCCC",
"oX c #D4CFCF",
"OX c #C9CCD0",
"+X c #CACCD0",
"@X c #CACDD0",
"#X c #CCCED0",
"$X c #CFD1D3",
"%X c gray82",
"&X c #D0D2D5",
"*X c #D2D3D5",
"=X c #D2D3D6",
"-X c #D5D5D5",
";X c #D4D5D7",
":X c #D5D6D7",
">X c #D7D8D9",
",X c #D8D8D8",
"<X c #D9D9DA",
"1X c #DADADA",
"2X c gray86",
"3X c #DBDBDC",
"4X c #DBDCDC",
"5X c gainsboro",
"6X c #DDDDDD",
"7X c None",
/* pixels */
"7X7X7X7X7X7X7Xo 7X7X7X7X7X7X7X7X7X7X7X7X7X7X7X7X7Xo 7X7X7X7X7X7X",
"7X7X7X7X7X7X7Xo 7X7X7X7X7X7X7X7X7X7X7X7X7X7X7Xo 7X7X7X7X7X7X7X7X",
"7X7X7X7X7X7X7Xo 7X7X7X7X7X7X7X7X7X7X7X7X7X7Xo 7X7X7X7X7X7X7X7X7X",
"7X7X7X7X7X7X7X7X7X# 7X7X7X7X7X7X7X7X7X7X7X7X7X7Xo 7X7X7X7X7X7X7X",
"7X7X7X7X7X7X7X7X7X7X7X7X7X7X7X7X7X7X7X7X7X7Xo 7X7X7X7X7X7X7X7X7X",
"7X7X7X7X7X7X7X7X7X7X7X7X7X7X7X7X7X7X7X7X7X7X7Xo 7X7X7Xo 7X7X7X7X",
"7X7X7X7X7Xo 7X7X+ > 7X9 4 4 4 3 4 4 3 8 9 g 7X7X7X7X7X7X7X7X7X7X",
"7X7X7Xo 7X7X7X7XC y ;.oX2X6X3X;X}.{.].{.Q.-.y V 7X7X7X7X7X7X7X7X",
"7X7X7X7X7X7X7X7Xi XX2X6X6X6X3XY.(.}.{.{.{.{.!.e D 7Xo 7X7Xo 7X7X",
"7X7X7X7X7X7X7Xa a.2X6X6X6X6Xf.D.0.Y.}.{.{.{.{.p.r 7X7X7X7Xo 7X7X",
"7X7X7X7X7X7Xs k v.6X6X6X6X6X5.+.X.m.$X].{.{.{.u.j s 7X7X7X7X7X7X",
"7X7X7X7X7X7X7Xn b.2X6X6X+X*X$X9.d./.o.3.].{.{.u.n 7X7X7X7X7X7X7X",
"7X7X7X7X7X7X7XM n.2X6Xz.S.q.;X6X6XO.] ^ 2.{.{.u.x 7X7X7X7X7X7X7X",
"7X7X7X7X7X7X7XM n.6X6Xd...} *X6X6X~ G = <.{.{.u.x 7X7X7X7X7X7X7X",
"7X7X7X7X7X7X7XM n.^.(.<Xl.Y.*XJ.E._.Y _ ' K L e.x 7X7X7X7X7X7X7X",
"7X7X7X7X7X7X7XM t.@.S.+X6X6X4.F.%.].%Xm.& ( ^ H x 7X7X7X7X7X7X7X",
"7X7X7X7X7X7X7XM c.R ` ;X6X6X1.} { {.$XY.$ - & P x 7X7X7X7X7X7X7X",
"7X7X7X7X7X7X7XM n.<X<X,XH.K.;Xh.Y.L.|  .7.2 I t.x 7X7X7X7X7X7X7X",
"7X7X7X7X7X7X7XM n.6X6Xl.#.0.Y.6X<XW [ J 6.{.{.u.x 7X7X7X7Xo # o ",
"7X7X7X7X7X7X7XM n.6X6X_.T ) ;X6X6X! ; % s.{.{.u.l 7X7X7X7Xo 7X7X",
"7X7X7X7X7X7XS b n.5X6X6X6X6X^.w.G.`.&.r.{.{.{.u.c 1 + 7Xo 7X7X7X",
"# 7X7Xo 7X7X1 d n.5X6X6X6X6X8.#.$.k.%X{.{.{.{.x.d 7X7X7X7X7X7X7X",
"7X7X7X7X7X7X@ w N.5X6X6X6X6XI.U ~ }.$X{.{.{.{.i.q 7X7X7X7X7X7X7X",
"7X7Xo 7X7X7X7X7Xi .X6X6X6X6X6X<X4X,X}.].{.{.M.8 7Xo 7X7X7X7X7X7X",
"7X7X7X7X7X7X7X7X, h :.B.C.C.C.C.V.>.-.*.F p 6 A 7X7X7X7Xo 7X7X7X",
"7X7X7X7X7X7X7X7X7X7X7X,.7X7X7X7X7X7X7X7XZ : 7X7X7Xo 7X7X7X7X7X7X",
"7X7X7X7Xo 7X7X7X7X7X7X7X7X7X7X7X7X7X7X7X7X7X7Xo 7X7X7X7X7X7X7X7X",
"7X7X7X7X7X7X7X7X7X7X7X7X7X7X7X7X7X7X7X7X7X7X7X7X7X7X7X7X7X7X7X7X",
"7X7X7X7X7X7X7Xo 7X7X7X7X7X7X7X7X7X7X7X7X7X7X7X7X7X7X7X7X7X7X7X7X",
"7X7X7X7X7X7X7X7X7X7X7X7X7X7X7X7X7X7X7X7X7X7X7Xo 7X7X7X7X7X7X7X7X",
"7X7X7X7X7X7X7X7Xo 7X7X7X7X7X7X7X7X7X7X7X7X7X7X7X7X7X7X7X7X7X7X7X",
"7X7X7X7X7X7Xo 7X7X7X7X7Xo 7X7X7X7X7X7X7X7X7X7X7X7X7X7X7X7X7X7X7X"
};
