<?xml version="1.0" encoding="UTF-8" standalone="no"?>
<!-- Created with Inkscape (http://www.inkscape.org/) -->

<svg
   xmlns:dc="http://purl.org/dc/elements/1.1/"
   xmlns:cc="http://creativecommons.org/ns#"
   xmlns:rdf="http://www.w3.org/1999/02/22-rdf-syntax-ns#"
   xmlns:svg="http://www.w3.org/2000/svg"
   xmlns="http://www.w3.org/2000/svg"
   xmlns:sodipodi="http://sodipodi.sourceforge.net/DTD/sodipodi-0.dtd"
   xmlns:inkscape="http://www.inkscape.org/namespaces/inkscape"
   sodipodi:docname="help.svg"
   height="32"
   id="svg7384"
   inkscape:version="0.91+devel r"
   version="1.1"
   width="32"
   viewBox="0 0 32 32">
  <metadata
     id="metadata90">
    <rdf:RDF>
      <cc:Work
         rdf:about="">
        <dc:format>image/svg+xml</dc:format>
        <dc:type
           rdf:resource="http://purl.org/dc/dcmitype/StillImage" />
        <dc:title>Gnome Symbolic Icon Theme</dc:title>
      </cc:Work>
    </rdf:RDF>
  </metadata>
  <sodipodi:namedview
     inkscape:bbox-nodes="true"
     inkscape:bbox-paths="true"
     bordercolor="#666666"
     borderopacity="1"
     inkscape:current-layer="layer10"
     inkscape:cx="2.70011"
     inkscape:cy="13.196717"
     gridtolerance="10"
     inkscape:guide-bbox="true"
     guidetolerance="10"
     id="namedview88"
     inkscape:object-nodes="false"
     inkscape:object-paths="false"
     objecttolerance="10"
     pagecolor="#ffffff"
     inkscape:pageopacity="0"
     inkscape:pageshadow="2"
     showborder="true"
     showgrid="false"
     showguides="true"
     inkscape:snap-bbox="true"
     inkscape:snap-bbox-midpoints="false"
     inkscape:snap-global="true"
     inkscape:snap-grids="true"
     inkscape:snap-nodes="true"
     inkscape:snap-others="false"
     inkscape:snap-to-guides="true"
     inkscape:window-height="1136"
     inkscape:window-maximized="1"
     inkscape:window-width="1920"
     inkscape:window-x="0"
     inkscape:window-y="0"
     inkscape:zoom="16"
     inkscape:document-units="px"
     inkscape:checkerboard="true"
     inkscape:snap-page="true"
     inkscape:locked="false"
     borderlayer="true"
     inkscape:showpageshadow="false">
    <inkscape:grid
       empspacing="2"
       enabled="true"
       id="grid4866"
       originx="120.0002px"
       originy="230px"
       snapvisiblegridlinesonly="true"
       spacingx="1px"
       spacingy="1px"
       type="xygrid"
       visible="true" />
    <inkscape:grid
       color="#000000"
       empcolor="#000000"
       empopacity="0"
       empspacing="4"
       enabled="true"
       id="grid5968"
       opacity="0.1254902"
       originx="120.0002px"
       originy="230px"
       snapvisiblegridlinesonly="true"
       spacingx="0.5px"
       spacingy="0.5px"
       type="xygrid"
       visible="true" />
    <sodipodi:guide
       position="4,28"
       orientation="1,0"
       id="guide70"
       inkscape:locked="false" />
    <sodipodi:guide
       position="4,28"
       orientation="0,1"
       id="guide72"
       inkscape:locked="false" />
    <sodipodi:guide
       position="28,4"
       orientation="0,1"
       id="guide74"
       inkscape:locked="false" />
    <sodipodi:guide
       position="28,4"
       orientation="1,0"
       id="guide76"
       inkscape:locked="false" />
    <sodipodi:guide
       position="-11.000001,44.875001"
       orientation="0,1"
       id="guide4339"
       inkscape:locked="false" />
    <sodipodi:guide
       position="-11.000001,41.125"
       orientation="1,0"
       id="guide4341"
       inkscape:locked="false" />
  </sodipodi:namedview>
  <title
     id="title9167">Gnome Symbolic Icon Theme</title>
  <defs
     id="defs7386" />
  <g
     inkscape:groupmode="layer"
     id="layer9"
     inkscape:label="status"
     style="display:inline"
     transform="translate(-121,-431)" />
  <g
     inkscape:groupmode="layer"
     id="layer10"
     inkscape:label="devices"
     style="display:inline"
     transform="translate(-121,-431)">
    <rect
       style="fill:#0000ff"
       id="rect30-3"
       width="2"
       height="2"
       x="117"
       y="427" />
    <rect
       style="fill:#0000ff"
       id="rect30-3-3"
       width="2"
       height="2"
       x="119"
       y="429" />
    <rect
       style="display:inline;fill:#0000ff"
       id="rect30-3-36"
       width="2"
       height="2"
       x="153"
       y="463" />
    <rect
       style="display:inline;fill:#0000ff"
       id="rect30-3-3-7"
       width="2"
       height="2"
       x="155"
       y="465" />
    <path
       id="path24839"
       style="color:#000000;font-style:normal;font-variant:normal;font-weight:normal;font-stretch:normal;font-size:medium;line-height:normal;font-family:Sans;-inkscape-font-specification:Sans;text-indent:0;text-align:start;text-decoration:none;text-decoration-line:none;letter-spacing:normal;word-spacing:normal;text-transform:none;writing-mode:lr-tb;direction:ltr;baseline-shift:baseline;text-anchor:start;display:inline;overflow:visible;visibility:visible;fill:#bebebe;fill-opacity:1;stroke:none;stroke-width:3.45231867;marker:none;enable-background:new"
       d="M 137.00001,435 C 130.37972,435 125,440.37971 125,447 c 0,6.62029 5.37972,12 12.00001,12 C 143.6203,459 149,453.62029 149,447 c 0,-6.62029 -5.3797,-12 -11.99999,-12 z m 0,3.16281 c 4.88777,0 8.83721,3.94941 8.83721,8.83719 0,4.88778 -3.94944,8.83719 -8.83721,8.83719 -4.88779,0 -8.83723,-3.94941 -8.83723,-8.83719 0,-4.88778 3.94944,-8.83719 8.83723,-8.83719 z m -2e-5,-1.44853 a 10.286223,10.286222 0 0 0 -10.28571,10.28573 10.286223,10.286222 0 0 0 10.28571,10.28571 10.286223,10.286222 0 0 0 10.28573,-10.28571 10.286223,10.286222 0 0 0 -10.28573,-10.28573 z m 0,1.08379 a 9.1899618,9.2018203 0 0 1 9.19005,9.20194 9.1899618,9.2018203 0 0 1 -9.19005,9.20192 9.1899618,9.2018203 0 0 1 -9.19003,-9.20192 9.1899618,9.2018203 0 0 1 9.19003,-9.20194 z m 0.0119,2.28986 c -3.28351,0 -4.5802,2.76425 -4.75302,4.23319 l 2.59224,0.34484 c 0,-0.34561 0.3462,-1.98579 2.16078,-1.98579 1.1233,0 1.72657,0.60293 1.9858,1.20779 0.0864,0.17281 0.26045,0.77914 -0.17159,1.21118 -0.17281,0.17281 -0.43238,0.34529 -0.778,0.51811 -0.9505,0.51844 -2.33234,1.38107 -2.33234,3.9733 h 2.59224 c 0,-0.86408 0.25854,-1.29557 1.03621,-1.7276 0.43204,-0.25924 0.95071,-0.51923 1.38276,-0.95128 1.03688,-1.03689 1.29623,-2.58929 0.69137,-4.05822 -0.69124,-1.64177 -2.41909,-2.76552 -4.40645,-2.76552 z m 0,10.36725 c -0.95481,0 -1.7293,0.77279 -1.7293,1.72759 0,0.95481 0.7745,1.7293 1.7293,1.7293 0.95478,0 1.72757,-0.77449 1.72757,-1.7293 0,-0.9548 -0.77279,-1.72759 -1.72757,-1.72759 z"
       inkscape:connector-curvature="0" />
  </g>
  <g
     inkscape:groupmode="layer"
     id="layer11"
     inkscape:label="apps"
     transform="translate(-121,-431)" />
  <g
     inkscape:groupmode="layer"
     id="layer13"
     inkscape:label="places"
     style="display:inline"
     transform="translate(-121,-431)" />
  <g
     inkscape:groupmode="layer"
     id="layer14"
     inkscape:label="mimetypes"
     transform="translate(-121,-431)" />
  <g
     inkscape:groupmode="layer"
     id="layer15"
     inkscape:label="emblems"
     style="display:inline"
     transform="translate(-121,-431)" />
  <g
     inkscape:groupmode="layer"
     id="g71291"
     inkscape:label="emotes"
     style="display:inline"
     transform="translate(-121,-431)" />
  <g
     inkscape:groupmode="layer"
     id="g4953"
     inkscape:label="categories"
     style="display:inline"
     transform="translate(-121,-431)" />
  <g
     inkscape:groupmode="layer"
     id="layer12"
     inkscape:label="actions"
     style="display:inline"
     transform="translate(-121,-431)" />
</svg>
